<svg width="160" height="160" viewBox="0 0 160 160" fill="none" xmlns="http://www.w3.org/2000/svg">
<mask id="mask0_3283_172" style="mask-type:luminance" maskUnits="userSpaceOnUse" x="39" y="40" width="80" height="80">
<path d="M119 40H39V119.261H119V40Z" fill="white"/>
</mask>
<g mask="url(#mask0_3283_172)">
<path d="M118.597 83.1803C119.052 80.08 119.119 76.9826 118.793 73.9592C118.795 73.857 118.778 73.76 118.758 73.6589C117.933 66.611 114.967 60.0052 109.774 54.8598C108.838 53.9315 107.825 53.0665 106.701 52.215C105.878 51.1452 104.985 50.1159 104.004 49.1445C90.4842 35.7495 66.9747 37.2463 51.5984 52.4791C36.2238 67.7118 34.7143 91.0041 48.2342 104.399C49.1969 105.353 50.2252 106.203 51.2818 107.006C52.1589 108.147 53.0482 109.169 54.0043 110.115C58.5733 114.641 64.2849 117.455 70.4342 118.626C70.4613 118.636 70.4899 118.635 70.517 118.644C70.6341 118.666 70.7509 118.691 70.868 118.712C70.8965 118.713 70.9236 118.728 70.9522 118.728L70.9673 118.725C72.9825 119.076 75.0385 119.26 77.1193 119.26C78.3635 119.26 79.616 119.195 80.8698 119.07C80.8876 119.072 80.9051 119.081 80.9228 119.081C80.984 119.081 81.0425 119.054 81.1037 119.046C84.3104 118.708 87.5292 117.964 90.6733 116.817C90.7303 116.799 90.7845 116.778 90.8404 116.753C93.0176 115.949 95.1552 114.947 97.2304 113.76C97.365 113.715 97.4862 113.638 97.603 113.549C99.6022 112.379 101.537 111.035 103.382 109.511L103.389 109.507L103.391 109.504C104.424 108.65 105.433 107.746 106.407 106.781C110.642 102.586 113.818 97.7771 115.925 92.7341C115.951 92.6817 115.974 92.6331 115.993 92.5792C117.228 89.5855 118.085 86.5096 118.559 83.4309C118.577 83.3461 118.6 83.2651 118.597 83.1803ZM114.17 89.7014L110.529 86.0933C110.718 85.6083 110.9 85.1204 111.07 84.6313C111.145 84.4172 111.213 84.2016 111.283 83.9861C111.471 83.4119 111.645 82.8369 111.807 82.2601C111.868 82.0405 111.935 81.8208 111.992 81.6C112.11 81.1473 112.214 80.6932 112.314 80.2391L115.763 83.656C115.412 85.6838 114.877 87.7045 114.17 89.7014ZM111.145 96.2303L107.375 92.4956C107.462 92.3514 107.552 92.2086 107.636 92.0633C107.669 92.0065 107.706 91.9514 107.738 91.8961C108.165 91.1605 108.562 90.4139 108.94 89.6635C109.021 89.5033 109.098 89.3428 109.176 89.1826C109.244 89.0439 109.313 88.905 109.379 88.7663L113.084 92.4364C112.515 93.7216 111.865 94.9868 111.145 96.2303ZM107.216 101.865L103.393 98.0775C103.761 97.6411 104.116 97.1977 104.462 96.7506C104.488 96.7168 104.517 96.6845 104.544 96.6495C105.008 96.0486 105.451 95.4395 105.878 94.8225L109.67 98.5803C108.915 99.7012 108.101 100.799 107.216 101.865ZM112.895 77.0042C112.929 76.7537 112.963 76.5043 112.993 76.2538C113.066 75.6086 113.123 74.963 113.163 74.319C113.186 73.9484 113.197 73.5808 113.208 73.2114C113.22 72.8383 113.225 72.4666 113.227 72.0946C113.227 71.9384 113.236 71.7806 113.235 71.6244L116.127 74.4888C116.316 76.3913 116.337 78.3261 116.194 80.2729L112.895 77.0042ZM111.511 61.2326C113.251 63.876 114.483 66.7849 115.272 69.8323L112.946 67.5286C112.919 67.3157 112.883 67.1055 112.851 66.8953C112.8 66.545 112.749 66.1947 112.687 65.8471C112.573 65.2139 112.441 64.586 112.291 63.9636C112.223 63.6847 112.146 63.4112 112.071 63.1336C111.941 62.654 111.802 62.177 111.65 61.7041C111.599 61.5479 111.562 61.3875 111.511 61.2326ZM53.5228 54.3828C61.3311 46.6465 71.3603 42.6854 80.8876 42.6854C88.8264 42.6854 96.4186 45.438 102.082 51.0496C102.845 51.8054 103.554 52.5963 104.212 53.4168L104.566 53.8803C104.593 53.9153 104.619 53.9517 104.646 53.9867C105.246 54.7749 105.798 55.5873 106.305 56.4226C106.316 56.4415 106.327 56.4604 106.337 56.4792C106.835 57.3038 107.288 58.1513 107.696 59.0162C107.715 59.0553 107.731 59.0971 107.749 59.1361C108.135 59.9634 108.479 60.8082 108.784 61.6664C108.81 61.7419 108.837 61.816 108.863 61.8914C109.128 62.6594 109.351 63.4408 109.552 64.229C109.598 64.4122 109.652 64.5928 109.695 64.7774C109.871 65.5197 110.006 66.2715 110.126 67.0274C110.167 67.2888 110.212 67.5488 110.246 67.8129C110.341 68.5323 110.406 69.2573 110.451 69.9861C110.47 70.2839 110.486 70.583 110.497 70.8834C110.523 71.6043 110.525 72.3291 110.503 73.0553C110.493 73.353 110.478 73.6495 110.462 73.9473C110.42 74.6921 110.359 75.4399 110.268 76.1877C110.236 76.4492 110.194 76.7105 110.157 76.9718C110.043 77.7642 109.911 78.5551 109.741 79.3445C109.702 79.5303 109.652 79.715 109.609 79.8997C109.426 80.6947 109.22 81.4867 108.981 82.2761C108.946 82.3947 108.913 82.5147 108.876 82.6333C108.603 83.5063 108.292 84.3726 107.952 85.2337C107.901 85.3631 107.855 85.4924 107.802 85.6203C107.451 86.4825 107.064 87.3355 106.646 88.1802C106.581 88.3122 106.518 88.4441 106.452 88.5749C106.025 89.4171 105.563 90.2485 105.07 91.0702C104.995 91.1955 104.919 91.3196 104.843 91.4434C104.336 92.2666 103.799 93.0776 103.226 93.874C103.147 93.9832 103.066 94.091 102.985 94.2C102.393 95.0072 101.771 95.8007 101.111 96.5741C101.046 96.6507 100.977 96.725 100.91 96.8016C100.214 97.6061 99.4877 98.3941 98.7181 99.1567C97.9444 99.9234 97.1448 100.646 96.3289 101.339C96.2581 101.4 96.1887 101.463 96.1168 101.524C95.3294 102.184 94.5202 102.805 93.699 103.398C93.5982 103.471 93.4977 103.545 93.3958 103.618C92.5824 104.193 91.7528 104.732 90.9124 105.24C90.7997 105.307 90.6866 105.375 90.5739 105.442C89.7321 105.939 88.8783 106.404 88.0134 106.834C87.8989 106.89 87.7847 106.944 87.6691 106.999C86.7975 107.423 85.9178 107.815 85.0296 108.169C84.9236 108.211 84.8161 108.25 84.7089 108.29C83.8058 108.641 82.8961 108.963 81.9808 109.243C81.9019 109.267 81.8232 109.286 81.7443 109.309C80.9065 109.559 80.0635 109.774 79.219 109.964C79.06 109.999 78.9006 110.042 78.7416 110.075C77.9216 110.249 77.0989 110.383 76.2763 110.5C76.0368 110.534 75.7962 110.571 75.5568 110.6C74.7816 110.693 74.0094 110.755 73.2368 110.798C72.9554 110.812 72.6752 110.827 72.395 110.835C71.6443 110.858 70.8951 110.855 70.1499 110.83C69.8656 110.82 69.5816 110.804 69.2987 110.787C68.5481 110.741 67.8 110.675 67.0575 110.578C66.8087 110.546 66.5611 110.504 66.3123 110.466C65.5346 110.346 64.7609 110.209 63.9979 110.031C63.8267 109.992 63.658 109.942 63.4879 109.9C62.672 109.697 61.8615 109.469 61.0675 109.198C61.0104 109.18 60.9544 109.159 60.8973 109.141C60.0161 108.835 59.1498 108.488 58.3013 108.099C58.2686 108.084 58.236 108.072 58.2048 108.057C57.3277 107.652 56.4684 107.2 55.6321 106.704C55.6158 106.695 55.6006 106.687 55.5843 106.678C54.7398 106.175 53.9172 105.627 53.1202 105.031C53.089 105.008 53.0579 104.985 53.0264 104.961L52.5452 104.603C51.717 103.95 50.92 103.25 50.1571 102.494C37.6978 90.1486 39.2073 68.5661 53.5228 54.3828ZM96.9787 110.776L93.1767 107.009C93.3561 106.894 93.537 106.785 93.7153 106.668C93.7709 106.632 93.828 106.598 93.8825 106.562C94.6073 106.082 95.3212 105.573 96.0242 105.043C96.1954 104.914 96.3629 104.779 96.5328 104.648C96.5383 104.644 96.5438 104.639 96.5505 104.635L100.37 108.42C99.266 109.264 98.1387 110.063 96.9787 110.776ZM90.5754 113.958L86.8994 110.316C87.54 110.046 88.1765 109.756 88.8086 109.452C88.9584 109.379 89.1066 109.301 89.2561 109.225C89.7647 108.972 90.2707 108.712 90.7723 108.437L94.5298 112.16C93.2312 112.837 91.9119 113.436 90.5754 113.958ZM81.3851 116.285L78.0168 112.948C78.3037 112.897 78.5892 112.848 78.8761 112.792C79.6012 112.647 80.326 112.486 81.0481 112.3C81.2683 112.243 81.4885 112.174 81.7088 112.114C82.2841 111.956 82.8565 111.786 83.4292 111.602C83.6602 111.528 83.8915 111.452 84.1213 111.373L87.7291 114.947C85.6267 115.586 83.5052 116.027 81.3851 116.285ZM61.4304 112.122C61.6888 112.199 61.9457 112.275 62.2056 112.346C62.9563 112.548 63.7136 112.721 64.478 112.872L66.3356 114.714C64.2727 113.973 62.2871 113.033 60.435 111.836C60.7642 111.944 61.1001 112.024 61.4304 112.122ZM71.5697 116.089L68.911 113.453C69.6739 113.504 70.4383 113.537 71.2079 113.539C71.2554 113.539 71.3032 113.546 71.3507 113.546C71.6568 113.546 71.9653 113.53 72.2726 113.522C72.9065 113.506 73.5415 113.475 74.1777 113.426C74.3248 113.415 74.4731 113.405 74.6199 113.393L77.7951 116.538C75.6873 116.579 73.6039 116.435 71.5697 116.089ZM102.488 106.707L98.6529 102.908C98.6636 102.898 98.6733 102.887 98.684 102.878C99.3479 102.295 100.002 101.695 100.64 101.064C100.962 100.745 101.269 100.417 101.581 100.09L105.411 103.886C105.1 104.215 104.812 104.555 104.487 104.876C103.838 105.519 103.165 106.117 102.488 106.707Z" fill="#F2BD02"/>
<path d="M50.4912 66.9298C50.6843 67.0227 52.7336 68.1154 52.9335 68.1154C53.3101 67.3542 53.7249 66.5997 54.1657 65.8708C53.521 65.4881 51.8335 64.4844 51.8335 64.4844C51.352 65.2779 50.9005 66.1012 50.4912 66.9298Z" fill="#F2BD02"/>
<path d="M58.9701 59.7781C59.5658 59.188 60.1886 58.6167 60.8237 58.0792C60.8237 58.0792 59.544 56.5971 59.0558 56.0312C58.3689 56.6133 57.6931 57.2331 57.0269 57.8932C57.2879 58.1506 58.6246 59.7781 58.9701 59.7781Z" fill="#F2BD02"/>
<path d="M52.5913 96.1504C53.1666 96.874 53.7961 97.5746 54.4 98.1685C54.43 98.2023 54.4912 98.2644 54.5252 98.2953C54.7822 98.5338 54.2001 98.2953 54.5252 98.2953C54.5252 98.2953 56.1149 96.6057 56.3855 96.3281C55.7953 95.7435 55.2378 95.1224 54.7277 94.4824C54.7277 94.4824 53.1815 95.6896 52.5913 96.1504Z" fill="#F2BD02"/>
<path d="M102.132 75.7188C102.049 76.5527 101.923 77.399 101.759 78.2344C101.846 78.2519 104.341 78.7503 104.427 78.7503C104.608 77.8316 104.745 76.9006 104.838 75.983C104.838 75.983 102.879 75.7916 102.132 75.7188Z" fill="#F2BD02"/>
<path d="M61.502 103.067C62.3587 103.455 63.2535 103.799 64.1592 104.09C64.2993 104.134 64.0205 104.09 64.1592 104.09C64.1592 104.09 64.812 102.096 64.9981 101.526C64.1904 101.266 63.3948 100.96 62.6319 100.615C62.6319 100.615 61.8134 102.39 61.502 103.067Z" fill="#F2BD02"/>
<path d="M101.749 68.1535C102.484 68.0026 104.411 67.6038 104.411 67.6038C104.218 66.6835 103.972 65.7674 103.68 64.8809C103.68 64.8809 101.811 65.4858 101.093 65.7162C101.355 66.5111 101.576 67.3303 101.749 68.1535Z" fill="#F2BD02"/>
<path d="M51.1563 87.8621C50.8938 87.0713 50.6736 86.2521 50.4982 85.4277C49.7624 85.5798 47.8369 85.9815 47.8369 85.9815C48.0327 86.9029 48.2803 87.8179 48.5727 88.7028C48.7126 88.7028 48.4312 88.7474 48.5727 88.7028C49.2853 88.4713 51.1563 87.8621 51.1563 87.8621Z" fill="#F2BD02"/>
<path d="M50.1044 77.8668C50.1874 77.0328 50.311 76.1866 50.4741 75.35C49.7356 75.2099 47.8031 74.8379 47.8031 74.8379C47.6237 75.7569 47.4877 76.6879 47.3979 77.6052C47.3979 77.6052 49.3578 77.7952 50.1044 77.8668Z" fill="#F2BD02"/>
<path d="M72.5382 105.367H72.5438C73.4792 105.364 74.4285 105.315 75.3653 105.221C75.3653 105.221 75.1696 103.28 75.0947 102.539C74.245 102.624 73.3827 102.668 72.5327 102.671C72.5356 103.415 72.5382 105.367 72.5382 105.367Z" fill="#F2BD02"/>
<path d="M83.5629 103.245C83.7275 103.245 83.4012 103.309 83.5629 103.245C84.4278 102.911 85.2926 102.533 86.1371 102.12C86.1371 102.12 85.2667 100.37 84.9349 99.7031C84.1612 100.082 83.3671 100.429 82.5757 100.735C82.7837 101.269 83.5629 103.245 83.5629 103.245Z" fill="#F2BD02"/>
<path d="M77.1038 51.0045C77.1501 51.0045 77.0578 51.0099 77.1038 51.0045C77.9538 50.9197 78.8161 50.8738 79.6658 50.8684C79.6658 50.8684 79.6565 48.9175 79.6524 48.1738C79.6524 48.1738 80.4072 48.1738 79.6591 48.1738H79.6524C78.7167 48.1779 77.7662 48.2291 76.8291 48.3234C76.8291 48.3234 77.0278 50.2635 77.1038 51.0045Z" fill="#F2BD02"/>
<path d="M67.2707 53.854C68.0389 53.4768 68.8318 53.1291 69.6285 52.8179C69.6285 52.8179 68.9107 51.0031 68.6346 50.3105C67.7656 50.6474 66.8993 51.0287 66.0615 51.4396C66.301 51.9139 67.2707 53.854 67.2707 53.854Z" fill="#F2BD02"/>
<path d="M97.5377 59.0989C97.8314 59.0989 99.4277 57.6276 99.6767 57.4336C99.0907 56.6966 98.4527 55.9839 97.7632 55.3008L95.8555 57.222C96.4523 57.8135 97.018 58.4454 97.5377 59.0989Z" fill="#F2BD02"/>
<path d="M99.288 85.4668C98.9126 86.2251 98.4966 86.9798 98.0532 87.7113C98.272 87.8421 100.146 89.099 100.384 89.099C100.867 88.3029 101.32 87.4809 101.729 86.6565C101.055 86.329 99.288 85.4668 99.288 85.4668Z" fill="#F2BD02"/>
<path d="M87.2036 52.0054C88.0085 52.2627 88.8055 52.5672 89.5725 52.9121C89.8824 52.2344 90.6957 50.4586 90.6957 50.4586C89.8361 50.072 88.9415 49.7297 88.0385 49.4414C87.8072 50.1501 87.2036 52.0054 87.2036 52.0054Z" fill="#F2BD02"/>
<path d="M91.3843 95.4882C91.6537 95.7993 93.1507 97.5375 93.1507 97.5375C93.8525 96.9447 94.5394 96.3155 95.1907 95.6688L95.207 95.6525C95.207 95.6525 93.7983 94.2892 93.2678 93.7637C92.6654 94.3605 92.0315 94.9411 91.3843 95.4882Z" fill="#F2BD02"/>
<path d="M47.727 114.657C45.4779 114.657 43.6473 112.844 43.6473 110.615C43.6473 110.615 41.6784 110.615 40.9277 110.615C40.9277 114.33 43.9779 117.352 47.727 117.352C47.727 117.352 47.727 115.401 47.727 114.657Z" fill="#F2BD02"/>
<path d="M110.282 43.2532C112.531 43.2532 114.361 45.6703 114.361 48.6425H117.08C117.08 44.1842 114.031 40.5586 110.282 40.5586V43.2532Z" fill="#F2BD02"/>
<path d="M117.079 101.186H114.36C114.36 107.871 108.869 113.312 102.121 113.312C102.121 114.055 102.121 116.006 102.121 116.006C110.37 116.006 117.079 109.359 117.079 101.186Z" fill="#F2BD02"/>
<path d="M118.44 113.307C117.692 113.307 115.721 113.307 115.721 113.307C115.721 114.767 113.853 116.001 111.642 116.001C111.642 116.745 111.642 118.696 111.642 118.696C115.391 118.696 118.44 116.279 118.44 113.307Z" fill="#F2BD02"/>
</g>
</svg>
