<svg width="203" height="56" viewBox="0 0 203 56" fill="none" xmlns="http://www.w3.org/2000/svg">
<g clip-path="url(#clip0_2733_86)">
<mask id="mask0_2733_86" style="mask-type:luminance" maskUnits="userSpaceOnUse" x="0" y="3" width="203" height="44">
<path d="M202.916 3H0V46.8919H202.916V3Z" fill="white"/>
</mask>
<g mask="url(#mask0_2733_86)">
<path d="M195.187 46.892C193.809 46.892 192.511 46.6938 191.293 46.2981C190.075 45.902 189.185 45.3679 188.623 44.6946L189.667 42.5571C190.444 42.9923 191.675 43.2104 193.36 43.2104C193.896 43.2104 194.358 43.151 194.745 43.0321C195.134 42.9133 195.481 42.7019 195.79 42.3987C196.097 42.1084 196.332 41.6927 196.492 41.1516C196.652 40.6107 196.74 39.9442 196.753 39.1525V37.4501L196.552 37.7668C196.419 37.9782 196.211 38.2355 195.93 38.539C195.662 38.829 195.354 39.1262 195.006 39.4297C194.658 39.72 194.231 39.9705 193.722 40.1819C193.226 40.3929 192.718 40.4982 192.196 40.4982C190.202 40.4982 188.798 39.9509 187.981 38.8553C187.165 37.7472 186.757 35.8864 186.757 33.2735V26.2467L186.034 25.5342V23.2578H193.341V34.5206C193.341 35.1277 193.434 35.5763 193.622 35.8666C193.822 36.1438 194.217 36.2823 194.805 36.2823C194.98 36.2823 195.153 36.2561 195.328 36.2032C195.501 36.1372 195.669 36.0513 195.829 35.9458C196.004 35.8403 196.185 35.7082 196.371 35.55V26.2467L195.267 25.5342V23.2578H202.916V37.7668C202.916 40.6832 202.286 42.9332 201.028 44.5167C199.771 46.0998 197.823 46.892 195.187 46.892Z" fill="#F2B844"/>
<path d="M178.653 30.0798C178.653 28.4434 178.567 27.2839 178.395 26.6012C178.223 25.9183 177.906 25.577 177.443 25.577C177.047 25.577 176.722 25.6477 176.472 25.7895C176.22 25.9183 176.035 26.131 175.916 26.4272C175.797 26.7107 175.717 27.0071 175.677 27.3162C175.651 27.6125 175.638 27.9927 175.638 28.4565V30.0798H178.653ZM177.067 40.4769C175.585 40.4769 174.296 40.2578 173.199 39.82C172.113 39.3817 171.254 38.7699 170.62 37.9839C169.998 37.1979 169.541 36.3154 169.251 35.3363C168.96 34.3442 168.815 33.2427 168.815 32.0316C168.815 29.1458 169.569 26.962 171.075 25.4803C172.583 23.9987 174.693 23.2578 177.403 23.2578C180.008 23.2578 181.873 23.8569 182.998 25.0551C184.121 26.2404 184.683 28.1536 184.683 30.7948V32.94H175.618V33.3071C175.618 34.0672 175.697 34.6921 175.856 35.1818C176.029 35.6713 176.273 36.032 176.59 36.264C176.908 36.4958 177.231 36.6505 177.563 36.7277C177.893 36.8053 178.296 36.8438 178.772 36.8438C179.235 36.8438 179.731 36.7856 180.26 36.6697C180.802 36.5538 181.344 36.3735 181.886 36.1287C182.441 35.884 182.904 35.5941 183.275 35.2591L184.445 37.211C183.955 37.9839 183.236 38.6346 182.283 39.1629C181.344 39.6781 180.439 40.0259 179.566 40.2062C178.693 40.3868 177.86 40.4769 177.067 40.4769Z" fill="#F2B844"/>
<path d="M139.601 38.1578C140.184 38.1578 140.629 37.9258 140.934 37.4622C141.252 36.9856 141.412 36.335 141.412 35.5102V29.4033C141.412 26.8912 140.801 25.6349 139.581 25.6349C139.01 25.6349 138.566 25.8604 138.248 26.3113C137.928 26.7623 137.769 27.3999 137.769 28.2246V34.5053C137.769 36.9403 138.379 38.1578 139.601 38.1578ZM139.441 40.4769C136.402 40.4769 134.18 39.8068 132.773 38.467C131.366 37.127 130.663 34.9885 130.663 32.0511C130.663 29.1391 131.373 26.9491 132.793 25.4803C134.213 23.9987 136.522 23.2578 139.72 23.2578C142.839 23.2578 145.087 23.9664 146.467 25.3836C147.861 26.788 148.558 28.9203 148.558 31.7804C148.558 34.7437 147.822 36.9339 146.348 38.3509C144.888 39.7683 142.586 40.4769 139.441 40.4769Z" fill="#F2B844"/>
<path d="M109.52 40.4769H103.148V27.6714L101.964 26.9391V24.8214L106.544 23.2578H109.56V26.2069C109.626 26.1145 109.718 25.9958 109.836 25.8506C109.968 25.6923 110.205 25.4481 110.546 25.1183C110.888 24.7884 111.237 24.4982 111.592 24.2475C111.96 23.9967 112.401 23.7724 112.914 23.5745C113.441 23.3634 113.96 23.2578 114.473 23.2578C115.788 23.2578 116.794 23.5085 117.492 24.0099C118.189 24.5114 118.682 25.3294 118.971 26.4642C119.419 25.6857 120.102 24.9599 121.023 24.2871C121.957 23.6009 122.983 23.2578 124.101 23.2578C125.338 23.2578 126.298 23.4756 126.981 23.911C127.679 24.3333 128.185 25.0589 128.501 26.0881C128.816 27.1173 128.974 28.5686 128.974 30.4424V40.4769H122.562V29.8684C122.562 29.2879 122.424 28.8326 122.148 28.5027C121.871 28.1729 121.451 28.0079 120.885 28.0079C120.504 28.0079 119.984 28.3246 119.327 28.9579C119.366 29.5914 119.386 30.2773 119.386 31.0164V40.4769H112.874V29.8684C112.914 28.628 112.388 28.0079 111.296 28.0079C111.217 28.0079 111.138 28.0145 111.059 28.0277C110.994 28.041 110.928 28.0542 110.862 28.0673C110.809 28.0804 110.743 28.107 110.664 28.1464C110.599 28.1729 110.539 28.1993 110.488 28.2257C110.435 28.2389 110.376 28.2717 110.31 28.3246C110.244 28.3642 110.192 28.3972 110.152 28.4236C110.113 28.4499 110.053 28.4961 109.974 28.562C109.908 28.6148 109.856 28.6545 109.816 28.6808C109.79 28.7073 109.737 28.7535 109.658 28.8195C109.593 28.8722 109.547 28.9117 109.52 28.9383V40.4769Z" fill="#F2B844"/>
<path d="M84.782 46.5543C83.4038 46.5543 82.1059 46.3591 80.8881 45.9689C79.6703 45.5786 78.7807 45.0519 78.2181 44.3884L79.2621 42.2812C80.0383 42.7104 81.2693 42.9251 82.9555 42.9251C83.4909 42.9251 83.9525 42.8667 84.3407 42.7495C84.7287 42.6324 85.0764 42.4244 85.3843 42.1253C85.6919 41.839 85.9263 41.4294 86.0869 40.896C86.2477 40.3628 86.3345 39.7059 86.348 38.9252V37.2476L86.1471 37.5595C86.0133 37.7678 85.8057 38.0214 85.5251 38.3205C85.257 38.6068 84.9495 38.8992 84.6014 39.1984C84.2537 39.4846 83.8252 39.7319 83.317 39.9401C82.8217 40.1481 82.3132 40.2521 81.7913 40.2521C79.7972 40.2521 78.3923 39.7122 77.576 38.6325C76.7596 37.5402 76.3514 35.7059 76.3514 33.1304V26.2041L75.6289 25.5017V23.2578H82.9355V34.3596C82.9355 34.9582 83.0291 35.4003 83.2164 35.6865C83.4173 35.9597 83.812 36.0962 84.4008 36.0962C84.5747 36.0962 84.7489 36.0703 84.9228 36.0183C85.0967 35.9532 85.2638 35.8685 85.4245 35.7645C85.5984 35.6606 85.779 35.5303 85.9664 35.3744V26.2041L84.8627 25.5017V23.2578H92.5104V37.5595C92.5104 40.4341 91.8813 42.652 90.6234 44.2128C89.3653 45.7737 87.4186 46.5543 84.782 46.5543Z" fill="#F2B844"/>
<path d="M45.0843 40.4769H38.669V27.6714L37.4775 26.9391V24.8214L42.1595 23.2578H45.1238V26.2069L45.3622 25.91C45.5208 25.6989 45.7528 25.4481 46.0574 25.1579C46.3751 24.8675 46.7259 24.5839 47.1102 24.3068C47.4937 24.0165 47.9508 23.7724 48.4802 23.5745C49.0231 23.3634 49.5529 23.2578 50.0691 23.2578C51.8832 23.2578 53.1608 23.7526 53.9022 24.7422C54.6568 25.7319 55.0343 27.3879 55.0343 29.7101C55.0343 29.7893 55.0343 29.908 55.0343 30.0664C55.0208 30.2246 55.0143 30.3499 55.0143 30.4424V40.4769H48.4603V29.8684C48.5001 28.628 47.9704 28.0079 46.8717 28.0079C46.7921 28.0079 46.7127 28.0145 46.6334 28.0277C46.5672 28.041 46.5007 28.0542 46.4346 28.0673C46.3816 28.0804 46.3153 28.107 46.2359 28.1464C46.1698 28.1729 46.1104 28.1993 46.0574 28.2257C46.0044 28.2389 45.9446 28.2717 45.8784 28.3246C45.8123 28.3642 45.7593 28.3973 45.7194 28.4236C45.6799 28.4499 45.6205 28.4961 45.5408 28.562C45.4746 28.6148 45.4216 28.6545 45.3821 28.6808C45.3555 28.7073 45.3025 28.7535 45.2231 28.8195C45.157 28.8722 45.1107 28.9117 45.0843 28.9383V40.4769Z" fill="#F2B844"/>
<path d="M64.329 40.4769H57.9136V27.6714L56.7222 26.9391V24.8214L61.4041 23.2578H64.3685V26.2069L64.6068 25.91C64.7655 25.6989 64.9974 25.4481 65.302 25.1579C65.6197 24.8675 65.9705 24.5839 66.3547 24.3068C66.7383 24.0165 67.1954 23.7724 67.7249 23.5745C68.2677 23.3634 68.7975 23.2578 69.3138 23.2578C71.1278 23.2578 72.4054 23.7526 73.1468 24.7422C73.9015 25.7319 74.2789 27.3879 74.2789 29.7101C74.2789 29.7893 74.2789 29.908 74.2789 30.0664C74.2654 30.2246 74.259 30.3499 74.259 30.4424V40.4769H67.7049V29.8684C67.7447 28.628 67.215 28.0079 66.1163 28.0079C66.0367 28.0079 65.9573 28.0145 65.878 28.0277C65.8118 28.041 65.7454 28.0542 65.6792 28.0673C65.6261 28.0804 65.5599 28.107 65.4806 28.1464C65.4144 28.1729 65.355 28.1993 65.302 28.2257C65.249 28.2389 65.1892 28.2717 65.1231 28.3246C65.0569 28.3642 65.0039 28.3973 64.9641 28.4236C64.9246 28.4499 64.8651 28.4961 64.7854 28.562C64.7193 28.6148 64.6663 28.6545 64.6268 28.6808C64.6001 28.7073 64.5471 28.7535 64.4678 28.8195C64.4015 28.8722 64.3553 28.9117 64.329 28.9383V40.4769Z" fill="#F2B844"/>
<path d="M157.515 40.4769H151.099V27.6714L149.907 26.9391V24.8214L154.589 23.2578H157.554V26.2069L157.792 25.91C157.95 25.6989 158.183 25.4481 158.487 25.1579C158.805 24.8675 159.156 24.5839 159.54 24.3068C159.923 24.0165 160.381 23.7724 160.91 23.5745C161.453 23.3634 161.983 23.2578 162.499 23.2578C164.314 23.2578 165.591 23.7526 166.333 24.7422C167.087 25.7319 167.464 27.3879 167.464 29.7101C167.464 29.7893 167.464 29.908 167.464 30.0664C167.451 30.2246 167.444 30.3499 167.444 30.4424V40.4769H160.89V29.8684C160.93 28.628 160.401 28.0079 159.301 28.0079C159.222 28.0079 159.143 28.0145 159.063 28.0277C158.997 28.041 158.93 28.0542 158.864 28.0673C158.812 28.0804 158.745 28.107 158.666 28.1464C158.6 28.1729 158.541 28.1993 158.487 28.2257C158.434 28.2389 158.375 28.2717 158.308 28.3246C158.242 28.3642 158.19 28.3973 158.149 28.4236C158.11 28.4499 158.05 28.4961 157.971 28.562C157.904 28.6148 157.852 28.6545 157.812 28.6808C157.786 28.7073 157.732 28.7535 157.653 28.8195C157.587 28.8722 157.541 28.9117 157.515 28.9383V40.4769Z" fill="#F2B844"/>
<path d="M29.9435 37.4326C29.8633 37.6169 29.6959 37.861 29.4417 38.1638C29.2008 38.467 28.8798 38.8033 28.4783 39.172C28.0767 39.5279 27.5816 39.8311 26.9928 40.0816C26.4042 40.3453 25.8087 40.4769 25.2065 40.4769C23.3194 40.4769 21.9679 39.9236 21.1516 38.8165C20.3486 37.7091 19.9472 35.8641 19.9472 33.281V26.243L19.2446 25.5313V23.2578H26.5312V34.5265C26.5176 35.1196 26.6181 35.5609 26.8323 35.8509C27.0463 36.1278 27.4345 36.2661 27.9965 36.2661C28.0767 36.2661 28.1505 36.2661 28.2173 36.2661C28.2843 36.253 28.3511 36.2398 28.418 36.2264C28.4849 36.2002 28.5384 36.1806 28.5787 36.1672C28.6322 36.154 28.6925 36.1344 28.7594 36.1078C28.8262 36.0684 28.8798 36.0354 28.9197 36.0092C28.96 35.9826 29.0135 35.9498 29.0805 35.9102C29.1473 35.8575 29.1943 35.8179 29.2208 35.7917C29.2611 35.7654 29.3146 35.7257 29.3816 35.673C29.4618 35.6071 29.5219 35.5609 29.5622 35.5347V26.243L28.4783 25.5313V23.2578H36.1261V40.4769H30.6574L29.9435 37.4326Z" fill="#F2B844"/>
<path fill-rule="evenodd" clip-rule="evenodd" d="M6.16732 16.4439C6.92063 11.4641 5.15598 6.43386 1.46933 3.05206C1.34759 2.94039 1.1523 3.01926 1.13984 3.18513L0.706042 8.95478L0 15.3443V39.5343C0.00724273 40.0525 0.762368 40.4769 1.27434 40.4769H5.14997H8.89544H9.18566L9.1909 40.4718C13.8376 40.3152 17.5568 36.4728 17.5568 31.7559C17.5568 26.9394 13.6789 23.0348 8.89544 23.0348H5.17022L6.16732 16.4439ZM8.66132 31.9209C9.82489 31.9209 10.7681 30.8655 10.7681 29.5638C10.7681 28.2621 9.82489 27.2068 8.66132 27.2068C7.49778 27.2068 6.55451 28.2621 6.55451 29.5638C6.55451 30.8655 7.49778 31.9209 8.66132 31.9209Z" fill="#F2B844"/>
</g>
</g>
<defs>
<clipPath id="clip0_2733_86">
<rect width="203" height="43.8919" fill="white" transform="translate(0 3)"/>
</clipPath>
</defs>
</svg>
