<svg width="203" height="56" viewBox="0 0 203 56" fill="none" xmlns="http://www.w3.org/2000/svg">
<g clip-path="url(#clip0_3087_86)">
<path fill-rule="evenodd" clip-rule="evenodd" d="M1.25141 17.6093C1.23848 17.3853 1.51628 17.2717 1.66396 17.4406L12.4225 29.7431C12.5163 29.8505 12.6833 29.8505 12.7772 29.7431L23.5409 17.4346C23.688 17.2664 23.9648 17.3784 23.9536 17.6016L23.6731 23.1524C23.6037 24.5266 22.9371 25.8017 21.8483 26.6431L12.7443 33.6783C12.6592 33.744 12.5405 33.7438 12.4556 33.6778L3.38604 26.6304C2.31238 25.7961 1.65146 24.5388 1.5731 23.1813L1.25141 17.6093ZM6.7472 21.7355C6.7333 21.7196 6.73175 21.6963 6.74342 21.6787L6.86839 21.4896C9.65343 17.2756 15.8712 17.3769 18.5177 21.6792C18.5284 21.6966 18.5263 21.719 18.5126 21.7341L12.8946 27.981C12.7054 28.1913 12.375 28.1888 12.1892 27.9756L6.7472 21.7355ZM7.69267 31.7628C7.69267 31.5665 7.91877 31.4563 8.07342 31.5772L10.3645 33.3687C10.5409 33.5067 10.4434 33.7899 10.2194 33.7899H9.10628C8.32558 33.7899 7.69267 33.157 7.69267 32.3763V31.7628ZM17.1251 31.5772C17.2797 31.4563 17.5058 31.5665 17.5058 31.7628V32.3763C17.5058 33.157 16.8729 33.7899 16.0922 33.7899H14.9791C14.7551 33.7899 14.6576 33.5067 14.8341 33.3687L17.1251 31.5772ZM4.09061 28.5406C3.83626 28.3442 3.46427 28.4544 3.35799 28.7577L0 38.3399L4.11731 37.6178C5.12834 37.4405 5.90821 36.629 6.04521 35.6117L6.68745 30.8431C6.70992 30.6763 6.64167 30.5101 6.50842 30.4073L4.09061 28.5406ZM21.9016 28.7577C21.7953 28.4544 21.4234 28.3442 21.169 28.5406L18.7512 30.4073C18.618 30.5101 18.5497 30.6763 18.5722 30.8431L19.2144 35.6117C19.3514 36.629 20.1313 37.4405 21.1423 37.6178L25.2596 38.3399L21.9016 28.7577Z" fill="#F90D01"/>
<path d="M196.438 34.0172V21.581H184.504V34.0172H196.438ZM202.463 17.3359V38.2623H178.479V17.3359H202.463Z" fill="#252328"/>
<path d="M151.24 17.3359H175.224V27.6198L168.253 29.1444L176.171 38.2623H167.837L161.259 30.669L157.265 31.536V38.2623H151.24V32.8514L147.801 33.5987V28.9651L151.24 28.2176V17.3359ZM169.199 24.2416V21.581H157.265V26.8425L169.199 24.2416Z" fill="#252328"/>
<path d="M145.948 17.3359V38.2623H139.923V21.581H136.483V17.3359H145.948Z" fill="#252328"/>
<path d="M107.247 17.3359H116.711V25.6168H128.622V17.3359H134.647V38.2623H128.622V29.8619H116.711V38.2623H110.687V21.581H107.247V17.3359Z" fill="#252328"/>
<path d="M81.6582 27.7692V17.3359H105.389V24.6004L99.3635 23.4046V21.581H87.6832V24.421L105.389 28.0383V38.2623H81.6582V31.3865L87.6832 32.5225V34.0172H99.3635V31.3865L81.6582 27.7692Z" fill="#252328"/>
<path d="M65.8675 21.581L63.4207 28.7857H70.3919L67.9451 21.581H65.8675ZM72.7926 17.3359L79.8099 38.2623H73.5775L71.8231 33.0307H61.9895L60.2351 38.2623H53.9795L59.6119 21.581H56.7495V17.3359H72.7926Z" fill="#252328"/>
<path d="M46.5753 31.6257L52.6001 30.5494V38.2623H28.6162V17.3359H52.6001V25.0488L46.5753 23.9726V21.581H34.641V34.0172H46.5753V31.6257Z" fill="#252328"/>
</g>
<defs>
<clipPath id="clip0_3087_86">
<rect width="203" height="21.4073" fill="white" transform="translate(0 17)"/>
</clipPath>
</defs>
</svg>
