<svg width="203" height="56" viewBox="0 0 203 56" fill="none" xmlns="http://www.w3.org/2000/svg">
<g clip-path="url(#clip0_3316_265)">
<mask id="mask0_3316_265" style="mask-type:luminance" maskUnits="userSpaceOnUse" x="2" y="12" width="200" height="33">
<path d="M202 12H2V44.0939H202V12Z" fill="white"/>
</mask>
<g mask="url(#mask0_3316_265)">
<path d="M31.9179 20.1035C34.5697 20.1035 36.6063 20.7281 38.0277 21.9771C39.449 23.2054 40.1597 25.0685 40.1597 27.5666V37.1532H35.5138V35.061C34.5803 36.6223 32.8408 37.403 30.2951 37.403C28.9797 37.403 27.8342 37.1844 26.8583 36.7472C25.9037 36.3101 25.1718 35.7064 24.6626 34.9361C24.1535 34.1659 23.8989 33.2915 23.8989 32.3131C23.8989 30.7518 24.4929 29.5235 25.6809 28.6284C26.8901 27.7332 28.7464 27.2856 31.2497 27.2856H35.1956C35.1956 26.2239 34.8667 25.412 34.2091 24.8499C33.5515 24.267 32.565 23.9756 31.2497 23.9756C30.3375 23.9756 29.4359 24.1213 28.5448 24.4128C27.6751 24.6834 26.9325 25.0581 26.3174 25.5369L24.5353 22.1332C25.4688 21.4879 26.5825 20.9883 27.8766 20.6344C29.1919 20.2805 30.539 20.1035 31.9179 20.1035ZM31.5361 34.1242C32.3846 34.1242 33.1378 33.9369 33.7954 33.5621C34.4531 33.1666 34.9197 32.5941 35.1956 31.8447V30.1272H31.7906C29.7541 30.1272 28.7358 30.783 28.7358 32.0945C28.7358 32.719 28.9797 33.2187 29.4677 33.5934C29.9768 33.9473 30.6663 34.1242 31.5361 34.1242Z" fill="#B80C09"/>
<path d="M50.4122 37.403C48.9915 37.403 47.6021 37.2365 46.2443 36.9034C44.8866 36.5495 43.8044 36.1123 42.9985 35.5919L44.6529 32.0945C45.4169 32.5733 46.3394 32.9688 47.4216 33.2811C48.5034 33.5726 49.5637 33.7183 50.6032 33.7183C52.7034 33.7183 53.7535 33.2083 53.7535 32.1882C53.7535 31.7094 53.467 31.3659 52.8944 31.1577C52.3214 30.9495 51.4412 30.7726 50.2533 30.6268C48.8533 30.4187 47.6972 30.1793 46.7852 29.9086C45.8729 29.638 45.0772 29.1592 44.3985 28.4722C43.741 27.7852 43.4122 26.8068 43.4122 25.5369C43.4122 24.4752 43.7195 23.5384 44.3347 22.7265C44.9711 21.8938 45.8835 21.2485 47.0713 20.7905C48.2807 20.3325 49.7015 20.1035 51.3351 20.1035C52.5445 20.1035 53.743 20.2388 54.9308 20.5094C56.1402 20.7592 57.1371 21.1132 57.9222 21.5711L56.2674 25.0373C54.7614 24.2046 53.1171 23.7883 51.3351 23.7883C50.2745 23.7883 49.4788 23.934 48.9488 24.2254C48.4185 24.5169 48.1535 24.8916 48.1535 25.3496C48.1535 25.87 48.44 26.2343 49.0126 26.4425C49.5848 26.6507 50.4972 26.8484 51.7488 27.0358C53.1488 27.2648 54.2944 27.5146 55.1856 27.7852C56.0764 28.0351 56.851 28.5034 57.5085 29.1904C58.1661 29.8774 58.4948 30.835 58.4948 32.0633C58.4948 33.1041 58.1766 34.0306 57.5402 34.8424C56.9038 35.6543 55.9704 36.2893 54.7402 36.7472C53.5308 37.1844 52.0882 37.403 50.4122 37.403Z" fill="#B80C09"/>
<path d="M71.963 20.1048C74.0843 20.1048 75.792 20.7293 77.0863 21.9784C78.4014 23.2274 79.0589 25.0802 79.0589 27.5367V37.1545H74.0949V28.2861C74.0949 26.9538 73.7978 25.965 73.2041 25.3196C72.61 24.6535 71.7509 24.3204 70.6264 24.3204C69.3747 24.3204 68.3775 24.7055 67.635 25.4758C66.8926 26.2252 66.5215 27.3493 66.5215 28.8482V37.1545H61.5571V13.9844H66.5215V22.1033C67.179 21.4579 67.9747 20.9687 68.9078 20.6356C69.8413 20.2818 70.8597 20.1048 71.963 20.1048Z" fill="#B80C09"/>
<path d="M105.929 20.1035C108.072 20.1035 109.769 20.7281 111.021 21.9771C112.294 23.2054 112.93 25.0581 112.93 27.5354V37.1532H107.966V28.2848C107.966 26.9525 107.68 25.9637 107.107 25.3183C106.555 24.6522 105.76 24.3191 104.72 24.3191C103.554 24.3191 102.631 24.6938 101.952 25.4432C101.273 26.1719 100.934 27.2648 100.934 28.722V37.1532H95.9692V28.2848C95.9692 25.641 94.8874 24.3191 92.7234 24.3191C91.5778 24.3191 90.6658 24.6938 89.9868 25.4432C89.3081 26.1719 88.9684 27.2648 88.9684 28.722V37.1532H84.0044V20.3533H88.7457V22.2893C89.3821 21.5816 90.1566 21.0403 91.0686 20.6656C92.0021 20.2909 93.0204 20.1035 94.1238 20.1035C95.3328 20.1035 96.4255 20.3429 97.4013 20.8217C98.377 21.2797 99.1621 21.9563 99.7559 22.8515C100.456 21.9771 101.337 21.3005 102.397 20.8217C103.479 20.3429 104.656 20.1035 105.929 20.1035Z" fill="#0B4F6C"/>
<path d="M124.286 20.1035C126.938 20.1035 128.974 20.7281 130.396 21.9771C131.817 23.2054 132.528 25.0685 132.528 27.5666V37.1532H127.882V35.061C126.949 36.6223 125.209 37.403 122.663 37.403C121.348 37.403 120.202 37.1844 119.226 36.7472C118.272 36.3101 117.54 35.7064 117.031 34.9361C116.522 34.1659 116.267 33.2915 116.267 32.3131C116.267 30.7518 116.861 29.5235 118.049 28.6284C119.258 27.7332 121.114 27.2856 123.618 27.2856H127.563C127.563 26.2239 127.235 25.412 126.577 24.8499C125.92 24.267 124.933 23.9756 123.618 23.9756C122.705 23.9756 121.804 24.1213 120.913 24.4128C120.043 24.6834 119.301 25.0581 118.685 25.5369L116.903 22.1332C117.837 21.4879 118.95 20.9883 120.245 20.6344C121.56 20.2805 122.907 20.1035 124.286 20.1035ZM123.904 34.1242C124.753 34.1242 125.506 33.9369 126.163 33.5621C126.821 33.1666 127.288 32.5941 127.563 31.8447V30.1272H124.159C122.122 30.1272 121.104 30.783 121.104 32.0945C121.104 32.719 121.348 33.2187 121.836 33.5934C122.345 33.9473 123.034 34.1242 123.904 34.1242Z" fill="#0B4F6C"/>
<path d="M154.866 20.3533V34.3428C154.866 37.4238 154.05 39.7138 152.416 41.2126C150.783 42.7115 148.396 43.461 145.256 43.461C143.602 43.461 142.032 43.2632 140.547 42.8677C139.062 42.4721 137.831 41.8996 136.856 41.1502L138.829 37.6528C139.55 38.2357 140.462 38.6937 141.565 39.0268C142.668 39.3807 143.771 39.5576 144.875 39.5576C146.593 39.5576 147.855 39.1725 148.661 38.4023C149.489 37.6528 149.902 36.5079 149.902 34.9673V34.2491C148.608 35.6439 146.805 36.3413 144.493 36.3413C142.923 36.3413 141.48 36.0082 140.165 35.3421C138.871 34.6551 137.842 33.6974 137.078 32.4692C136.315 31.241 135.933 29.8254 135.933 28.2224C135.933 26.6194 136.315 25.2038 137.078 23.9756C137.842 22.7474 138.871 21.8001 140.165 21.134C141.48 20.447 142.923 20.1035 144.493 20.1035C146.975 20.1035 148.863 20.905 150.157 22.5079V20.3533H154.866ZM145.479 32.3443C146.794 32.3443 147.866 31.9696 148.693 31.2201C149.542 30.4499 149.966 29.4506 149.966 28.2224C149.966 26.9942 149.542 26.0053 148.693 25.2559C147.866 24.4856 146.794 24.1005 145.479 24.1005C144.164 24.1005 143.082 24.4856 142.233 25.2559C141.385 26.0053 140.96 26.9942 140.96 28.2224C140.96 29.4506 141.385 30.4499 142.233 31.2201C143.082 31.9696 144.164 32.3443 145.479 32.3443Z" fill="#0B4F6C"/>
<path d="M169.894 20.1035C172.015 20.1035 173.723 20.7281 175.017 21.9771C176.332 23.2262 176.99 25.0789 176.99 27.5354V37.1532H172.026V28.2848C172.026 26.9525 171.728 25.9637 171.135 25.3183C170.541 24.6522 169.682 24.3191 168.557 24.3191C167.305 24.3191 166.309 24.7042 165.566 25.4745C164.823 26.2239 164.452 27.3481 164.452 28.8469V37.1532H159.488V20.3533H164.229V22.3206C164.887 21.6128 165.704 21.0715 166.68 20.6968C167.655 20.3013 168.727 20.1035 169.894 20.1035Z" fill="#0B4F6C"/>
<path d="M181.489 20.3535H186.453V37.1534H181.489V20.3535ZM183.971 18.0115C183.059 18.0115 182.316 17.7513 181.743 17.2309C181.171 16.7104 180.884 16.0651 180.884 15.2948C180.884 14.5246 181.171 13.8792 181.743 13.3588C182.316 12.8383 183.059 12.5781 183.971 12.5781C184.883 12.5781 185.626 12.8279 186.199 13.3276C186.771 13.8272 187.058 14.4517 187.058 15.2012C187.058 16.0131 186.771 16.6896 186.199 17.2309C185.626 17.7513 184.883 18.0115 183.971 18.0115Z" fill="#0B4F6C"/>
<path d="M202.102 36.3426C201.614 36.6965 201.009 36.9671 200.288 37.1545C199.588 37.321 198.846 37.4043 198.061 37.4043C196.024 37.4043 194.444 36.8943 193.319 35.8742C192.216 34.8541 191.665 33.3553 191.665 31.3776V24.4765H189.023V20.7294H191.665V16.6387H196.629V20.7294H200.893V24.4765H196.629V31.3151C196.629 32.0229 196.809 32.5746 197.17 32.9701C197.551 33.3449 198.082 33.5322 198.761 33.5322C199.546 33.5322 200.214 33.324 200.766 32.9077L202.102 36.3426Z" fill="#0B4F6C"/>
<path d="M187.785 15.4696C187.785 17.3858 186.201 18.9392 184.249 18.9392C182.297 18.9392 180.713 17.3858 180.713 15.4696C180.713 13.5534 182.297 12 184.249 12C186.201 12 187.785 13.5534 187.785 15.4696Z" fill="#B80C09"/>
<path d="M21.5124 37.3365C16.4927 37.3365 11.9866 37.3365 8.55446 37.3365C6.2664 37.3365 4.58537 36.8075 3.51138 35.7496C2.43739 34.6917 1.90039 33.0359 1.90039 30.7821V19.7431C1.90039 17.3283 2.44906 15.5805 3.5464 14.4996C4.66709 13.3957 6.45317 12.8438 8.90467 12.8438H21.5124V17.6733H10.3055C8.90467 17.6733 8.20424 18.3632 8.20424 19.7431V30.7821C8.20424 31.311 8.35603 31.7365 8.65955 32.0585C8.9864 32.3574 9.39497 32.5069 9.88526 32.5069C10.3756 32.5069 11.4963 32.5069 11.4963 32.5069H13.5742H15.3486H17.9519H21.5124V37.3365Z" fill="#B80C09"/>
</g>
</g>
<defs>
<clipPath id="clip0_3316_265">
<rect width="200" height="32.0939" fill="white" transform="translate(2 12)"/>
</clipPath>
</defs>
</svg>
