<svg width="203" height="56" viewBox="0 0 203 56" fill="none" xmlns="http://www.w3.org/2000/svg">
<g clip-path="url(#clip0_2445_1415)">
<path fill-rule="evenodd" clip-rule="evenodd" d="M31.0386 0C27.7709 0 25.4623 1.58327 23.6523 3.76473C22.1252 5.59745 20.6855 8.18618 19.089 11.0447L18.7445 11.6684C15.1246 18.1465 5.64056 34.6538 1.33943 42.112C-0.871554 45.9582 -0.215972 50.3745 2.39864 53.2102C5.15466 56.196 9.66403 57.0105 13.9266 54.5415C17.2636 52.6069 20.5775 50.7105 23.5572 49.0051C26.4624 47.3404 29.0513 45.8589 31.0411 44.6982C33.0105 45.8436 35.5659 47.3073 38.4299 48.9465H38.4325C41.4405 50.6698 44.7929 52.5865 48.166 54.5415C52.4285 57.0105 56.9379 56.196 59.6939 53.2102C62.3085 50.3745 62.9667 45.9582 60.7506 42.112C56.452 34.6538 46.9653 18.1465 43.3481 11.6684L43.0216 11.0778C41.4173 8.20146 39.9673 5.60509 38.4325 3.76218C36.6149 1.58327 34.3088 0 31.0386 0Z" fill="#FF3A1F"/>
<path fill-rule="evenodd" clip-rule="evenodd" d="M31.0386 0C27.7709 0 25.4623 1.58327 23.6523 3.76473C22.1252 5.59745 20.6855 8.18618 19.089 11.0447L18.7445 11.6684C15.1246 18.1465 5.64056 34.6538 1.33943 42.112C-0.871554 45.9582 -0.215972 50.3745 2.39864 53.2102C5.14951 56.1935 9.65632 57.0105 13.9163 54.5491L51.5416 33.068C52.2974 32.6353 53.1947 32.1109 54.5392 31.3116C54.1099 30.5633 53.7937 30.0084 53.5109 29.5044C53.2846 29.0996 53.0738 28.728 52.8399 28.3207L52.0763 26.9971C49.0119 21.7165 45.9935 16.4099 43.0216 11.0778C41.4173 8.20146 39.9673 5.60509 38.4325 3.76218C36.6149 1.58327 34.3088 0 31.0386 0Z" fill="#293346"/>
</g>
<path d="M175.064 26V21.094L175.449 21.49H173.062V20.082H178.771V21.49H176.384L176.769 21.094V26H175.064Z" fill="black"/>
<path d="M165.989 26V20.082H167.694V23.602L170.576 20.082H172.149V26H170.444V22.48L167.573 26H165.989Z" fill="black"/>
<path d="M157.02 26V20.082H158.813L161.046 24.13H160.331L162.718 20.082H164.324L164.346 26H162.795V21.842L163.059 22.018L161.024 25.428H160.298L158.252 21.897L158.571 21.82V26H157.02Z" fill="black"/>
<path d="M149.21 26V20.082H150.915V23.602L153.797 20.082H155.37V26H153.665V22.48L150.794 26H149.21Z" fill="black"/>
<path d="M141.136 25.989L141.224 24.581C141.268 24.5884 141.312 24.5957 141.356 24.603C141.4 24.603 141.44 24.603 141.477 24.603C141.682 24.603 141.843 24.5444 141.961 24.427C142.078 24.3097 142.166 24.152 142.225 23.954C142.283 23.7487 142.324 23.5177 142.346 23.261C142.375 23.0044 142.397 22.7367 142.412 22.458L142.5 20.082H147.56V26H145.844V21.072L146.229 21.49H143.633L143.996 21.05L143.919 22.535C143.897 23.063 143.853 23.547 143.787 23.987C143.728 24.427 143.629 24.8084 143.49 25.131C143.35 25.4464 143.163 25.692 142.929 25.868C142.694 26.0367 142.393 26.121 142.027 26.121C141.895 26.121 141.755 26.11 141.609 26.088C141.462 26.066 141.304 26.033 141.136 25.989Z" fill="black"/>
<path d="M130.959 25.9993V20.0813H132.664V23.6013L135.546 20.0813H137.119V25.9993H135.414V22.4793L132.543 25.9993H130.959ZM133.929 19.4433C133.284 19.4433 132.8 19.3039 132.477 19.0253C132.154 18.7393 131.989 18.3103 131.982 17.7383H133.104C133.111 17.9876 133.181 18.1856 133.313 18.3323C133.445 18.4789 133.647 18.5523 133.918 18.5523C134.182 18.5523 134.384 18.4789 134.523 18.3323C134.67 18.1856 134.743 17.9876 134.743 17.7383H135.887C135.887 18.3103 135.722 18.7393 135.392 19.0253C135.062 19.3039 134.574 19.4433 133.929 19.4433Z" fill="black"/>
<path d="M127.6 26V20.082H129.305V26H127.6ZM124.619 21.974C125.396 21.9814 125.979 22.1574 126.368 22.502C126.764 22.8394 126.962 23.3197 126.962 23.943C126.962 24.5957 126.738 25.1054 126.291 25.472C125.844 25.8314 125.209 26.011 124.388 26.011L121.506 26V20.082H123.211V21.974H124.619ZM124.234 24.79C124.564 24.7974 124.817 24.7277 124.993 24.581C125.169 24.4344 125.257 24.2144 125.257 23.921C125.257 23.6277 125.169 23.4187 124.993 23.294C124.817 23.162 124.564 23.0924 124.234 23.085L123.211 23.074V24.79H124.234Z" fill="black"/>
<path d="M113.868 26V20.082H115.573V22.392H118.147V20.082H119.863V26H118.147V23.789H115.573V26H113.868Z" fill="black"/>
<path d="M109.246 26V21.094L109.631 21.49H107.244V20.082H112.953V21.49H110.566L110.951 21.094V26H109.246Z" fill="black"/>
<path d="M100.172 26V20.082H101.877V23.602L104.759 20.082H106.332V26H104.627V22.48L101.756 26H100.172Z" fill="black"/>
<path d="M96.5287 25.23V21.49H94.5927L94.5597 22.249C94.545 22.5644 94.5267 22.865 94.5047 23.151C94.4827 23.437 94.4387 23.6974 94.3727 23.932C94.314 24.1594 94.226 24.3537 94.1087 24.515C93.9913 24.669 93.8337 24.7754 93.6357 24.834L91.9417 24.592C92.1543 24.592 92.3267 24.5297 92.4587 24.405C92.5907 24.273 92.6933 24.0934 92.7667 23.866C92.84 23.6314 92.895 23.3674 92.9317 23.074C92.9683 22.7734 92.994 22.458 93.0087 22.128L93.0857 20.082H98.2447V25.23H96.5287ZM91.7437 27.276V24.592H99.0917V27.276H97.4967V26H93.3387V27.276H91.7437Z" fill="black"/>
<path d="M88.337 26.0881C87.6623 26.0881 87.0683 25.9561 86.555 25.6921C86.049 25.4281 85.6566 25.0688 85.378 24.6141C85.0993 24.1521 84.96 23.6278 84.96 23.0411C84.96 22.4471 85.0956 21.9228 85.367 21.4681C85.6456 21.0061 86.0233 20.6468 86.5 20.3901C86.9766 20.1261 87.5156 19.9941 88.117 19.9941C88.6963 19.9941 89.217 20.1188 89.679 20.3681C90.1483 20.6101 90.5186 20.9621 90.79 21.4241C91.0613 21.8788 91.197 22.4251 91.197 23.0631C91.197 23.1291 91.1933 23.2061 91.186 23.2941C91.1786 23.3748 91.1713 23.4518 91.164 23.5251H86.357V22.5241H90.262L89.602 22.8211C89.602 22.5131 89.5396 22.2455 89.415 22.0181C89.2903 21.7908 89.118 21.6148 88.898 21.4901C88.678 21.3581 88.4213 21.2921 88.128 21.2921C87.8346 21.2921 87.5743 21.3581 87.347 21.4901C87.127 21.6148 86.9546 21.7945 86.83 22.0291C86.7053 22.2565 86.643 22.5278 86.643 22.8431V23.1071C86.643 23.4298 86.7126 23.7158 86.852 23.9651C86.9986 24.2071 87.2003 24.3941 87.457 24.5261C87.721 24.6508 88.029 24.7131 88.381 24.7131C88.6963 24.7131 88.9713 24.6655 89.206 24.5701C89.448 24.4748 89.668 24.3318 89.866 24.1411L90.779 25.1311C90.5076 25.4391 90.1666 25.6775 89.756 25.8461C89.3453 26.0075 88.8723 26.0881 88.337 26.0881Z" fill="black"/>
<path d="M81.2934 26.0881C80.7947 26.0881 80.3584 25.9781 79.9844 25.7581C79.6104 25.5381 79.3171 25.2045 79.1044 24.7571C78.8991 24.3025 78.7964 23.7305 78.7964 23.0411C78.7964 22.3445 78.8954 21.7725 79.0934 21.3251C79.2914 20.8778 79.5774 20.5441 79.9514 20.3241C80.3254 20.1041 80.7727 19.9941 81.2934 19.9941C81.8507 19.9941 82.3494 20.1225 82.7894 20.3791C83.2367 20.6285 83.5887 20.9805 83.8454 21.4351C84.1094 21.8898 84.2414 22.4251 84.2414 23.0411C84.2414 23.6645 84.1094 24.2035 83.8454 24.6581C83.5887 25.1128 83.2367 25.4648 82.7894 25.7141C82.3494 25.9635 81.8507 26.0881 81.2934 26.0881ZM77.7954 28.1341V20.0821H79.4344V21.2921L79.4014 23.0521L79.5114 24.8011V28.1341H77.7954ZM80.9964 24.6801C81.2824 24.6801 81.5354 24.6141 81.7554 24.4821C81.9827 24.3501 82.1624 24.1631 82.2944 23.9211C82.4337 23.6718 82.5034 23.3785 82.5034 23.0411C82.5034 22.6965 82.4337 22.4031 82.2944 22.1611C82.1624 21.9191 81.9827 21.7321 81.7554 21.6001C81.5354 21.4681 81.2824 21.4021 80.9964 21.4021C80.7104 21.4021 80.4537 21.4681 80.2264 21.6001C79.9991 21.7321 79.8194 21.9191 79.6874 22.1611C79.5554 22.4031 79.4894 22.6965 79.4894 23.0411C79.4894 23.3785 79.5554 23.6718 79.6874 23.9211C79.8194 24.1631 79.9991 24.3501 80.2264 24.4821C80.4537 24.6141 80.7104 24.6801 80.9964 24.6801Z" fill="black"/>
<path d="M74.9401 25.9988L72.5421 22.2918L73.9831 21.4228L76.9641 25.9988H74.9401ZM69.9351 25.9988V18.2988H71.7061V25.9988H69.9351ZM71.1891 22.8968V21.4118H73.8731V22.8968H71.1891ZM74.1481 22.3468L72.5091 22.1488L75.0061 18.2988H76.8871L74.1481 22.3468Z" fill="black"/>
<path d="M184.263 37.0008V32.8008H184.831V37.0008H184.263ZM181.935 34.2808C182.463 34.2861 182.866 34.4034 183.143 34.6328C183.421 34.8621 183.559 35.1928 183.559 35.6248C183.559 36.0728 183.41 36.4168 183.111 36.6568C182.813 36.8968 182.386 37.0141 181.831 37.0088L180.167 37.0008V32.8008H180.735V34.2648L181.935 34.2808ZM181.791 36.5768C182.186 36.5821 182.482 36.5048 182.679 36.3448C182.882 36.1794 182.983 35.9394 182.983 35.6248C182.983 35.3101 182.885 35.0808 182.687 34.9368C182.49 34.7874 182.191 34.7101 181.791 34.7048L180.735 34.6888V36.5608L181.791 36.5768Z" fill="black"/>
<path d="M177.186 37.0008V33.1448L177.33 33.2968H175.594V32.8008H179.346V33.2968H177.61L177.754 33.1448V37.0008H177.186Z" fill="black"/>
<path d="M174.33 36.9998V36.0718L174.306 35.9198V34.3678C174.306 34.0104 174.205 33.7358 174.002 33.5438C173.805 33.3518 173.509 33.2558 173.114 33.2558C172.842 33.2558 172.584 33.3011 172.338 33.3918C172.093 33.4824 171.885 33.6024 171.714 33.7518L171.458 33.3278C171.672 33.1464 171.928 33.0078 172.226 32.9118C172.525 32.8104 172.84 32.7598 173.17 32.7598C173.714 32.7598 174.133 32.8958 174.426 33.1678C174.725 33.4344 174.874 33.8424 174.874 34.3918V36.9998H174.33ZM172.882 37.0398C172.568 37.0398 172.293 36.9891 172.058 36.8878C171.829 36.7811 171.653 36.6371 171.53 36.4558C171.408 36.2691 171.346 36.0558 171.346 35.8158C171.346 35.5971 171.397 35.3998 171.498 35.2238C171.605 35.0424 171.776 34.8984 172.01 34.7918C172.25 34.6798 172.57 34.6238 172.97 34.6238H174.418V35.0478H172.986C172.581 35.0478 172.298 35.1198 172.138 35.2638C171.984 35.4078 171.906 35.5864 171.906 35.7998C171.906 36.0398 172 36.2318 172.186 36.3758C172.373 36.5198 172.634 36.5918 172.97 36.5918C173.29 36.5918 173.565 36.5198 173.794 36.3758C174.029 36.2264 174.2 36.0131 174.306 35.7358L174.434 36.1278C174.328 36.4051 174.141 36.6264 173.874 36.7918C173.613 36.9571 173.282 37.0398 172.882 37.0398Z" fill="black"/>
<path d="M165.899 36.9928L165.939 36.5048C165.977 36.5101 166.011 36.5181 166.043 36.5288C166.081 36.5341 166.113 36.5368 166.139 36.5368C166.31 36.5368 166.446 36.4728 166.547 36.3448C166.654 36.2168 166.734 36.0461 166.787 35.8328C166.841 35.6194 166.878 35.3794 166.899 35.1128C166.921 34.8408 166.939 34.5688 166.955 34.2968L167.027 32.8008H170.107V37.0008H169.539V33.1288L169.683 33.2968H167.395L167.531 33.1208L167.467 34.3368C167.451 34.6994 167.422 35.0461 167.379 35.3768C167.342 35.7074 167.281 35.9981 167.195 36.2488C167.115 36.4994 167.003 36.6968 166.859 36.8408C166.715 36.9794 166.531 37.0488 166.307 37.0488C166.243 37.0488 166.177 37.0434 166.107 37.0328C166.043 37.0221 165.974 37.0088 165.899 36.9928Z" fill="black"/>
<path d="M161.277 37.0008V32.8008H165.053V37.0008H164.485V33.1448L164.629 33.2968H161.701L161.845 33.1448V37.0008H161.277Z" fill="black"/>
<path d="M157.96 37.0398C157.598 37.0398 157.27 36.9571 156.976 36.7918C156.683 36.6211 156.448 36.3784 156.272 36.0638C156.102 35.7438 156.016 35.3544 156.016 34.8958C156.016 34.4371 156.102 34.0504 156.272 33.7358C156.443 33.4158 156.675 33.1731 156.968 33.0078C157.262 32.8424 157.592 32.7598 157.96 32.7598C158.36 32.7598 158.718 32.8504 159.032 33.0318C159.352 33.2078 159.603 33.4584 159.784 33.7838C159.966 34.1038 160.056 34.4744 160.056 34.8958C160.056 35.3224 159.966 35.6958 159.784 36.0158C159.603 36.3358 159.352 36.5864 159.032 36.7678C158.718 36.9491 158.36 37.0398 157.96 37.0398ZM155.792 38.5518V32.7998H156.336V34.0638L156.28 34.9038L156.36 35.7518V38.5518H155.792ZM157.92 36.5358C158.219 36.5358 158.486 36.4691 158.72 36.3358C158.955 36.1971 159.142 36.0051 159.28 35.7598C159.419 35.5091 159.488 35.2211 159.488 34.8958C159.488 34.5704 159.419 34.2851 159.28 34.0398C159.142 33.7944 158.955 33.6024 158.72 33.4638C158.486 33.3251 158.219 33.2558 157.92 33.2558C157.622 33.2558 157.352 33.3251 157.112 33.4638C156.878 33.6024 156.691 33.7944 156.552 34.0398C156.419 34.2851 156.352 34.5704 156.352 34.8958C156.352 35.2211 156.419 35.5091 156.552 35.7598C156.691 36.0051 156.878 36.1971 157.112 36.3358C157.352 36.4691 157.622 36.5358 157.92 36.5358Z" fill="black"/>
<path d="M153.736 36.9998V36.0718L153.712 35.9198V34.3678C153.712 34.0104 153.611 33.7358 153.408 33.5438C153.211 33.3518 152.915 33.2558 152.52 33.2558C152.248 33.2558 151.99 33.3011 151.744 33.3918C151.499 33.4824 151.291 33.6024 151.12 33.7518L150.864 33.3278C151.078 33.1464 151.334 33.0078 151.632 32.9118C151.931 32.8104 152.246 32.7598 152.576 32.7598C153.12 32.7598 153.539 32.8958 153.832 33.1678C154.131 33.4344 154.28 33.8424 154.28 34.3918V36.9998H153.736ZM152.288 37.0398C151.974 37.0398 151.699 36.9891 151.464 36.8878C151.235 36.7811 151.059 36.6371 150.936 36.4558C150.814 36.2691 150.752 36.0558 150.752 35.8158C150.752 35.5971 150.803 35.3998 150.904 35.2238C151.011 35.0424 151.182 34.8984 151.416 34.7918C151.656 34.6798 151.976 34.6238 152.376 34.6238H153.824V35.0478H152.392C151.987 35.0478 151.704 35.1198 151.544 35.2638C151.39 35.4078 151.312 35.5864 151.312 35.7998C151.312 36.0398 151.406 36.2318 151.592 36.3758C151.779 36.5198 152.04 36.5918 152.376 36.5918C152.696 36.5918 152.971 36.5198 153.2 36.3758C153.435 36.2264 153.606 36.0131 153.712 35.7358L153.84 36.1278C153.734 36.4051 153.547 36.6264 153.28 36.7918C153.019 36.9571 152.688 37.0398 152.288 37.0398Z" fill="black"/>
<path d="M147.983 37.0477C147.679 37.0477 147.377 37.005 147.079 36.9197C146.78 36.8344 146.516 36.7037 146.287 36.5277L146.471 36.1037C146.673 36.253 146.908 36.3677 147.175 36.4477C147.441 36.5224 147.705 36.5597 147.967 36.5597C148.228 36.5544 148.455 36.517 148.647 36.4477C148.839 36.3784 148.988 36.2824 149.095 36.1597C149.201 36.037 149.255 35.8984 149.255 35.7437C149.255 35.5197 149.153 35.3464 148.951 35.2237C148.748 35.0957 148.471 35.0317 148.119 35.0317H147.399V34.6157H148.079C148.287 34.6157 148.471 34.589 148.631 34.5357C148.791 34.4824 148.913 34.405 148.999 34.3037C149.089 34.2024 149.135 34.0824 149.135 33.9437C149.135 33.7944 149.081 33.6664 148.975 33.5597C148.873 33.453 148.732 33.373 148.551 33.3197C148.369 33.2664 148.164 33.2397 147.935 33.2397C147.727 33.245 147.511 33.277 147.287 33.3357C147.063 33.389 146.841 33.4717 146.623 33.5837L146.463 33.1437C146.708 33.0157 146.951 32.9197 147.191 32.8557C147.436 32.7864 147.681 32.7517 147.927 32.7517C148.263 32.741 148.564 32.781 148.831 32.8717C149.103 32.9624 149.319 33.093 149.479 33.2637C149.639 33.429 149.719 33.629 149.719 33.8637C149.719 34.0717 149.655 34.253 149.527 34.4077C149.399 34.5624 149.228 34.6824 149.015 34.7677C148.801 34.853 148.559 34.8957 148.287 34.8957L148.311 34.7437C148.791 34.7437 149.164 34.837 149.431 35.0237C149.703 35.2104 149.839 35.4637 149.839 35.7837C149.839 36.0344 149.756 36.2557 149.591 36.4477C149.425 36.6344 149.201 36.781 148.919 36.8877C148.641 36.9944 148.329 37.0477 147.983 37.0477Z" fill="black"/>
<path d="M141.403 37.0398C140.998 37.0398 140.632 36.9491 140.307 36.7678C139.987 36.5811 139.734 36.3278 139.547 36.0078C139.36 35.6824 139.267 35.3118 139.267 34.8958C139.267 34.4744 139.36 34.1038 139.547 33.7838C139.734 33.4638 139.987 33.2131 140.307 33.0318C140.627 32.8504 140.992 32.7598 141.403 32.7598C141.819 32.7598 142.187 32.8504 142.507 33.0318C142.832 33.2131 143.086 33.4638 143.267 33.7838C143.454 34.1038 143.547 34.4744 143.547 34.8958C143.547 35.3118 143.454 35.6824 143.267 36.0078C143.086 36.3278 142.832 36.5811 142.507 36.7678C142.182 36.9491 141.814 37.0398 141.403 37.0398ZM141.403 36.5358C141.707 36.5358 141.976 36.4691 142.211 36.3358C142.446 36.1971 142.63 36.0051 142.763 35.7598C142.902 35.5091 142.971 35.2211 142.971 34.8958C142.971 34.5651 142.902 34.2771 142.763 34.0318C142.63 33.7864 142.446 33.5971 142.211 33.4638C141.976 33.3251 141.71 33.2558 141.411 33.2558C141.112 33.2558 140.846 33.3251 140.611 33.4638C140.376 33.5971 140.19 33.7864 140.051 34.0318C139.912 34.2771 139.843 34.5651 139.843 34.8958C139.843 35.2211 139.912 35.5091 140.051 35.7598C140.19 36.0051 140.376 36.1971 140.611 36.3358C140.846 36.4691 141.11 36.5358 141.403 36.5358Z" fill="black"/>
<path d="M137.344 36.7288V33.2968H135.32L135.272 34.2328C135.261 34.5154 135.243 34.7928 135.216 35.0648C135.195 35.3368 135.155 35.5874 135.096 35.8168C135.043 36.0408 134.965 36.2248 134.864 36.3688C134.763 36.5074 134.632 36.5874 134.472 36.6088L133.904 36.5048C134.069 36.5101 134.205 36.4514 134.312 36.3288C134.419 36.2008 134.501 36.0274 134.56 35.8088C134.619 35.5901 134.661 35.3421 134.688 35.0648C134.715 34.7821 134.736 34.4941 134.752 34.2008L134.808 32.8008H137.912V36.7288H137.344ZM133.728 38.0168V36.5048H138.568V38.0168H138.032V37.0008H134.264V38.0168H133.728Z" fill="black"/>
<path d="M127.503 37.0008V32.8008H129.359C129.834 32.8008 130.207 32.8914 130.479 33.0728C130.757 33.2541 130.895 33.5208 130.895 33.8728C130.895 34.2141 130.765 34.4781 130.503 34.6648C130.242 34.8461 129.898 34.9368 129.471 34.9368L129.583 34.7688C130.085 34.7688 130.453 34.8621 130.687 35.0488C130.922 35.2354 131.039 35.5048 131.039 35.8568C131.039 36.2194 130.906 36.5021 130.639 36.7048C130.378 36.9021 129.97 37.0008 129.415 37.0008H127.503ZM128.055 36.5528H129.391C129.749 36.5528 130.018 36.4968 130.199 36.3848C130.386 36.2674 130.479 36.0808 130.479 35.8248C130.479 35.5688 130.397 35.3821 130.231 35.2648C130.066 35.1474 129.805 35.0888 129.447 35.0888H128.055V36.5528ZM128.055 34.6648H129.319C129.645 34.6648 129.893 34.6034 130.063 34.4808C130.239 34.3581 130.327 34.1794 130.327 33.9448C130.327 33.7101 130.239 33.5341 130.063 33.4168C129.893 33.2994 129.645 33.2408 129.319 33.2408H128.055V34.6648Z" fill="black"/>
<path d="M124.145 37.0398C123.74 37.0398 123.375 36.9491 123.049 36.7678C122.729 36.5811 122.476 36.3278 122.289 36.0078C122.103 35.6824 122.009 35.3118 122.009 34.8958C122.009 34.4744 122.103 34.1038 122.289 33.7838C122.476 33.4638 122.729 33.2131 123.049 33.0318C123.369 32.8504 123.735 32.7598 124.145 32.7598C124.561 32.7598 124.929 32.8504 125.249 33.0318C125.575 33.2131 125.828 33.4638 126.009 33.7838C126.196 34.1038 126.289 34.4744 126.289 34.8958C126.289 35.3118 126.196 35.6824 126.009 36.0078C125.828 36.3278 125.575 36.5811 125.249 36.7678C124.924 36.9491 124.556 37.0398 124.145 37.0398ZM124.145 36.5358C124.449 36.5358 124.719 36.4691 124.953 36.3358C125.188 36.1971 125.372 36.0051 125.505 35.7598C125.644 35.5091 125.713 35.2211 125.713 34.8958C125.713 34.5651 125.644 34.2771 125.505 34.0318C125.372 33.7864 125.188 33.5971 124.953 33.4638C124.719 33.3251 124.452 33.2558 124.153 33.2558C123.855 33.2558 123.588 33.3251 123.353 33.4638C123.119 33.5971 122.932 33.7864 122.793 34.0318C122.655 34.2771 122.585 34.5651 122.585 34.8958C122.585 35.2211 122.655 35.5091 122.793 35.7598C122.932 36.0051 123.119 36.1971 123.353 36.3358C123.588 36.4691 123.852 36.5358 124.145 36.5358Z" fill="black"/>
<path d="M116.097 37.0008V32.8008H116.673L118.577 36.0248H118.337L120.273 32.8008H120.801V37.0008H120.281V33.4488L120.385 33.4968L118.577 36.4888H118.321L116.497 33.4648L116.617 33.4408V37.0008H116.097Z" fill="black"/>
<path d="M110.589 37.0003V32.8003H111.157V36.1363L113.965 32.8003H114.469V37.0003H113.901V33.6563L111.101 37.0003H110.589ZM112.493 32.1923C112.141 32.1923 111.856 32.1043 111.637 31.9283C111.424 31.747 111.312 31.4883 111.301 31.1523H111.709C111.715 31.3657 111.789 31.5337 111.933 31.6563C112.077 31.779 112.264 31.8403 112.493 31.8403C112.723 31.8403 112.909 31.779 113.053 31.6563C113.203 31.5337 113.28 31.3657 113.285 31.1523H113.693C113.688 31.4883 113.576 31.747 113.357 31.9283C113.139 32.1043 112.851 32.1923 112.493 32.1923Z" fill="black"/>
<path d="M108.533 36.9998V36.0718L108.509 35.9198V34.3678C108.509 34.0104 108.408 33.7358 108.205 33.5438C108.008 33.3518 107.712 33.2558 107.317 33.2558C107.045 33.2558 106.787 33.3011 106.541 33.3918C106.296 33.4824 106.088 33.6024 105.917 33.7518L105.661 33.3278C105.875 33.1464 106.131 33.0078 106.429 32.9118C106.728 32.8104 107.043 32.7598 107.373 32.7598C107.917 32.7598 108.336 32.8958 108.629 33.1678C108.928 33.4344 109.077 33.8424 109.077 34.3918V36.9998H108.533ZM107.085 37.0398C106.771 37.0398 106.496 36.9891 106.261 36.8878C106.032 36.7811 105.856 36.6371 105.733 36.4558C105.611 36.2691 105.549 36.0558 105.549 35.8158C105.549 35.5971 105.6 35.3998 105.701 35.2238C105.808 35.0424 105.979 34.8984 106.213 34.7918C106.453 34.6798 106.773 34.6238 107.173 34.6238H108.621V35.0478H107.189C106.784 35.0478 106.501 35.1198 106.341 35.2638C106.187 35.4078 106.109 35.5864 106.109 35.7998C106.109 36.0398 106.203 36.2318 106.389 36.3758C106.576 36.5198 106.837 36.5918 107.173 36.5918C107.493 36.5918 107.768 36.5198 107.997 36.3758C108.232 36.2264 108.403 36.0131 108.509 35.7358L108.637 36.1278C108.531 36.4051 108.344 36.6264 108.077 36.7918C107.816 36.9571 107.485 37.0398 107.085 37.0398Z" fill="black"/>
<path d="M102.779 37.0477C102.475 37.0477 102.174 37.005 101.875 36.9197C101.577 36.8344 101.313 36.7037 101.083 36.5277L101.267 36.1037C101.47 36.253 101.705 36.3677 101.971 36.4477C102.238 36.5224 102.502 36.5597 102.763 36.5597C103.025 36.5544 103.251 36.517 103.443 36.4477C103.635 36.3784 103.785 36.2824 103.891 36.1597C103.998 36.037 104.051 35.8984 104.051 35.7437C104.051 35.5197 103.95 35.3464 103.747 35.2237C103.545 35.0957 103.267 35.0317 102.915 35.0317H102.195V34.6157H102.875C103.083 34.6157 103.267 34.589 103.427 34.5357C103.587 34.4824 103.71 34.405 103.795 34.3037C103.886 34.2024 103.931 34.0824 103.931 33.9437C103.931 33.7944 103.878 33.6664 103.771 33.5597C103.67 33.453 103.529 33.373 103.347 33.3197C103.166 33.2664 102.961 33.2397 102.731 33.2397C102.523 33.245 102.307 33.277 102.083 33.3357C101.859 33.389 101.638 33.4717 101.419 33.5837L101.259 33.1437C101.505 33.0157 101.747 32.9197 101.987 32.8557C102.233 32.7864 102.478 32.7517 102.723 32.7517C103.059 32.741 103.361 32.781 103.627 32.8717C103.899 32.9624 104.115 33.093 104.275 33.2637C104.435 33.429 104.515 33.629 104.515 33.8637C104.515 34.0717 104.451 34.253 104.323 34.4077C104.195 34.5624 104.025 34.6824 103.811 34.7677C103.598 34.853 103.355 34.8957 103.083 34.8957L103.107 34.7437C103.587 34.7437 103.961 34.837 104.227 35.0237C104.499 35.2104 104.635 35.4637 104.635 35.7837C104.635 36.0344 104.553 36.2557 104.387 36.4477C104.222 36.6344 103.998 36.781 103.715 36.8877C103.438 36.9944 103.126 37.0477 102.779 37.0477Z" fill="black"/>
<path d="M96.8101 37.0398C96.3941 37.0398 96.0208 36.9491 95.6901 36.7678C95.3648 36.5811 95.1088 36.3278 94.9221 36.0078C94.7354 35.6824 94.6421 35.3118 94.6421 34.8958C94.6421 34.4744 94.7354 34.1038 94.9221 33.7838C95.1088 33.4638 95.3648 33.2131 95.6901 33.0318C96.0208 32.8504 96.3941 32.7598 96.8101 32.7598C97.1674 32.7598 97.4901 32.8291 97.7781 32.9678C98.0661 33.1064 98.2928 33.3144 98.4581 33.5918L98.0341 33.8798C97.8901 33.6664 97.7114 33.5091 97.4981 33.4078C97.2848 33.3064 97.0528 33.2558 96.8021 33.2558C96.5034 33.2558 96.2341 33.3251 95.9941 33.4638C95.7541 33.5971 95.5648 33.7864 95.4261 34.0318C95.2874 34.2771 95.2181 34.5651 95.2181 34.8958C95.2181 35.2264 95.2874 35.5144 95.4261 35.7598C95.5648 36.0051 95.7541 36.1971 95.9941 36.3358C96.2341 36.4691 96.5034 36.5358 96.8021 36.5358C97.0528 36.5358 97.2848 36.4851 97.4981 36.3838C97.7114 36.2824 97.8901 36.1278 98.0341 35.9198L98.4581 36.2078C98.2928 36.4798 98.0661 36.6878 97.7781 36.8318C97.4901 36.9704 97.1674 37.0398 96.8101 37.0398Z" fill="black"/>
<path d="M89.5425 37.0008V32.8008H90.1105V36.1368L92.9185 32.8008H93.4225V37.0008H92.8545V33.6568L90.0545 37.0008H89.5425Z" fill="black"/>
<path d="M84.6753 37.0008V32.8008H86.5313C87.006 32.8008 87.3793 32.8914 87.6513 33.0728C87.9286 33.2541 88.0673 33.5208 88.0673 33.8728C88.0673 34.2141 87.9366 34.4781 87.6753 34.6648C87.414 34.8461 87.07 34.9368 86.6433 34.9368L86.7553 34.7688C87.2566 34.7688 87.6246 34.8621 87.8593 35.0488C88.094 35.2354 88.2113 35.5048 88.2113 35.8568C88.2113 36.2194 88.078 36.5021 87.8113 36.7048C87.55 36.9021 87.142 37.0008 86.5873 37.0008H84.6753ZM85.2273 36.5528H86.5633C86.9206 36.5528 87.19 36.4968 87.3713 36.3848C87.558 36.2674 87.6513 36.0808 87.6513 35.8248C87.6513 35.5688 87.5686 35.3821 87.4033 35.2648C87.238 35.1474 86.9766 35.0888 86.6193 35.0888H85.2273V36.5528ZM85.2273 34.6648H86.4913C86.8166 34.6648 87.0646 34.6034 87.2353 34.4808C87.4113 34.3581 87.4993 34.1794 87.4993 33.9448C87.4993 33.7101 87.4113 33.5341 87.2353 33.4168C87.0646 33.2994 86.8166 33.2408 86.4913 33.2408H85.2273V34.6648Z" fill="black"/>
<path d="M81.3589 37.0398C80.9963 37.0398 80.6683 36.9571 80.3749 36.7918C80.0816 36.6211 79.8469 36.3784 79.6709 36.0638C79.5003 35.7438 79.4149 35.3544 79.4149 34.8958C79.4149 34.4371 79.5003 34.0504 79.6709 33.7358C79.8416 33.4158 80.0736 33.1731 80.3669 33.0078C80.6603 32.8424 80.9909 32.7598 81.3589 32.7598C81.7589 32.7598 82.1163 32.8504 82.4309 33.0318C82.7509 33.2078 83.0016 33.4584 83.1829 33.7838C83.3643 34.1038 83.4549 34.4744 83.4549 34.8958C83.4549 35.3224 83.3643 35.6958 83.1829 36.0158C83.0016 36.3358 82.7509 36.5864 82.4309 36.7678C82.1163 36.9491 81.7589 37.0398 81.3589 37.0398ZM79.1909 38.5518V32.7998H79.7349V34.0638L79.6789 34.9038L79.7589 35.7518V38.5518H79.1909ZM81.3189 36.5358C81.6176 36.5358 81.8843 36.4691 82.1189 36.3358C82.3536 36.1971 82.5403 36.0051 82.6789 35.7598C82.8176 35.5091 82.8869 35.2211 82.8869 34.8958C82.8869 34.5704 82.8176 34.2851 82.6789 34.0398C82.5403 33.7944 82.3536 33.6024 82.1189 33.4638C81.8843 33.3251 81.6176 33.2558 81.3189 33.2558C81.0203 33.2558 80.7509 33.3251 80.5109 33.4638C80.2763 33.6024 80.0896 33.7944 79.9509 34.0398C79.8176 34.2851 79.7509 34.5704 79.7509 34.8958C79.7509 35.2211 79.8176 35.5091 79.9509 35.7598C80.0896 36.0051 80.2763 36.1971 80.5109 36.3358C80.7509 36.4691 81.0203 36.5358 81.3189 36.5358Z" fill="black"/>
<path d="M76.0454 37.0398C75.6081 37.0398 75.2241 36.9491 74.8934 36.7678C74.5627 36.5811 74.3041 36.3278 74.1174 36.0078C73.9307 35.6824 73.8374 35.3118 73.8374 34.8958C73.8374 34.4798 73.9254 34.1118 74.1014 33.7918C74.2827 33.4718 74.5281 33.2211 74.8374 33.0398C75.1521 32.8531 75.5041 32.7598 75.8934 32.7598C76.2881 32.7598 76.6374 32.8504 76.9414 33.0318C77.2507 33.2078 77.4934 33.4584 77.6694 33.7838C77.8454 34.1038 77.9334 34.4744 77.9334 34.8958C77.9334 34.9224 77.9307 34.9518 77.9254 34.9838C77.9254 35.0104 77.9254 35.0398 77.9254 35.0718H74.2694V34.6478H77.6214L77.3974 34.8158C77.3974 34.5118 77.3307 34.2424 77.1974 34.0078C77.0694 33.7678 76.8934 33.5811 76.6694 33.4478C76.4454 33.3144 76.1867 33.2478 75.8934 33.2478C75.6054 33.2478 75.3467 33.3144 75.1174 33.4478C74.8881 33.5811 74.7094 33.7678 74.5814 34.0078C74.4534 34.2478 74.3894 34.5224 74.3894 34.8318V34.9198C74.3894 35.2398 74.4587 35.5224 74.5974 35.7678C74.7414 36.0078 74.9387 36.1971 75.1894 36.3358C75.4454 36.4691 75.7361 36.5358 76.0614 36.5358C76.3174 36.5358 76.5547 36.4904 76.7734 36.3998C76.9974 36.3091 77.1894 36.1704 77.3494 35.9838L77.6694 36.3518C77.4827 36.5758 77.2481 36.7464 76.9654 36.8638C76.6881 36.9811 76.3814 37.0398 76.0454 37.0398Z" fill="black"/>
<path d="M71.5679 37.0398C71.1519 37.0398 70.7786 36.9491 70.4479 36.7678C70.1226 36.5811 69.8666 36.3278 69.6799 36.0078C69.4932 35.6824 69.3999 35.3118 69.3999 34.8958C69.3999 34.4744 69.4932 34.1038 69.6799 33.7838C69.8666 33.4638 70.1226 33.2131 70.4479 33.0318C70.7786 32.8504 71.1519 32.7598 71.5679 32.7598C71.9252 32.7598 72.2479 32.8291 72.5359 32.9678C72.8239 33.1064 73.0506 33.3144 73.2159 33.5918L72.7919 33.8798C72.6479 33.6664 72.4692 33.5091 72.2559 33.4078C72.0426 33.3064 71.8106 33.2558 71.5599 33.2558C71.2612 33.2558 70.9919 33.3251 70.7519 33.4638C70.5119 33.5971 70.3226 33.7864 70.1839 34.0318C70.0452 34.2771 69.9759 34.5651 69.9759 34.8958C69.9759 35.2264 70.0452 35.5144 70.1839 35.7598C70.3226 36.0051 70.5119 36.1971 70.7519 36.3358C70.9919 36.4691 71.2612 36.5358 71.5599 36.5358C71.8106 36.5358 72.0426 36.4851 72.2559 36.3838C72.4692 36.2824 72.6479 36.1278 72.7919 35.9198L73.2159 36.2078C73.0506 36.4798 72.8239 36.6878 72.5359 36.8318C72.2479 36.9704 71.9252 37.0398 71.5679 37.0398Z" fill="black"/>
<defs>
<clipPath id="clip0_2445_1415">
<rect width="62.3636" height="56" fill="white"/>
</clipPath>
</defs>
</svg>
