<svg width="203" height="56" viewBox="0 0 203 56" fill="none" xmlns="http://www.w3.org/2000/svg">
<path d="M78.9322 47.2259V45.8087L83.6755 45.3516H87.2786L92.1588 45.8087V47.2259H78.9322ZM81.8512 47.2259C81.988 44.8944 82.0336 39.5458 82.0336 36.3457V32.5514C82.0336 29.5799 81.988 28.0713 81.8512 25.877L78.5217 25.5112V24.4141L88.4645 21.534L89.0574 21.9455L89.4223 27.0656V36.3457C89.4223 39.5458 89.4679 44.8944 89.5591 47.2259H81.8512ZM94.8041 47.2259V45.8087L99.4562 45.3516H103.014L108.031 45.8087V47.2259H94.8041ZM97.6319 47.2259C97.7231 44.8944 97.7687 39.6829 97.7687 36.3457V29.717C97.7687 26.197 96.7653 24.9169 94.6217 24.9169C92.8429 24.9169 90.1064 26.4255 87.5979 29.4427L87.4611 27.2941H88.282C91.7483 22.8141 94.4849 21.4883 97.8599 21.4883C102.193 21.4883 105.157 24.3227 105.157 30.3113V36.3457C105.157 39.6829 105.249 44.8944 105.34 47.2259H97.6319Z" fill="#FF7912"/>
<path d="M62.7686 47.2258V45.8086L67.5575 45.3515H71.115L76.0864 45.8086V47.2258H62.7686ZM65.6875 47.2258C65.7787 44.8943 65.8243 39.5457 65.8243 36.3456V32.6884C65.8243 29.6712 65.7787 27.8883 65.6875 25.7397L62.3125 25.374V24.2768L72.8025 21.5339L73.3954 21.9454L73.213 29.3055V36.3456C73.213 39.5457 73.2586 44.8943 73.3954 47.2258H65.6875ZM69.3362 17.2824C67.1926 17.2824 65.4139 15.7281 65.4139 13.4881C65.4139 11.3852 67.1926 9.78516 69.3362 9.78516C71.5255 9.78516 73.2586 11.3852 73.2586 13.4881C73.2586 15.7281 71.5255 17.2824 69.3362 17.2824Z" fill="#FF7912"/>
<path d="M34 47.226V45.6717L41.343 44.9402H43.5323L50.9209 45.6717V47.226H34ZM38.0592 47.226C38.196 42.0144 38.196 36.6201 38.196 31.18V29.1685C38.196 23.7741 38.196 18.4255 38.0592 13.0768H46.0864C45.9495 18.334 45.9495 23.7284 45.9495 29.3514V30.7685C45.9495 36.4829 45.9495 41.8773 46.0864 47.226H38.0592ZM42.0728 30.6314V28.9857H53.5206V30.6314H42.0728ZM52.8821 35.5686L52.198 30.4485V29.0314L52.8821 24.1399H55.1625V35.5686H52.8821ZM34 14.6311V13.0768H42.0728V15.3168H41.343L34 14.6311ZM57.7622 22.1741L55.1625 13.0768L59.0849 14.8597H42.0728V13.0768H60.4532L60.3619 22.1741H57.7622Z" fill="#FF7912"/>
<mask id="mask0_3058_271" style="mask-type:alpha" maskUnits="userSpaceOnUse" x="111" y="0" width="59" height="56">
<path fill-rule="evenodd" clip-rule="evenodd" d="M152.315 55.8292C162.566 51.3141 169.723 41.065 169.723 29.1443C169.723 13.0483 156.675 0 140.579 0C124.483 0 111.435 13.0483 111.435 29.1443C111.435 34.7438 113.014 39.9745 115.751 44.4153C115.836 43.5539 116.009 42.658 116.271 41.7261C117.817 39.887 120.043 39.4907 122.026 40.2054C124.929 41.2519 126.066 43.4191 124.982 47.7412L123.986 51.9066C123.986 51.9066 125.053 53.9659 127.602 54.8848C134.118 57.2331 138.53 56.1607 141.779 48.8886C144.721 40.7625 142.206 34.6636 135.619 32.2898C132.928 31.3199 130.788 31.1749 128.028 31.0589L125.9 28.5061L135.864 5.95649L164.83 16.3961L161.658 25.1581L135.619 15.7735L130.561 27.4415C134.546 27.3792 138.906 27.6883 142.281 29.1443C153.13 33.8244 158.236 41.0573 154.069 52.7587C153.575 53.9096 152.988 54.9312 152.315 55.8292Z" fill="#16BCEA"/>
</mask>
<g mask="url(#mask0_3058_271)">
<ellipse cx="140.579" cy="29.1443" rx="29.1443" ry="29.1443" fill="#16BCEA"/>
<path fill-rule="evenodd" clip-rule="evenodd" d="M128.028 55.4547C127.301 55.1077 126.592 54.7314 125.9 54.3275V28.5059H128.028V55.4547Z" fill="url(#paint0_linear_3058_271)"/>
<path fill-rule="evenodd" clip-rule="evenodd" d="M130.742 56.5861C129.815 56.2536 128.909 55.8755 128.028 55.4544V30.6328H136.324L144.621 35.5256V56.5861H130.742Z" fill="url(#paint1_linear_3058_271)"/>
<path fill-rule="evenodd" clip-rule="evenodd" d="M136.324 15.1035V29.3566L129.517 28.5056L131.218 21.4855L134.197 15.1035H136.324Z" fill="#31C3EA"/>
<path fill-rule="evenodd" clip-rule="evenodd" d="M150.79 56.4493V38.0787L136.324 28.5058V15.3164L161.639 24.0384V49.2897C158.635 52.429 154.937 54.8979 150.79 56.4493Z" fill="url(#paint2_linear_3058_271)"/>
<path fill-rule="evenodd" clip-rule="evenodd" d="M161.427 49.5105V23.6137L164.83 16.3809V45.3137C163.826 46.8172 162.686 48.2219 161.427 49.5105Z" fill="url(#paint3_linear_3058_271)"/>
</g>
<defs>
<linearGradient id="paint0_linear_3058_271" x1="126.964" y1="28.5059" x2="126.964" y2="56.5865" gradientUnits="userSpaceOnUse">
<stop stop-color="#10B1D7"/>
<stop offset="1" stop-color="#03C0EC"/>
</linearGradient>
<linearGradient id="paint1_linear_3058_271" x1="128.028" y1="41.4821" x2="143.132" y2="41.4821" gradientUnits="userSpaceOnUse">
<stop offset="0.37" stop-color="#29C9F1"/>
<stop offset="1" stop-color="#03A6CB"/>
</linearGradient>
<linearGradient id="paint2_linear_3058_271" x1="140.153" y1="24.8894" x2="161.639" y2="55.0973" gradientUnits="userSpaceOnUse">
<stop stop-color="#02A5CB"/>
<stop offset="0.72319" stop-color="#07C1EF"/>
</linearGradient>
<linearGradient id="paint3_linear_3058_271" x1="163.129" y1="16.3809" x2="163.129" y2="50.6306" gradientUnits="userSpaceOnUse">
<stop stop-color="#6BD5F2"/>
<stop offset="0.68" stop-color="#18C1EB"/>
<stop offset="0.98" stop-color="#14C1EC"/>
</linearGradient>
</defs>
</svg>
