<svg width="203" height="56" viewBox="0 0 203 56" fill="none" xmlns="http://www.w3.org/2000/svg">
<g clip-path="url(#clip0_608_223)">
<path fill-rule="evenodd" clip-rule="evenodd" d="M24.0233 34.4217C24.3436 35.3869 24.7372 36.0467 25.2164 36.4018C25.756 36.8228 26.4283 37.0331 27.2365 37.0331C28.1538 37.0331 28.8897 36.7824 29.4406 36.2747C29.6599 36.064 29.8444 35.8015 29.9915 35.4863C30.1355 35.1776 30.3435 34.6059 30.6151 33.7722L34.1562 22.4466L36.0857 33.7835C36.2589 34.8348 36.5125 35.5755 36.8554 36.0103C37.3801 36.6918 38.1355 37.0326 39.1133 37.0326C39.7969 37.0326 40.4159 36.8223 40.9674 36.4013C41.6397 35.8571 41.9759 35.1539 41.9759 34.2823C41.9759 33.9854 41.9185 33.5107 41.794 32.8562L38.5808 15.126C38.4481 14.3499 38.0412 13.6861 37.3689 13.1306C36.6217 12.5466 35.7643 12.2526 34.7978 12.2526C33.9523 12.2526 33.2082 12.4811 32.562 12.9391C31.8261 13.4541 31.3049 14.1834 30.9995 15.1265L27.1263 26.9996L22.9052 14.5961C22.672 13.9037 22.2641 13.3488 21.6752 12.9386C21.0142 12.4703 20.2296 12.2344 19.3251 12.2344C18.2505 12.2344 17.3373 12.5466 16.5901 13.17C16.0156 13.6492 15.6415 14.3893 15.4693 15.3904L12.4971 32.9055C12.3874 33.5294 12.3315 33.9824 12.3315 34.2656C12.3315 35.1726 12.6744 35.8837 13.3585 36.4205C13.8945 36.8277 14.5023 37.0336 15.1742 37.0336C16.1668 37.0336 16.914 36.6928 17.4162 36.0113C17.7452 35.5686 17.9942 34.8206 18.168 33.7845L20.04 22.4475L24.0233 34.4217ZM45.0635 20.9126C43.4215 22.6061 42.6026 24.8201 42.6026 27.5581C42.6026 30.2099 43.422 32.4047 45.0635 34.1395C45.9203 35.0461 46.9478 35.7586 48.1449 36.2629C49.3451 36.7814 50.5832 37.0331 51.8541 37.0331C53.0148 37.0331 54.1617 36.808 55.2865 36.3653C56.5933 35.8576 57.7095 35.1185 58.6283 34.139C60.2672 32.4042 61.0891 30.1951 61.0891 27.5246C61.0891 24.8477 60.2672 22.6391 58.6283 20.9116C57.7827 20.0267 56.7629 19.3275 55.5628 18.8055C54.3626 18.28 53.165 18.0166 51.9648 18.0166C49.2354 18.0176 46.9329 18.9823 45.0635 20.9126ZM55.6565 27.5443C55.6565 26.096 55.2261 24.9467 54.3692 24.0869C53.6339 23.3354 52.754 22.9572 51.7234 22.9577C50.6472 22.9577 49.7371 23.4551 48.9899 24.4567C48.3781 25.2687 48.0726 26.2881 48.0726 27.5251C48.0726 28.7586 48.3781 29.7923 48.9899 30.6127C49.7258 31.5995 50.6477 32.0929 51.7644 32.0929C52.754 32.0929 53.6221 31.7162 54.3692 30.9682C55.2266 30.1192 55.6565 28.9768 55.6565 27.5443ZM68.138 18.706C67.6702 18.318 67.0957 18.1259 66.4126 18.1259C65.5896 18.1259 64.9106 18.4086 64.374 18.9709C63.858 19.5116 63.6038 20.27 63.6038 21.246V33.3807C63.6038 34.3892 63.7247 35.1357 63.9702 35.6075C64.1777 35.9926 64.5042 36.3048 64.95 36.5589C65.3954 36.8051 65.8683 36.9252 66.3562 36.9252C66.8466 36.9252 67.313 36.8051 67.7588 36.5589C68.2047 36.3048 68.5342 35.9931 68.7422 35.6075C68.9872 35.1224 69.1122 34.3818 69.1122 33.3807V25.7292C69.1122 24.9427 69.3608 24.2459 69.8635 23.6442C70.46 22.94 71.2492 22.5879 72.2275 22.5879C73.1714 22.5879 73.9417 22.9154 74.5448 23.5747C75.0696 24.1514 75.334 24.9467 75.334 25.9586V33.3807C75.334 34.3892 75.4544 35.1357 75.6974 35.6075C75.908 35.9926 76.2344 36.3048 76.6833 36.5589C77.1292 36.8051 77.5955 36.9252 78.0834 36.9252C78.5769 36.9252 79.0453 36.8031 79.4998 36.5485C79.9544 36.2954 80.2762 35.9852 80.4725 35.6075C80.7174 35.1357 80.8384 34.3887 80.8384 33.3807V24.7034C80.8384 23.5999 80.7364 22.7051 80.5288 22.0255C80.2721 21.152 79.7058 20.3532 78.8377 19.6244C77.5796 18.5543 75.9874 18.0176 74.0657 18.0176C72.9634 18.0176 71.9784 18.1914 71.1098 18.5287C70.4718 18.7892 69.7584 19.2723 68.9616 19.9765C68.7161 19.3777 68.4435 18.9532 68.138 18.706ZM101.727 27.2099C101.727 28.5951 100.926 29.2939 99.3223 29.2939H89.0459C89.4472 30.3472 90.0073 31.1361 90.7243 31.6473C91.4417 32.1535 92.338 32.4115 93.4147 32.4115C94.1957 32.4115 94.9843 32.2599 95.7848 31.9482C95.9924 31.8679 96.718 31.5311 97.9674 30.95C98.3451 30.7757 98.7678 30.6787 99.2332 30.6787C99.8696 30.6787 100.406 30.9648 100.848 31.5099C101.218 31.9585 101.4 32.4081 101.4 32.8577C101.4 33.8593 100.659 34.76 99.1793 35.572C97.4042 36.5446 95.3887 37.0341 93.1385 37.0341C89.7716 37.0341 87.1242 35.9064 85.1912 33.6638C83.7947 32.0452 83.0999 30.0877 83.0999 27.8122C83.0999 24.7152 84.1304 22.2471 86.1992 20.4005C87.9882 18.8153 90.1026 18.0176 92.5527 18.0176C94.6933 18.0176 96.5955 18.6523 98.26 19.9223C99.8619 21.1584 100.926 22.8351 101.455 24.9531C101.64 25.7011 101.727 26.4555 101.727 27.2099ZM88.8456 25.672C89.1966 24.6527 89.6081 23.9052 90.0729 23.4334C90.7975 22.7154 91.6697 22.3599 92.6967 22.3599C93.8974 22.3599 94.826 22.8213 95.4907 23.753C95.7956 24.1735 96.0646 24.8162 96.2947 25.672H88.8456ZM106.631 18.671C107.031 19.0261 107.432 19.6712 107.824 20.6108L111.055 28.4642L114.284 20.6649C114.676 19.6998 115.081 19.0428 115.499 18.6917C115.963 18.2997 116.542 18.1067 117.243 18.1067C117.937 18.1067 118.548 18.318 119.074 18.7425C119.722 19.2718 120.049 19.9174 120.049 20.6836C120.049 21.1628 119.859 21.8364 119.478 22.6938L111.075 41.9501C110.78 42.6301 110.53 43.0999 110.32 43.3821C109.795 44.07 109.078 44.4049 108.172 44.4049C107.487 44.4049 106.88 44.1912 106.355 43.7558C105.729 43.2403 105.419 42.6154 105.419 41.8846C105.419 41.4045 105.608 40.7407 105.989 39.8922L108.156 35.0057L102.705 22.6204C102.335 21.7754 102.15 21.1185 102.15 20.6467C102.15 19.7874 102.549 19.0945 103.343 18.5652C103.81 18.2574 104.335 18.1072 104.925 18.1072C105.608 18.1072 106.178 18.2973 106.631 18.671Z" fill="#99CC33"/>
<path fill-rule="evenodd" clip-rule="evenodd" d="M144.876 36.0103C145.411 36.6918 146.155 37.0326 147.136 37.0326C147.822 37.0326 148.444 36.8223 148.99 36.4023C149.662 35.8577 150.004 35.1549 150.004 34.2833C150.004 33.9864 149.945 33.5112 149.817 32.8572L146.604 15.1255C146.475 14.3494 146.067 13.6856 145.394 13.1301C144.648 12.5466 143.787 12.2521 142.828 12.2521C141.981 12.2521 141.228 12.4811 140.578 12.9386C139.846 13.4537 139.329 14.183 139.02 15.126L135.15 26.9992L130.929 14.5961C130.694 13.9037 130.283 13.3488 129.695 12.9386C129.038 12.4703 128.259 12.2344 127.346 12.2344C126.269 12.2344 125.36 12.5461 124.615 13.17C124.039 13.6487 123.666 14.3893 123.492 15.3899L120.519 32.905C120.411 33.5289 120.355 33.982 120.355 34.2651C120.355 35.1722 120.698 35.8833 121.384 36.42C121.922 36.8273 122.525 37.0331 123.2 37.0331C124.194 37.0331 124.938 36.6923 125.443 36.0108C125.769 35.5681 126.021 34.8201 126.191 33.784L128.067 22.4471L132.05 34.4217C132.368 35.3864 132.764 36.0463 133.246 36.4018C133.782 36.8228 134.454 37.0331 135.263 37.0331C136.177 37.0331 136.909 36.7825 137.46 36.2747C137.687 36.064 137.867 35.8015 138.018 35.4864C138.162 35.1776 138.366 34.6059 138.637 33.7722L142.182 22.4466L144.112 33.7835C144.279 34.8344 144.543 35.575 144.876 36.0103ZM187.673 36.9243C188.157 36.9243 188.63 36.8022 189.083 36.5476C189.536 36.2949 189.865 35.9847 190.059 35.606C190.301 35.1343 190.423 34.3877 190.423 33.3792V24.702C190.423 23.5984 190.321 22.7031 190.11 22.0241C189.851 21.1505 189.287 20.3522 188.418 19.6229C187.157 18.5529 185.572 18.0161 183.645 18.0161C182.544 18.0161 181.559 18.1899 180.691 18.5272C180.056 18.7877 179.342 19.2708 178.542 19.975C178.299 19.3767 178.025 18.9522 177.722 18.705C177.253 18.317 176.681 18.1249 175.993 18.1249C175.171 18.1249 174.495 18.4076 173.952 18.97C173.444 19.5106 173.188 20.269 173.188 21.245V33.3797C173.188 34.3877 173.303 35.1348 173.551 35.6065C173.756 35.9921 174.085 36.3038 174.534 36.5579C174.984 36.8041 175.447 36.9243 175.937 36.9243C176.428 36.9243 176.897 36.8041 177.339 36.5579C177.789 36.3038 178.116 35.9916 178.322 35.6065C178.572 35.1215 178.693 34.3808 178.693 33.3797V25.7282C178.693 24.9418 178.939 24.245 179.444 23.6432C180.041 22.939 180.83 22.5869 181.818 22.5869C182.755 22.5869 183.526 22.9144 184.122 23.5738C184.651 24.1504 184.918 24.9457 184.918 25.9577V33.3797C184.918 34.3877 185.033 35.1348 185.288 35.6065C185.489 35.9921 185.816 36.3038 186.265 36.5579C186.707 36.8041 187.176 36.9243 187.673 36.9243ZM164.408 34.8235C164.959 36.2304 165.88 36.9243 167.165 36.9243C167.941 36.9243 168.579 36.6593 169.092 36.1364C169.658 35.5573 169.937 34.7802 169.937 33.8007V20.8387C169.937 20.041 169.658 19.3811 169.092 18.8651C168.541 18.3702 167.904 18.1254 167.202 18.1254C166.56 18.1254 165.996 18.2997 165.492 18.6513C165.12 18.9241 164.774 19.4062 164.471 20.0991C163.852 19.4993 163.347 19.0753 162.961 18.8286C162.049 18.2884 161.002 18.0166 159.786 18.0166C157.62 18.0166 155.692 18.8183 154 20.4177C152.075 22.2531 151.119 24.5907 151.119 27.4374C151.119 30.6339 152.206 33.1547 154.389 35.0052C155.975 36.3609 157.797 37.0326 159.835 37.0326C160.991 37.0326 161.961 36.8041 162.762 36.3471C163.237 36.0635 163.781 35.5568 164.408 34.8235ZM163.105 24.1036C162.373 23.3374 161.467 22.9563 160.395 22.9563C159.277 22.9563 158.361 23.3812 157.656 24.2268C156.971 25.0757 156.623 26.1743 156.623 27.5241C156.623 28.8665 156.971 29.9617 157.656 30.8033C158.361 31.6665 159.3 32.0915 160.463 32.0915C161.483 32.0915 162.351 31.7113 163.069 30.9485C163.882 30.0863 164.284 28.9428 164.284 27.5064C164.284 26.0483 163.89 24.9127 163.105 24.1036Z" fill="#4D4D4D"/>
</g>
<defs>
<clipPath id="clip0_608_223">
<rect width="178.336" height="32.5009" fill="white" transform="translate(12.3315 12.2344)"/>
</clipPath>
</defs>
</svg>
