<svg width="203" height="56" viewBox="0 0 203 56" fill="none" xmlns="http://www.w3.org/2000/svg">
<path d="M3.68311 14.0605H7.58367C12.2814 14.0605 16.0966 17.7186 16.0966 22.1625V26.3083H12.196C7.49825 26.3083 3.68311 22.6502 3.68311 18.2064V14.0605Z" fill="#006D38"/>
<path d="M38.418 10.1309V15.2251C38.418 21.3218 33.1793 26.3076 26.7733 26.3076H20.8228V21.2134C20.8228 15.1167 26.0615 10.1309 32.4676 10.1309H38.418Z" fill="#006D38"/>
<path d="M45.9909 44.4359H31.5275C25.5771 44.4359 20.7085 39.8024 20.7085 34.1391V31.4836H27.3422C36.1967 31.4836 43.4284 24.601 43.4284 16.1739V9.96875H45.9909C51.9413 9.96875 56.8099 14.6023 56.8099 20.2655V34.1662C56.8099 39.8024 51.9413 44.4359 45.9909 44.4359Z" fill="#A6CE39"/>
<path d="M173.229 35.385L177.898 43.6495C177.955 43.7037 177.955 43.785 177.955 43.8663C177.955 44.1101 177.841 44.2185 177.585 44.2185H173.969C173.827 44.2185 173.742 44.1643 173.656 44.1101C173.599 44.0289 173.343 43.5953 172.887 42.8366L169.072 36.1166H168.674C168.133 36.1166 167.25 36.0895 166.026 36.0082V43.6766C166.026 43.8392 165.969 43.9747 165.855 44.083C165.741 44.1914 165.599 44.2456 165.456 44.2456H162.495C162.325 44.2456 162.182 44.1914 162.068 44.083C161.954 43.9747 161.898 43.8392 161.898 43.6766V24.194C161.898 23.8959 162.011 23.652 162.239 23.5165C162.467 23.3811 163.264 23.2456 164.631 23.1372C165.997 23.0288 167.336 22.9746 168.674 22.9746C171.435 22.9746 173.542 23.5165 175.023 24.6004C176.503 25.6843 177.244 27.283 177.244 29.3694V29.6133C177.215 32.4585 175.877 34.3823 173.229 35.385ZM173.144 29.6133V29.3694C173.144 28.3127 172.774 27.554 172.033 27.0662C171.293 26.5785 170.183 26.3346 168.674 26.3346C167.734 26.3346 166.852 26.3617 166.026 26.443V32.8107C167.136 32.8649 168.019 32.892 168.674 32.892C170.297 32.892 171.464 32.6482 172.147 32.1333C172.802 31.6456 173.144 30.8056 173.144 29.6133ZM196.376 36.4418C196.376 41.7798 193.643 44.4353 188.205 44.4353C182.739 44.4353 180.005 41.7798 180.005 36.4418V23.7333C180.005 23.5978 180.062 23.4624 180.176 23.354C180.29 23.2456 180.432 23.1914 180.603 23.1914H183.564C183.735 23.1914 183.877 23.2456 183.991 23.354C184.105 23.4624 184.162 23.5978 184.162 23.7333V36.4418C184.162 38.1218 184.447 39.3411 185.016 40.0727C185.586 40.8043 186.668 41.1837 188.205 41.1837C189.657 41.1837 190.682 40.8585 191.308 40.1811C191.935 39.5037 192.248 38.2572 192.248 36.4418V23.7333C192.248 23.5978 192.305 23.4624 192.419 23.354C192.533 23.2456 192.675 23.1914 192.846 23.1914H195.807C195.978 23.1914 196.12 23.2456 196.234 23.354C196.348 23.4624 196.405 23.5978 196.405 23.7333L196.376 36.4418ZM157.712 43.6495C157.712 43.8121 157.655 43.9476 157.541 44.056C157.428 44.1643 157.285 44.2185 157.114 44.2185H154.467C154.296 44.2185 154.153 44.1643 154.039 44.056C153.926 43.9476 153.869 43.8121 153.869 43.6495V40.4521C153.869 40.2895 153.926 40.1811 154.039 40.0727C154.153 39.9643 154.296 39.9101 154.467 39.9101H157.114C157.285 39.9101 157.428 39.9643 157.541 40.0727C157.655 40.1811 157.712 40.3166 157.712 40.4521V43.6495Z" fill="#A6CE39"/>
<path d="M85.1387 23.1909C85.5089 23.1909 85.6797 23.3535 85.6797 23.6786C85.6797 23.7057 85.6797 23.7599 85.6512 23.8141L80.7826 41.5626C80.2701 43.4865 78.9035 44.462 76.6543 44.462C74.4335 44.462 73.0384 43.4865 72.526 41.5626L67.6289 23.6786C67.6289 23.3535 67.7997 23.1909 68.1699 23.1909H71.3302C71.6149 23.1909 71.8142 23.3535 71.8996 23.6786L76.1988 40.6955C76.2842 40.9936 76.4265 41.1562 76.6828 41.1562C76.939 41.1562 77.0814 40.9936 77.1668 40.6955L81.4659 23.6786C81.5514 23.3535 81.7222 23.1909 82.0354 23.1909H85.1387ZM92.7405 43.6491C92.7405 43.8116 92.6836 43.9471 92.5697 44.0555C92.4558 44.1639 92.3135 44.2181 92.1427 44.2181H89.2101C89.0393 44.2181 88.8969 44.1639 88.783 44.0555C88.6692 43.9471 88.6122 43.8116 88.6122 43.6491V23.7057C88.6122 23.5702 88.6692 23.4348 88.783 23.3264C88.8969 23.218 89.0393 23.1638 89.2101 23.1638H92.1427C92.3135 23.1638 92.4558 23.218 92.5697 23.3264C92.6836 23.4348 92.7405 23.5702 92.7405 23.7057V43.6491ZM113.24 23.1909C113.61 23.1909 113.781 23.3535 113.781 23.6786C113.781 23.7057 113.781 23.7599 113.752 23.8141L108.884 41.5626C108.371 43.4865 107.005 44.462 104.755 44.462C102.535 44.462 101.14 43.4865 100.627 41.5626L95.73 23.6786C95.73 23.3535 95.9009 23.1909 96.271 23.1909H99.4313C99.716 23.1909 99.9153 23.3535 100.001 23.6786L104.3 40.6955C104.385 40.9936 104.528 41.1562 104.784 41.1562C105.04 41.1562 105.182 40.9936 105.268 40.6955L109.567 23.6786C109.652 23.3535 109.823 23.1909 110.136 23.1909H113.24ZM132.942 36.4413C132.942 41.7794 130.209 44.4349 124.771 44.4349C119.304 44.4349 116.571 41.7794 116.571 36.4413V23.7328C116.571 23.5973 116.628 23.4619 116.742 23.3535C116.856 23.2451 116.998 23.1909 117.169 23.1909H120.13C120.301 23.1909 120.443 23.2451 120.557 23.3535C120.671 23.4619 120.728 23.5973 120.728 23.7328V36.4413C120.728 38.1213 121.013 39.3407 121.582 40.0723C122.151 40.8039 123.233 41.1833 124.771 41.1833C126.223 41.1833 127.248 40.8581 127.874 40.1807C128.5 39.5033 128.814 38.2568 128.814 36.4413V23.7328C128.814 23.5973 128.871 23.4619 128.984 23.3535C129.098 23.2451 129.241 23.1909 129.412 23.1909H132.373C132.543 23.1909 132.686 23.2451 132.8 23.3535C132.913 23.4619 132.97 23.5973 132.97 23.7328L132.942 36.4413ZM148.715 26.6051C146.551 26.4154 144.587 26.3341 142.85 26.3341C140.772 26.3341 139.718 27.0115 139.718 28.3393C139.718 28.8812 139.917 29.3419 140.316 29.667C140.715 30.0193 141.17 30.3444 141.711 30.6154L145.726 32.729C147.149 33.4877 148.203 34.3006 148.857 35.1949C149.512 36.0891 149.854 37.2 149.854 38.5007C149.854 39.6658 149.569 40.6955 148.971 41.6168C148.373 42.511 147.491 43.2155 146.323 43.7033C145.156 44.191 143.733 44.4078 142.053 44.4078C140.686 44.4078 139.433 44.3265 138.295 44.1639C137.156 44.0013 136.529 43.8658 136.415 43.7304C136.273 43.5949 136.216 43.4594 136.216 43.3239V41.2916C136.216 41.1291 136.273 41.0207 136.387 40.9123C136.501 40.8039 136.643 40.7497 136.786 40.7497H136.843C137.412 40.8039 138.266 40.8852 139.462 40.9394C140.658 40.9936 141.54 41.0478 142.11 41.0478C143.305 41.0478 144.16 40.8581 144.729 40.4787C145.298 40.0994 145.555 39.422 145.555 38.5007C145.555 37.9045 145.355 37.4168 144.957 37.0375C144.558 36.6581 144.103 36.3329 143.59 36.0349L139.092 33.4877C137.867 32.8102 136.985 32.0786 136.415 31.2657C135.846 30.4528 135.561 29.4773 135.561 28.3122C135.561 24.7354 138.038 22.9199 142.992 22.9199C144.046 22.9199 145.242 23.0012 146.608 23.1367C147.975 23.2722 148.744 23.4077 148.943 23.5161C149.142 23.6244 149.228 23.787 149.228 23.9767V26.0631C149.228 26.4154 149.057 26.578 148.715 26.6051Z" fill="black"/>
</svg>
