<svg width="203" height="56" viewBox="0 0 203 56" fill="none" xmlns="http://www.w3.org/2000/svg">
<g clip-path="url(#clip0_2441_139)">
<path fill-rule="evenodd" clip-rule="evenodd" d="M203 37.0019H200.18L198.623 31.61C198.24 30.4545 197.473 29.8802 196.329 29.8802L192.585 29.8532V36.9952H189.978V19.6976C191.469 19.5489 193.587 19.4746 196.329 19.4746C198.525 19.4746 200.073 19.8327 200.982 20.5557C201.885 21.272 202.34 22.5895 202.34 24.495C202.34 25.8801 202.076 26.9275 201.565 27.6301C201.046 28.3329 200.187 28.7585 198.994 28.9072V29.0356C200.172 29.3734 200.933 30.2045 201.288 31.5424L203 37.0019ZM121.39 27.9754V28.0768C122.711 28.1916 123.642 28.6308 124.196 29.3944C124.75 30.1578 125.027 31.2525 125.027 32.6917C125.027 34.4282 124.594 35.6174 123.72 36.2525C122.853 36.8877 121.333 37.2053 119.173 37.2053C116.204 37.2053 113.916 37.1378 112.317 37.0026V19.705C113.738 19.5698 115.763 19.5023 118.377 19.5023C120.665 19.5023 122.249 19.813 123.137 20.4414C124.025 21.0698 124.465 22.2591 124.465 24.0159C124.465 25.2726 124.217 26.2186 123.727 26.8605C123.244 27.5024 122.463 27.8741 121.39 27.9754ZM104.338 28.0768V27.9754C105.404 27.8741 106.193 27.5024 106.676 26.8605C107.166 26.2186 107.414 25.2727 107.414 24.0159C107.414 22.2591 106.974 21.0698 106.086 20.4415C105.198 19.8131 103.613 19.5023 101.326 19.5023C98.7116 19.5023 96.6869 19.5699 95.2659 19.705V37.0026C96.8645 37.1378 99.1517 37.2053 102.121 37.2053C104.282 37.2053 105.802 36.8878 106.669 36.2526C107.542 35.6175 107.976 34.4282 107.976 32.6917C107.976 31.2525 107.699 30.1579 107.145 29.3944C106.59 28.6308 105.66 28.1916 104.338 28.0768ZM90.967 34.9215L91.1017 36.8539C89.504 36.989 86.9034 37.0566 83.3014 37.0566C82.1789 37.0566 81.2908 36.7796 80.6373 36.2187C79.9836 35.6579 79.6497 34.9011 79.6355 33.9485V22.7658C79.6497 21.8131 79.9836 21.0563 80.6373 20.4955C81.2837 19.9346 82.1718 19.6576 83.3014 19.6576C86.9034 19.6576 89.504 19.7252 91.1017 19.8603L90.967 21.8131H83.7418C83.2161 21.8131 82.8396 21.9347 82.6194 22.1779C82.3992 22.4212 82.2926 22.8334 82.2926 23.4212V26.8808H89.9651V28.9145H82.2926V33.3268C82.2926 33.9146 82.3992 34.3268 82.6194 34.57C82.8396 34.8133 83.2091 34.9349 83.7418 34.9349H90.967V34.9215ZM76.1334 19.7056L76.132 19.7124H73.32L70.7127 32.9491C70.663 33.1856 70.599 33.5437 70.528 34.0302C70.494 34.263 70.4649 34.4664 70.4398 34.6411V34.6415L70.4397 34.6421C70.4125 34.8321 70.3901 34.9882 70.3717 35.1113H69.7678C69.6399 34.3275 69.5121 33.5978 69.37 32.9288L66.7839 20.5435C66.7342 20.3137 66.6134 20.1177 66.4287 19.9556C66.2439 19.8002 66.0309 19.7191 65.7822 19.7191H62.9617C62.4147 19.7191 62.0808 19.9894 61.9599 20.5435L59.3526 32.9018C59.175 33.6586 59.0401 34.3951 58.9548 35.1113H58.3509C58.1876 33.9221 58.081 33.1856 58.0312 32.9018L55.4239 19.7124H52.6318L56.113 36.287C56.2338 36.7735 56.5677 37.0168 57.1147 37.0168H60.0702C60.3189 37.0168 60.5462 36.9424 60.7451 36.8005C60.9441 36.6586 61.0648 36.4762 61.1003 36.2599L63.7077 23.5503L64.1055 21.5976H64.6597C64.7307 22.0299 64.8515 22.6786 65.0291 23.5503L67.6649 36.2599C67.7928 36.7599 68.1338 37.01 68.695 37.01H71.6221C72.1478 37.01 72.4959 36.7668 72.6522 36.2803L76.132 19.7124H76.1334V19.7056ZM97.8524 27.0764H101.54C102.804 27.0764 103.678 26.8872 104.161 26.5155C104.644 26.1371 104.886 25.4074 104.886 24.3195C104.886 23.2519 104.623 22.5357 104.097 22.1776C103.571 21.8195 102.605 21.637 101.198 21.637H97.8524V27.0764ZM101.724 35.07L97.8524 35.043V29.009H101.568C102.996 29.0294 103.976 29.2591 104.509 29.7118C105.042 30.1577 105.312 31.0091 105.312 32.2659C105.312 33.3875 105.056 34.1307 104.559 34.5092C104.054 34.8808 103.109 35.07 101.724 35.07ZM118.59 27.0763H114.903V21.637H118.249C119.656 21.637 120.622 21.8194 121.147 22.1776C121.673 22.5357 121.937 23.2519 121.937 24.3195C121.937 25.4074 121.695 26.1371 121.211 26.5155C120.728 26.8871 119.855 27.0763 118.59 27.0763ZM114.903 35.043L118.774 35.0699C120.16 35.0699 121.105 34.8808 121.609 34.5092C122.106 34.1307 122.363 33.3875 122.363 32.2659C122.363 31.0091 122.092 30.1577 121.56 29.7118C121.027 29.259 120.047 29.0294 118.619 29.009H114.903V35.043ZM131.776 31.786H139.023L140.713 37.0024H143.428L137.709 20.3804C137.602 19.9277 137.282 19.7048 136.757 19.7048H134.07C133.566 19.7048 133.239 19.9277 133.097 20.3804L127.406 37.0024H130.093L131.776 31.786ZM138.342 29.6036L136.204 23.0359C136.154 22.8873 136.076 22.6508 135.976 22.3332L135.921 22.1567V22.1563C135.849 21.9265 135.794 21.7501 135.749 21.6305H135.038L134.619 23.0359L132.48 29.6036H138.342ZM160.77 36.0226V19.7048H158.163V31.8604C158.163 32.6442 158.212 33.5428 158.297 34.5429H157.9C157.771 34.2726 157.637 33.9888 157.488 33.678C157.338 33.3672 157.175 33.0428 156.997 32.6982C156.819 32.3604 156.699 32.1104 156.628 31.9617L151.122 20.4818C150.859 19.9615 150.476 19.7048 149.964 19.7048H147.541C146.873 19.7048 146.54 20.0358 146.54 20.6845V37.0024H149.175V24.4413C149.175 23.5089 149.126 22.7048 149.041 22.0358H149.41C149.495 22.3332 149.857 23.1372 150.49 24.4413L156.159 36.2253C156.393 36.7456 156.77 37.0024 157.295 37.0024H159.796C160.443 37.0024 160.77 36.6713 160.77 36.0226ZM170.368 29.0017H168.315C168.436 29.7044 168.5 30.299 168.5 30.7787V36.995H165.864V19.6975H168.5V25.0151C168.5 25.7313 168.436 26.3868 168.315 26.9679H170.368L175.718 19.6975H178.588L173.444 26.7652C173.16 27.1503 172.791 27.549 172.336 27.9678V28.0422C172.827 28.4408 173.253 28.88 173.601 29.3463L178.922 36.995H175.995L170.368 29.0017ZM182.254 37.0024H184.889V19.7048H182.254V37.0024ZM196.272 27.725H192.585V21.664C193.253 21.6438 194.482 21.637 196.272 21.637C197.572 21.637 198.468 21.8465 198.951 22.2654C199.434 22.6776 199.675 23.4748 199.675 24.6438C199.675 25.8331 199.434 26.6371 198.951 27.0628C198.468 27.4885 197.572 27.7114 196.272 27.725Z" fill="#010101"/>
<path d="M20.3 8.62305C31.4971 8.62305 40.6 17.2667 40.6 27.943C40.6 38.5996 31.5178 47.263 20.3 47.263C9.10289 47.263 0 38.6193 0 27.943C0 17.2667 9.08215 8.62305 20.3 8.62305Z" fill="#FFDE52"/>
<path d="M12.5804 31.6378C12.4977 31.5591 12.4356 31.4607 12.3736 31.3622C12.3323 31.2638 12.3115 31.1456 12.3115 31.0275C12.3115 30.9095 12.3323 30.7913 12.3736 30.6929C12.4149 30.5945 12.477 30.4961 12.5804 30.4173L24.2255 19.295C24.3083 19.2163 24.4117 19.1572 24.5152 19.0982C24.6185 19.0588 24.7427 19.0391 24.8667 19.0391C24.9908 19.0391 25.115 19.0588 25.2184 19.0982C25.3218 19.1375 25.4252 19.1965 25.5079 19.295L32.4578 25.929C32.5405 26.0078 32.6026 26.1062 32.6646 26.2046C32.706 26.303 32.7267 26.4211 32.7267 26.5393C32.7267 26.6574 32.706 26.7755 32.6646 26.8739C32.6233 26.9723 32.5612 27.0708 32.4578 27.1495L20.8127 38.2718C20.7299 38.3506 20.6265 38.4096 20.5231 38.449C20.4197 38.4883 20.2956 38.508 20.1715 38.508C20.0474 38.508 19.944 38.4883 19.8198 38.449C19.7164 38.4096 19.613 38.3506 19.5303 38.2718L12.5804 31.6378Z" fill="#FFDE52"/>
<path d="M12.5804 31.6378C12.4977 31.5591 12.4356 31.4607 12.3736 31.3622C12.3323 31.2638 12.3115 31.1456 12.3115 31.0275C12.3115 30.9095 12.3323 30.7913 12.3736 30.6929C12.4149 30.5945 12.477 30.4961 12.5804 30.4173L24.2255 19.295C24.3083 19.2163 24.4117 19.1572 24.5152 19.0982C24.6185 19.0588 24.7427 19.0391 24.8667 19.0391C24.9908 19.0391 25.115 19.0588 25.2184 19.0982C25.3218 19.1375 25.4252 19.1965 25.5079 19.295L32.4578 25.929C32.5405 26.0078 32.6026 26.1062 32.6646 26.2046C32.706 26.303 32.7267 26.4211 32.7267 26.5393C32.7267 26.6574 32.706 26.7755 32.6646 26.8739C32.6233 26.9723 32.5612 27.0708 32.4578 27.1495L20.8127 38.2718C20.7299 38.3506 20.6265 38.4096 20.5231 38.449C20.4197 38.4883 20.2956 38.508 20.1715 38.508C20.0474 38.508 19.944 38.4883 19.8198 38.449C19.7164 38.4096 19.613 38.3506 19.5303 38.2718L12.5804 31.6378Z" fill="white"/>
<path d="M12.5804 31.6378C12.4977 31.5591 12.4356 31.4607 12.3736 31.3622C12.3323 31.2638 12.3115 31.1456 12.3115 31.0275C12.3115 30.9095 12.3323 30.7913 12.3736 30.6929C12.4149 30.5945 12.477 30.4961 12.5804 30.4173L24.2255 19.295C24.3083 19.2163 24.4117 19.1572 24.5152 19.0982C24.6185 19.0588 24.7427 19.0391 24.8667 19.0391C24.9908 19.0391 25.115 19.0588 25.2184 19.0982C25.3218 19.1375 25.4252 19.1965 25.5079 19.295L32.4578 25.929C32.5405 26.0078 32.6026 26.1062 32.6646 26.2046C32.706 26.303 32.7267 26.4211 32.7267 26.5393C32.7267 26.6574 32.706 26.7755 32.6646 26.8739C32.6233 26.9723 32.5612 27.0708 32.4578 27.1495L20.8127 38.2718C20.7299 38.3506 20.6265 38.4096 20.5231 38.449C20.4197 38.4883 20.2956 38.508 20.1715 38.508C20.0474 38.508 19.944 38.4883 19.8198 38.449C19.7164 38.4096 19.613 38.3506 19.5303 38.2718L12.5804 31.6378Z" fill="#FFDE52"/>
<path d="M12.5804 31.6378C12.4977 31.5591 12.4356 31.4607 12.3736 31.3622C12.3323 31.2638 12.3115 31.1456 12.3115 31.0275C12.3115 30.9095 12.3323 30.7913 12.3736 30.6929C12.4149 30.5945 12.477 30.4961 12.5804 30.4173L24.2255 19.295C24.3083 19.2163 24.4117 19.1572 24.5152 19.0982C24.6185 19.0588 24.7427 19.0391 24.8667 19.0391C24.9908 19.0391 25.115 19.0588 25.2184 19.0982C25.3218 19.1375 25.4252 19.1965 25.5079 19.295L32.4578 25.929C32.5405 26.0078 32.6026 26.1062 32.6646 26.2046C32.706 26.303 32.7267 26.4211 32.7267 26.5393C32.7267 26.6574 32.706 26.7755 32.6646 26.8739C32.6233 26.9723 32.5612 27.0708 32.4578 27.1495L20.8127 38.2718C20.7299 38.3506 20.6265 38.4096 20.5231 38.449C20.4197 38.4883 20.2956 38.508 20.1715 38.508C20.0474 38.508 19.944 38.4883 19.8198 38.449C19.7164 38.4096 19.613 38.3506 19.5303 38.2718L12.5804 31.6378Z" fill="white"/>
<path fill-rule="evenodd" clip-rule="evenodd" d="M24.7513 19.5798C24.6733 19.6252 24.6403 19.6476 24.6185 19.6683C24.6185 19.6684 24.6186 19.6683 24.6185 19.6683L12.952 30.8111L12.9276 30.8298C12.9226 30.8335 12.9179 30.8382 12.9123 30.8458C12.9063 30.8542 12.8984 30.8675 12.8895 30.8888C12.8793 30.9133 12.8672 30.9626 12.8672 31.027C12.8672 31.0722 12.8731 31.11 12.8802 31.137C12.9281 31.2113 12.9515 31.2426 12.9733 31.2634L12.9739 31.2639L19.9232 37.8974C19.9232 37.8973 19.9232 37.8974 19.9232 37.8974C19.9409 37.9142 19.9718 37.9349 20.0131 37.9522C20.0838 37.9736 20.1243 37.9787 20.1715 37.9787C20.2392 37.9787 20.291 37.9673 20.3168 37.9574C20.3646 37.9393 20.4 37.9161 20.4196 37.8976C20.4195 37.8976 20.4197 37.8975 20.4196 37.8976L32.0862 26.7547L32.1107 26.736C32.1156 26.7323 32.1204 26.7276 32.1259 26.7199C32.1319 26.7116 32.1398 26.6983 32.1487 26.677C32.159 26.6525 32.171 26.6032 32.171 26.5387C32.171 26.4936 32.1652 26.4558 32.1581 26.4288C32.1102 26.3545 32.0867 26.3231 32.0649 26.3025L25.0931 19.6474L25.0741 19.6248C25.0701 19.6201 25.0652 19.6156 25.0572 19.6103C25.0483 19.6046 25.0343 19.5971 25.012 19.5886C24.9863 19.5789 24.9344 19.5674 24.8668 19.5674C24.8193 19.5674 24.7796 19.573 24.7513 19.5798ZM24.3088 18.6066C24.4899 18.5377 24.6863 18.5098 24.8668 18.5098C25.0473 18.5098 25.2436 18.5377 25.4248 18.6066C25.5806 18.666 25.7644 18.7645 25.9195 18.9384L32.8507 25.5546C32.8505 25.5544 32.8509 25.5547 32.8507 25.5546C32.9828 25.6804 33.0759 25.8284 33.1322 25.9178C33.1353 25.9227 33.1382 25.9275 33.1411 25.932L33.1641 25.9684L33.1806 26.0077C33.253 26.1801 33.2824 26.3669 33.2824 26.5387C33.2824 26.7105 33.253 26.8974 33.1806 27.0698C33.1183 27.2179 33.015 27.3925 32.8328 27.54L21.2056 38.6452C21.0597 38.7841 20.8883 38.879 20.7295 38.9395C20.5484 39.0085 20.352 39.0364 20.1715 39.0364C19.9742 39.0364 19.8106 39.003 19.6442 38.9502L19.6287 38.9452L19.6135 38.9395C19.4546 38.879 19.2833 38.7841 19.1374 38.6452L12.1876 32.0112C12.1875 32.0112 12.1876 32.0112 12.1876 32.0112C12.0553 31.8853 11.9624 31.7375 11.9061 31.6479C11.9029 31.643 11.9 31.6383 11.8972 31.6338L11.8742 31.5974L11.8577 31.5581C11.7853 31.3857 11.7559 31.1988 11.7559 31.027C11.7559 30.8552 11.7853 30.6684 11.8577 30.496C11.9199 30.3478 12.0233 30.1733 12.2054 30.0257L23.8319 18.9212L23.8326 18.9206C23.9649 18.7947 24.1202 18.7062 24.2144 18.6527C24.2195 18.6498 24.2244 18.6469 24.2292 18.6442L24.2674 18.6224L24.3088 18.6066Z" fill="#010101"/>
<path d="M20.6614 38.3632C20.5805 38.44 20.4794 38.4977 20.3783 38.5553C20.2771 38.5937 20.1559 38.6129 20.0345 38.6129C19.9132 38.6129 19.8121 38.5937 19.6908 38.5553C19.5897 38.5169 19.4886 38.4593 19.4077 38.3632L8.02361 27.5122C7.86185 27.3586 7.76074 27.1473 7.76074 26.9168C7.76074 26.6864 7.86185 26.4751 8.02361 26.3215L14.8379 19.8493C14.9187 19.7724 15.0199 19.7148 15.1209 19.6572C15.2221 19.6188 15.3434 19.5996 15.4647 19.5996C15.586 19.5996 15.6872 19.6188 15.8084 19.6572C15.9096 19.6956 16.0106 19.7533 16.0916 19.8493L27.4757 30.7003C27.6374 30.8539 27.7385 31.0652 27.7385 31.2956C27.7385 31.5261 27.6374 31.7374 27.4757 31.891L20.6614 38.3632Z" fill="#FFDE52"/>
<path d="M20.6614 38.3632C20.5805 38.44 20.4794 38.4977 20.3783 38.5553C20.2771 38.5937 20.1559 38.6129 20.0345 38.6129C19.9132 38.6129 19.8121 38.5937 19.6908 38.5553C19.5897 38.5169 19.4886 38.4593 19.4077 38.3632L8.02361 27.5122C7.86185 27.3586 7.76074 27.1473 7.76074 26.9168C7.76074 26.6864 7.86185 26.4751 8.02361 26.3215L14.8379 19.8493C14.9187 19.7724 15.0199 19.7148 15.1209 19.6572C15.2221 19.6188 15.3434 19.5996 15.4647 19.5996C15.586 19.5996 15.6872 19.6188 15.8084 19.6572C15.9096 19.6956 16.0106 19.7533 16.0916 19.8493L27.4757 30.7003C27.6374 30.8539 27.7385 31.0652 27.7385 31.2956C27.7385 31.5261 27.6374 31.7374 27.4757 31.891L20.6614 38.3632Z" fill="white"/>
<path fill-rule="evenodd" clip-rule="evenodd" d="M15.3563 20.1393C15.2812 20.183 15.2505 20.2041 15.2304 20.2232L8.4161 26.6954C8.35163 26.7566 8.31639 26.8357 8.31639 26.9164C8.31639 26.9971 8.35163 27.0762 8.4161 27.1375L8.4168 27.1382L19.8223 38.0096L19.8412 38.0321C19.8442 38.0356 19.8481 38.0392 19.855 38.0437C19.861 38.0476 19.8701 38.0527 19.8839 38.0585C19.9516 38.0789 19.99 38.0837 20.0345 38.0837C20.0792 38.0837 20.1164 38.0784 20.1429 38.0724C20.218 38.0286 20.2488 38.0076 20.2688 37.9885L27.0832 31.5163C27.1476 31.455 27.1828 31.3759 27.1828 31.2952C27.1828 31.2146 27.1476 31.1354 27.0832 31.0742L15.6769 20.2021L15.658 20.1796C15.655 20.1761 15.6512 20.1725 15.6442 20.1679C15.6383 20.1641 15.6291 20.159 15.6153 20.1531C15.5476 20.1327 15.5093 20.128 15.4647 20.128C15.42 20.128 15.3828 20.1332 15.3563 20.1393ZM14.915 19.1657C15.0937 19.0977 15.2871 19.0703 15.4647 19.0703C15.659 19.0703 15.8203 19.1032 15.9839 19.155L15.9993 19.1599L16.0145 19.1657C16.1679 19.224 16.3493 19.321 16.5028 19.4924L27.8681 30.3255C27.868 30.3255 27.8682 30.3256 27.8681 30.3255C28.127 30.5716 28.2942 30.9151 28.2942 31.2952C28.2942 31.6754 28.1272 32.0189 27.8681 32.265L21.0539 38.7372C20.9233 38.8611 20.7704 38.948 20.6784 39.0002C20.6734 39.0031 20.6685 39.0059 20.6637 39.0086L20.6256 39.0304L20.5843 39.046C20.4056 39.1139 20.2121 39.1413 20.0345 39.1413C19.8402 39.1413 19.679 39.1085 19.5154 39.0567L19.4999 39.0518L19.4848 39.046C19.3313 38.9877 19.1499 38.8907 18.9965 38.7193L7.63108 27.8861C7.63085 27.8859 7.63062 27.8856 7.63039 27.8854C7.37173 27.6394 7.20508 27.2963 7.20508 26.9164C7.20508 26.5362 7.37203 26.1928 7.63108 25.9467L14.4454 19.4745C14.5758 19.3505 14.7289 19.2637 14.8207 19.2115C14.8259 19.2086 14.8308 19.2057 14.8355 19.2031L14.8737 19.1813L14.915 19.1657Z" fill="#010101"/>
<path d="M22.5829 34.3204C22.9388 34.3204 23.2274 34.0458 23.2274 33.7071C23.2274 33.3684 22.9388 33.0938 22.5829 33.0938C22.227 33.0938 21.9385 33.3684 21.9385 33.7071C21.9385 34.0458 22.227 34.3204 22.5829 34.3204Z" fill="#010101"/>
<path d="M28.23 21.7348L26.4072 20L21.3946 24.7706L23.2174 26.5054L28.23 21.7348Z" fill="#010101"/>
</g>
<defs>
<clipPath id="clip0_2441_139">
<rect width="203" height="39.1397" fill="white" transform="translate(0 8.62305)"/>
</clipPath>
</defs>
</svg>
