<svg width="203" height="56" viewBox="0 0 203 56" fill="none" xmlns="http://www.w3.org/2000/svg">
<path d="M175.097 41.4567C174.553 43.0893 173.772 44.2486 172.755 44.9348C171.738 45.6446 170.389 45.9995 168.709 45.9995C168.236 45.9995 167.68 45.964 167.041 45.893C166.426 45.822 165.811 45.6919 165.195 45.5026C164.912 45.4316 164.722 45.3488 164.628 45.2542C164.557 45.1595 164.557 44.9821 164.628 44.7218L165.231 41.9181C165.302 41.6341 165.385 41.4803 165.479 41.4567C165.574 41.433 165.752 41.4449 166.012 41.4922C166.39 41.5632 166.71 41.6105 166.97 41.6341C167.23 41.6578 167.491 41.6696 167.751 41.6696C168.579 41.6696 169.23 41.5277 169.703 41.2437C170.176 40.9835 170.543 40.4393 170.803 39.6112L171.442 37.6947H170.413C169.868 37.6947 169.478 37.6 169.241 37.4107C169.005 37.2215 168.78 36.8074 168.567 36.1686L163.173 20.4107C163.078 20.1504 163.078 19.9729 163.173 19.8783C163.291 19.7837 163.445 19.7363 163.634 19.7363H167.786C168.141 19.7363 168.378 19.7837 168.496 19.8783C168.638 19.9493 168.745 20.1149 168.816 20.3752L170.839 27.5443L172.507 33.7197H172.72L174.53 27.4378L176.659 20.4462C176.73 20.1859 176.825 20.0084 176.943 19.9138C177.061 19.7955 177.298 19.7363 177.653 19.7363H181.876C182.278 19.7363 182.409 19.9256 182.267 20.3042L175.097 41.4922V41.4567Z" fill="#2F62F6"/>
<path d="M148.816 45.0055C148.816 45.2658 148.769 45.4314 148.674 45.5024C148.603 45.5734 148.402 45.6089 148.071 45.6089H144.38C144.119 45.6089 143.93 45.5734 143.812 45.5024C143.694 45.4314 143.634 45.2658 143.634 45.0055V21.8656C143.634 21.6053 143.67 21.4042 143.741 21.2622C143.835 21.0966 144.037 20.931 144.344 20.7653C145.48 20.2448 146.746 19.8781 148.142 19.6651C149.561 19.4522 150.91 19.3457 152.188 19.3457C153.868 19.3457 155.275 19.606 156.411 20.1265C157.57 20.6234 158.493 21.3095 159.179 22.185C159.889 23.0368 160.398 24.0542 160.705 25.2372C161.013 26.4202 161.167 27.686 161.167 29.0347C161.167 30.3597 161.001 31.6137 160.67 32.7967C160.339 33.9561 159.83 34.9735 159.144 35.8489C158.458 36.7244 157.582 37.4223 156.518 37.9429C155.476 38.4397 154.246 38.6882 152.826 38.6882C152.117 38.6882 151.454 38.6527 150.839 38.5817C150.247 38.5344 149.573 38.4279 148.816 38.2623V45.0055ZM155.772 28.9282C155.772 27.9581 155.678 27.1419 155.488 26.4794C155.299 25.8169 155.015 25.2845 154.636 24.8823C154.282 24.48 153.832 24.1961 153.288 24.0305C152.767 23.8649 152.176 23.7821 151.513 23.7821C151.182 23.7821 150.744 23.8176 150.2 23.8885C149.68 23.9595 149.218 24.0542 148.816 24.1725V33.8614C149.431 34.0271 149.975 34.1335 150.449 34.1808C150.945 34.2282 151.383 34.2518 151.762 34.2518C152.945 34.2518 153.903 33.8496 154.636 33.0451C155.394 32.2407 155.772 30.8684 155.772 28.9282Z" fill="#2F62F6"/>
<path d="M139.381 35.6024C139.381 36.5015 139.062 37.2586 138.423 37.8738C137.808 38.489 137.039 38.7966 136.116 38.7966C135.666 38.7966 135.241 38.7137 134.838 38.5481C134.436 38.3825 134.081 38.1577 133.774 37.8738C133.49 37.5899 133.253 37.2586 133.064 36.8801C132.898 36.4778 132.815 36.0519 132.815 35.6024C132.815 35.1528 132.898 34.7388 133.064 34.3602C133.253 33.958 133.49 33.6149 133.774 33.331C134.081 33.0471 134.436 32.8223 134.838 32.6567C135.241 32.491 135.666 32.4082 136.116 32.4082C137.039 32.4082 137.808 32.7158 138.423 33.331C139.062 33.9462 139.381 34.7033 139.381 35.6024Z" fill="#2F62F6"/>
<path d="M123.238 27.7927L121.783 31.1999L120.044 34.9619C119.831 35.4351 119.583 35.7545 119.299 35.9201C119.015 36.0857 118.636 36.1686 118.163 36.1686H116.424C115.88 36.1686 115.478 36.0857 115.217 35.9201C114.981 35.7545 114.756 35.4351 114.543 34.9619L112.84 31.2708L111.42 28.0057H111.278V37.6947C111.278 38.0022 111.219 38.1915 111.1 38.2625C110.982 38.3335 110.781 38.369 110.497 38.369H106.984C106.723 38.369 106.522 38.3335 106.38 38.2625C106.262 38.1915 106.203 38.0022 106.203 37.6947V21.7948C106.203 20.4225 106.913 19.7363 108.332 19.7363H110.533C111.03 19.7363 111.455 19.8192 111.81 19.9848C112.189 20.1504 112.52 20.5408 112.804 21.156L115.359 26.5506L117.169 30.632H117.382L119.405 26.1957L121.783 21.3334C122.067 20.7183 122.387 20.3042 122.741 20.0912C123.096 19.8546 123.617 19.7363 124.303 19.7363H126.326C127.746 19.7363 128.455 20.3988 128.455 21.7238V37.6947C128.455 38.0022 128.396 38.1915 128.278 38.2625C128.183 38.3335 127.982 38.369 127.675 38.369H124.197C123.936 38.369 123.735 38.3335 123.593 38.2625C123.475 38.1915 123.416 38.0022 123.416 37.6947V27.7927H123.238Z" fill="#2F62F6"/>
<path d="M94.1228 19.2756C96.8918 19.2756 98.9618 19.9736 100.334 21.3696C101.73 22.7419 102.428 24.7175 102.428 27.2965C102.428 28.5269 102.192 29.3668 101.718 29.8164C101.245 30.2659 100.594 30.4907 99.7658 30.4907H90.6808C90.7038 31.2478 90.8228 31.8748 91.0358 32.3717C91.2718 32.8686 91.5798 33.2708 91.9578 33.5784C92.3368 33.886 92.7748 34.0989 93.2718 34.2172C93.7918 34.3355 94.3478 34.3947 94.9398 34.3947C95.6258 34.3947 96.3238 34.3119 97.0338 34.1462C97.7428 33.9806 98.4058 33.7677 99.0208 33.5074C99.3048 33.4128 99.4938 33.3891 99.5888 33.4364C99.7068 33.4601 99.8138 33.5665 99.9078 33.7558L101.044 36.3112C101.139 36.5241 101.15 36.6897 101.08 36.808C101.032 36.9263 100.914 37.0446 100.725 37.1629C99.8488 37.7308 98.8318 38.133 97.6718 38.3696C96.5128 38.6299 95.4358 38.76 94.4428 38.76C91.3428 38.76 89.0478 37.9911 87.5578 36.4531C86.0668 34.9152 85.3218 32.4782 85.3218 29.142C85.3218 27.5804 85.5228 26.1963 85.9248 24.9896C86.3508 23.7593 86.9418 22.7182 87.6998 21.8664C88.4798 21.0146 89.4028 20.3758 90.4678 19.9499C91.5558 19.5004 92.7748 19.2756 94.1228 19.2756ZM100.405 14.6263C100.405 14.9812 100.334 15.3125 100.192 15.6201C100.05 15.9276 99.8488 16.1997 99.5888 16.4363C99.3518 16.6729 99.0798 16.8622 98.7728 17.0042C98.4648 17.1462 98.1338 17.2171 97.7788 17.2171C97.4238 17.2171 97.0808 17.1462 96.7498 17.0042C96.4418 16.8622 96.1578 16.6729 95.8978 16.4363C95.6608 16.1997 95.4718 15.9276 95.3298 15.6201C95.1878 15.3125 95.1168 14.9812 95.1168 14.6263C95.1168 13.9165 95.3768 13.3013 95.8978 12.7808C96.4418 12.2603 97.0688 12 97.7788 12C98.1338 12 98.4648 12.071 98.7728 12.2129C99.0798 12.3549 99.3518 12.5442 99.5888 12.7808C99.8488 13.0174 100.05 13.3013 100.192 13.6326C100.334 13.9402 100.405 14.2714 100.405 14.6263ZM93.1298 14.6263C93.1298 14.9812 93.0588 15.3125 92.9168 15.6201C92.7748 15.9276 92.5738 16.1997 92.3128 16.4363C92.0768 16.6729 91.7928 16.8622 91.4618 17.0042C91.1538 17.1462 90.8228 17.2171 90.4678 17.2171C90.1128 17.2171 89.7818 17.1462 89.4738 17.0042C89.1658 16.8622 88.8828 16.6729 88.6218 16.4363C88.3858 16.1997 88.1958 15.9276 88.0538 15.6201C87.9118 15.3125 87.8408 14.9812 87.8408 14.6263C87.8408 14.2714 87.9118 13.9402 88.0538 13.6326C88.1958 13.3013 88.3858 13.0174 88.6218 12.7808C88.8828 12.5442 89.1658 12.3549 89.4738 12.2129C89.7818 12.071 90.1128 12 90.4678 12C90.8228 12 91.1538 12.071 91.4618 12.2129C91.7928 12.3549 92.0768 12.5442 92.3128 12.7808C92.5738 13.0174 92.7748 13.3013 92.9168 13.6326C93.0588 13.9402 93.1298 14.2714 93.1298 14.6263ZM94.2298 23.5345C93.2598 23.5345 92.4668 23.8776 91.8518 24.5637C91.2368 25.2499 90.8818 26.1253 90.7868 27.19H97.4238C97.4238 26.6695 97.3648 26.1845 97.2468 25.7349C97.1518 25.2854 96.9858 24.9068 96.7498 24.5992C96.5128 24.268 96.1938 24.0077 95.7908 23.8184C95.3888 23.6291 94.8688 23.5345 94.2298 23.5345Z" fill="#2F62F6"/>
<path d="M81.4117 36.0628C81.4117 36.3704 81.3644 36.6306 81.2697 36.8436C81.1987 37.0565 80.9976 37.2577 80.6664 37.4469C80.1222 37.7072 79.5307 37.9201 78.8918 38.0858C78.2767 38.2514 77.6378 38.3815 76.9753 38.4762C76.3365 38.5708 75.6859 38.6418 75.0234 38.6891C74.3609 38.7364 73.7339 38.7601 73.1423 38.7601C71.5334 38.7601 70.1966 38.6063 69.1319 38.2987C68.0908 37.9911 67.2509 37.5771 66.612 37.0565C65.9732 36.5123 65.5237 35.8853 65.2634 35.1755C65.0031 34.4421 64.873 33.6613 64.873 32.8331C64.873 31.9104 65.0268 31.0704 65.3344 30.3133C65.642 29.5325 66.1033 28.8582 66.7185 28.2903C67.3337 27.7225 68.1027 27.2848 69.0254 26.9772C69.9718 26.6459 71.0839 26.4803 72.3615 26.4803H76.2655V25.9124C76.2655 25.5812 76.23 25.2618 76.1591 24.9542C76.0881 24.6466 75.9343 24.3863 75.6977 24.1734C75.4847 23.9368 75.1771 23.7475 74.7749 23.6055C74.3727 23.4636 73.8403 23.3926 73.1778 23.3926C72.8229 23.3926 72.4207 23.4163 71.9712 23.4636C71.5216 23.4872 71.0721 23.5346 70.6225 23.6055C70.173 23.6529 69.7352 23.7238 69.3093 23.8185C68.8835 23.8895 68.5049 23.9723 68.1736 24.0669C67.8661 24.1379 67.6531 24.1379 67.5348 24.0669C67.4165 23.9959 67.3337 23.8421 67.2864 23.6055L66.7185 21.1212C66.6475 20.8609 66.6357 20.6835 66.683 20.5888C66.754 20.4705 66.8841 20.3759 67.0734 20.3049C68.1382 19.9263 69.2502 19.6542 70.4096 19.4886C71.5926 19.323 72.7638 19.2402 73.9231 19.2402C76.5021 19.2402 78.395 19.7962 79.6017 20.9082C80.8083 21.9966 81.4117 23.6174 81.4117 25.7705V36.0628ZM76.23 29.9229H73.4263C73.095 29.9229 72.7401 29.9466 72.3615 29.9939C71.983 30.0412 71.6281 30.1595 71.2968 30.3488C70.9892 30.5144 70.729 30.7628 70.516 31.0941C70.3031 31.4253 70.1966 31.8749 70.1966 32.4427C70.1966 33.2709 70.4687 33.8505 71.0129 34.1818C71.5808 34.513 72.3379 34.6787 73.2843 34.6787C73.4263 34.6787 73.6156 34.6787 73.8522 34.6787C74.0888 34.655 74.3372 34.6313 74.5975 34.6077C74.8814 34.5604 75.1653 34.513 75.4492 34.4657C75.7332 34.3947 75.9934 34.3119 76.23 34.2173V29.9229Z" fill="#2F62F6"/>
<path d="M53.1336 23.5694C52.6604 23.5694 52.0098 23.6404 51.1816 23.7823C50.3535 23.9243 49.5609 24.1136 48.8038 24.3502C48.5198 24.4685 48.3187 24.504 48.2004 24.4567C48.0821 24.4093 47.9875 24.3029 47.9165 24.1372L47.0647 21.7594C46.9464 21.4754 46.8873 21.2743 46.8873 21.156C46.9109 21.0141 47.0647 20.8839 47.3486 20.7656C48.2477 20.3161 49.3006 19.9612 50.5073 19.7009C51.7377 19.4406 52.9562 19.3105 54.1629 19.3105C56.3633 19.3105 58.1142 19.7246 59.4155 20.5527C60.7168 21.3571 61.3675 22.6111 61.3675 24.3147C61.3675 25.1901 61.1072 25.9828 60.5867 26.6926C60.0662 27.4024 59.4273 27.9702 58.6702 28.3961V28.5381C59.6876 28.8693 60.4802 29.4135 61.0481 30.1707C61.6396 30.9041 61.9353 31.7678 61.9353 32.7615C61.9353 33.7552 61.7106 34.6307 61.261 35.3878C60.8115 36.1213 60.2081 36.7365 59.451 37.2333C58.6939 37.7302 57.8066 38.1088 56.7892 38.369C55.7718 38.6056 54.6952 38.7239 53.5595 38.7239C52.9917 38.7239 52.3883 38.7003 51.7495 38.653C51.1343 38.6056 50.5073 38.5347 49.8685 38.44C49.2533 38.3454 48.65 38.2152 48.0585 38.0496C47.467 37.884 46.9228 37.6947 46.4259 37.4818C46.1656 37.3635 46.0237 37.2333 46 37.0914C46 36.9494 46.0237 36.7838 46.071 36.5945L46.9937 34.0037C47.0647 33.8144 47.1594 33.6961 47.2777 33.6488C47.396 33.6014 47.6207 33.6251 47.952 33.7197C48.8038 33.98 49.7029 34.193 50.6493 34.3586C51.6194 34.5005 52.412 34.5715 53.0272 34.5715C54.3995 34.5715 55.3577 34.3349 55.9019 33.8617C56.4461 33.3885 56.7182 32.8561 56.7182 32.2646C56.7182 31.6495 56.3988 31.1762 55.76 30.845C55.1448 30.5138 54.1037 30.3363 52.6368 30.3126C52.1872 30.289 51.8441 30.1943 51.6075 30.0287C51.3946 29.8631 51.2881 29.5792 51.2881 29.1769V28.1122C51.2881 27.71 51.4064 27.4379 51.643 27.2959C51.9033 27.1303 52.2464 27.0357 52.6723 27.012C53.8553 26.941 54.7189 26.7517 55.2631 26.4441C55.8073 26.1129 56.0794 25.6752 56.0794 25.131C56.0794 24.5158 55.7954 24.1018 55.2276 23.8888C54.6834 23.6759 53.9854 23.5694 53.1336 23.5694Z" fill="#2F62F6"/>
<mask id="mask0_3412_86" style="mask-type:luminance" maskUnits="userSpaceOnUse" x="21" y="13" width="18" height="27">
<path d="M38.4774 13H21V39.1201H38.4774V13Z" fill="white"/>
</mask>
<g mask="url(#mask0_3412_86)">
<path d="M21.6666 31.3017H21.7004C24.5587 30.8046 26.7166 28.2062 26.7166 25.2688C26.7166 22.3314 24.7508 19.9363 21.949 19.2924L21.8134 19.2585L21.7456 19.2246H21.5084L21.4745 19.2472C21.2034 19.315 21 19.5635 21 19.8572V22.7494C21 22.9076 21.0565 23.0545 21.1695 23.1674L21.2146 23.2465L21.3389 23.303C22.1072 23.6645 22.672 24.4893 22.672 25.2688C22.672 26.0483 22.1072 26.8731 21.3389 27.2233L21.2146 27.2911L21.1808 27.3476C21.0678 27.4605 21 27.6074 21 27.7769V30.6691C21 31.0193 21.2824 31.3017 21.6327 31.3017H21.6666Z" fill="#2F62F6"/>
<path d="M38.1497 31.1331L38.274 31.0654L38.3078 31.0089C38.4208 30.8959 38.4886 30.7377 38.4886 30.5796V27.6874C38.4886 27.3371 38.2062 27.0547 37.7995 27.0547H37.7882C34.9299 27.5518 32.772 30.139 32.772 33.0876C32.772 36.0363 34.7378 38.4201 37.5396 39.0641L37.6752 39.098L37.743 39.1319H37.9802L38.0141 39.1093C38.2852 39.0415 38.4886 38.7929 38.4886 38.4992V35.607C38.4886 35.4488 38.4321 35.3133 38.3304 35.189L38.2852 35.1099L38.161 35.0534C37.3927 34.6919 36.8279 33.8672 36.8279 33.0876C36.8279 32.3081 37.3814 31.4834 38.161 31.1331" fill="#2F62F6"/>
<path d="M37.9581 19.7563C37.8113 19.6546 37.6192 19.6094 37.3594 19.6094H33.7554C33.3487 19.6094 32.9759 19.7337 32.6595 20.1404C32.5466 20.2872 21.4523 37.9002 21.4523 37.9002C21.2828 38.4199 21.5088 38.6685 22.1414 38.6685H25.5646C25.9939 38.6685 26.2877 38.6346 26.6944 38.2166C26.8413 38.0697 37.992 20.3663 37.992 20.3663C38.105 20.05 38.0937 19.8466 37.9468 19.745" fill="#2F62F6"/>
</g>
</svg>
