<svg width="203" height="56" viewBox="0 0 203 56" fill="none" xmlns="http://www.w3.org/2000/svg">
<g clip-path="url(#clip0_2761_101)">
<path d="M85.6389 15.0957C86.9361 15.0957 87.9799 15.17 88.7701 15.3187C89.5753 15.4673 90.1568 15.7572 90.5146 16.1883C90.8874 16.6045 91.0737 17.2363 91.0737 18.0836C91.0737 18.916 90.8874 19.533 90.5146 19.9343C90.1568 20.3357 89.5455 20.5736 88.6806 20.6478V20.737C89.6946 20.7965 90.4104 21.0641 90.8277 21.5397C91.2602 22.0154 91.4763 22.7066 91.4763 23.6134C91.4763 24.4757 91.29 25.1223 90.9172 25.5533C90.5593 25.9696 90.0002 26.2519 89.2398 26.4007C88.4943 26.5494 87.54 26.6236 86.377 26.6236C85.5868 26.6236 84.7742 26.594 83.9391 26.5344C83.1042 26.4749 82.2767 26.3561 81.4565 26.1777L81.6802 23.9479C82.4109 24.0222 83.1713 24.0817 83.9615 24.1263C84.7519 24.156 85.4824 24.1709 86.1533 24.1709C86.9138 24.1709 87.4282 24.0966 87.6965 23.9479C87.9649 23.7992 88.0991 23.4797 88.0991 22.9891C88.0991 22.662 88.0396 22.4243 87.9202 22.2756C87.8159 22.1121 87.622 22.0006 87.3387 21.9411C87.0555 21.8668 86.6603 21.8296 86.1533 21.8296L82.955 21.785V19.7782L86.131 19.7113C86.5783 19.7113 86.9213 19.6817 87.1598 19.6221C87.4134 19.5626 87.5847 19.4587 87.6742 19.31C87.7786 19.1465 87.8307 18.9235 87.8307 18.641C87.8307 18.3289 87.7712 18.0985 87.6518 17.9498C87.5326 17.8012 87.3239 17.7045 87.0256 17.6599C86.7424 17.6005 86.3322 17.5708 85.7955 17.5708C85.1245 17.5708 84.4461 17.593 83.7602 17.6376C83.0892 17.6822 82.4854 17.7343 81.9486 17.7937L81.7249 15.564C82.4406 15.3707 83.1489 15.2444 83.8497 15.1849C84.5654 15.1254 85.1618 15.0957 85.6389 15.0957Z" fill="#1F0946"/>
<path d="M100.079 15.0508C101.018 15.0508 101.801 15.1771 102.427 15.4298C103.068 15.6677 103.553 16.0839 103.881 16.6785C104.224 17.2583 104.395 18.061 104.395 19.0867V26.3557H101.756L101.287 23.9699L101.085 23.6354V19.0644C101.07 18.5441 100.936 18.165 100.683 17.9272C100.444 17.6893 99.9893 17.5704 99.3183 17.5704C98.7368 17.5704 98.0211 17.5927 97.1713 17.6373C96.3214 17.667 95.4491 17.7116 94.5545 17.7711L94.2414 15.5859C94.7781 15.4819 95.3968 15.3927 96.0977 15.3184C96.7984 15.244 97.4992 15.1846 98.2001 15.14C98.9008 15.0805 99.527 15.0508 100.079 15.0508ZM103.031 19.5772L103.009 21.4279L98.1106 21.4502C97.708 21.4502 97.4173 21.5468 97.2383 21.7401C97.0594 21.9334 96.97 22.1934 96.97 22.5205V23.0557C96.97 23.4274 97.0742 23.7172 97.2831 23.9253C97.5067 24.1186 97.8422 24.2152 98.2895 24.2152C98.6771 24.2152 99.0947 24.1333 99.542 23.9699C100.004 23.8064 100.459 23.5759 100.906 23.2786C101.354 22.9814 101.749 22.632 102.092 22.2307V23.6577C101.972 23.8807 101.779 24.1632 101.51 24.505C101.257 24.8321 100.929 25.159 100.526 25.4861C100.124 25.7983 99.6463 26.0659 99.0947 26.2888C98.5579 26.5118 97.9465 26.6233 97.2607 26.6233C96.5897 26.6233 95.9859 26.5044 95.4491 26.2665C94.9123 26.0286 94.4874 25.6794 94.1743 25.2185C93.8611 24.7577 93.7046 24.1855 93.7046 23.5016V22.3644C93.7046 21.4875 94.0027 20.8036 94.5992 20.313C95.1955 19.8225 96.0156 19.5772 97.0594 19.5772H103.031Z" fill="#1F0946"/>
<path d="M118.491 15.3414V26.3565L115.516 26.3788V20.6036C115.516 20.3064 115.524 20.0165 115.539 19.734C115.569 19.4515 115.606 19.1469 115.65 18.8198H115.561C115.472 19.0874 115.345 19.3773 115.181 19.6894C115.017 19.9867 114.86 20.2469 114.711 20.4699L110.529 26.3565H107.644V15.3414H110.596V21.2726C110.596 21.5401 110.588 21.8077 110.573 22.0753C110.559 22.3279 110.529 22.6031 110.484 22.9003H110.551C110.67 22.6178 110.797 22.3578 110.931 22.1199C111.08 21.8672 111.23 21.6293 111.379 21.4064L115.628 15.3414H118.491ZM114.577 10.4805H116.724C116.813 11.0899 116.717 11.6548 116.433 12.1751C116.165 12.6954 115.74 13.119 115.158 13.4461C114.592 13.7731 113.899 13.9366 113.078 13.9366C112.258 13.9366 111.558 13.7731 110.976 13.4461C110.395 13.119 109.962 12.6954 109.679 12.1751C109.396 11.6548 109.291 11.0899 109.366 10.4805H111.535C111.49 11.1345 111.602 11.6102 111.871 11.9075C112.154 12.19 112.557 12.3312 113.078 12.3312C113.585 12.3312 113.973 12.19 114.241 11.9075C114.51 11.6102 114.622 11.1345 114.577 10.4805Z" fill="#1F0946"/>
<path d="M135.318 15.3418C136.063 15.3418 136.443 15.7283 136.458 16.5013L136.816 26.3569H133.797L133.484 17.7722H133.171L131.314 23.9264C131.255 24.2535 131.12 24.5062 130.912 24.6845C130.703 24.8629 130.42 24.9521 130.062 24.9521H128.407C128.049 24.9521 127.766 24.8629 127.557 24.6845C127.348 24.5062 127.206 24.2535 127.132 23.9264L125.276 17.7722H124.963L124.694 26.3569H121.675L122.01 16.5013C122.025 15.7283 122.42 15.3418 123.196 15.3418H126.103C126.446 15.3418 126.722 15.431 126.931 15.6094C127.139 15.7878 127.274 16.0479 127.333 16.3898L128.787 21.2507C128.877 21.5183 128.944 21.7858 128.988 22.0534C129.033 22.321 129.07 22.5959 129.1 22.8784H129.346C129.406 22.5812 129.451 22.3061 129.48 22.0534C129.525 21.7858 129.585 21.5183 129.659 21.2507L131.091 16.3898C131.225 15.6911 131.642 15.3418 132.343 15.3418H135.318Z" fill="#1F0946"/>
<path d="M95.6362 35.4082C96.3818 35.4082 96.762 35.7946 96.7768 36.5677L97.1347 46.4233H94.1153L93.8022 37.8387H93.4891L91.6327 43.9928C91.5732 44.3199 91.439 44.5726 91.2302 44.751C91.0215 44.9293 90.7381 45.0185 90.3803 45.0185H88.7252C88.3674 45.0185 88.0842 44.9293 87.8753 44.751C87.6666 44.5726 87.525 44.3199 87.4504 43.9928L85.594 37.8387H85.2809L85.0125 46.4233H81.9932L82.3286 36.5677C82.3436 35.7946 82.7388 35.4082 83.514 35.4082H86.4216C86.7646 35.4082 87.0404 35.4974 87.2491 35.6758C87.4579 35.8542 87.5921 36.1144 87.6517 36.4562L89.1054 41.3171C89.1949 41.5847 89.262 41.8522 89.3067 42.1198C89.3514 42.3874 89.3888 42.6623 89.4185 42.9448H89.6646C89.7243 42.6476 89.769 42.3725 89.7988 42.1198C89.8435 41.8522 89.9032 41.5847 89.9777 41.3171L91.4091 36.4562C91.5433 35.7576 91.9608 35.4082 92.6616 35.4082H95.6362Z" fill="#1F0946"/>
<path d="M105.504 35.1191C106.89 35.1191 108.001 35.3124 108.836 35.6989C109.671 36.0706 110.267 36.68 110.625 37.5273C110.998 38.3746 111.184 39.5118 111.184 40.9389C111.184 42.3362 110.998 43.4585 110.625 44.3058C110.267 45.1531 109.671 45.7625 108.836 46.1342C108.001 46.5059 106.89 46.6917 105.504 46.6917C104.117 46.6917 103.006 46.5059 102.171 46.1342C101.336 45.7625 100.732 45.1531 100.359 44.3058C99.9866 43.4585 99.8003 42.3362 99.8003 40.9389C99.8003 39.5118 99.9866 38.3746 100.359 37.5273C100.732 36.68 101.336 36.0706 102.171 35.6989C103.006 35.3124 104.117 35.1191 105.504 35.1191ZM105.504 37.5273C104.937 37.5273 104.489 37.6239 104.162 37.8172C103.833 38.0105 103.602 38.3523 103.468 38.8429C103.334 39.3334 103.267 40.032 103.267 40.9389C103.267 41.8308 103.334 42.522 103.468 43.0125C103.602 43.5031 103.833 43.8449 104.162 44.0382C104.489 44.2166 104.937 44.3058 105.504 44.3058C106.07 44.3058 106.517 44.2166 106.845 44.0382C107.173 43.8449 107.397 43.5031 107.516 43.0125C107.651 42.522 107.718 41.8308 107.718 40.9389C107.718 40.032 107.651 39.3334 107.516 38.8429C107.397 38.3523 107.173 38.0105 106.845 37.8172C106.517 37.6239 106.07 37.5273 105.504 37.5273Z" fill="#1F0946"/>
<path d="M123.884 29.9453L124.421 32.465C123.929 32.7475 123.452 32.9481 122.989 33.067C122.542 33.1859 122.102 33.2677 121.67 33.3123C121.237 33.3419 120.805 33.3792 120.373 33.4238C119.955 33.4534 119.523 33.5279 119.075 33.6467C118.554 33.7954 118.129 33.9886 117.801 34.2265C117.473 34.4644 117.219 34.732 117.04 35.0292C116.876 35.3117 116.749 35.6163 116.66 35.9434C116.526 36.2259 116.436 36.5082 116.391 36.7907C116.347 37.0583 116.302 37.3185 116.257 37.5711H116.324C116.518 37.3185 116.727 37.088 116.951 36.8799C117.174 36.6569 117.435 36.4636 117.733 36.3002C118.047 36.1367 118.412 36.0103 118.829 35.9211C119.262 35.8319 119.761 35.7873 120.328 35.7873C121.491 35.7873 122.415 35.9657 123.101 36.3225C123.787 36.6792 124.279 37.244 124.577 38.0171C124.876 38.7752 125.025 39.7786 125.025 41.0273C125.025 42.261 124.861 43.3017 124.533 44.149C124.205 44.9814 123.638 45.6132 122.833 46.0443C122.043 46.4753 120.947 46.6909 119.545 46.6909C118.457 46.6909 117.554 46.5721 116.839 46.3342C116.138 46.0963 115.579 45.7693 115.161 45.353C114.759 44.9368 114.461 44.4315 114.267 43.8368C114.088 43.2421 113.969 42.5881 113.909 41.8746C113.864 41.1611 113.842 40.403 113.842 39.6002C113.842 38.5003 113.894 37.5042 113.998 36.6123C114.103 35.7055 114.297 34.9028 114.58 34.2042C114.863 33.5056 115.273 32.9109 115.81 32.4204C116.362 31.9298 117.077 31.5358 117.957 31.2386C118.479 31.0751 118.986 30.9561 119.478 30.8818C119.97 30.8075 120.455 30.748 120.932 30.7034C121.424 30.6588 121.908 30.5846 122.385 30.4805C122.877 30.3763 123.377 30.198 123.884 29.9453ZM119.5 37.9279C118.859 37.9279 118.375 38.032 118.047 38.2401C117.733 38.4481 117.517 38.7752 117.398 39.2212C117.294 39.6522 117.241 40.2469 117.241 41.005C117.241 41.8672 117.308 42.5435 117.443 43.0341C117.577 43.5097 117.801 43.8442 118.114 44.0375C118.427 44.2159 118.859 44.3051 119.411 44.3051C119.948 44.3051 120.373 44.2159 120.686 44.0375C120.999 43.8442 121.222 43.5097 121.357 43.0341C121.491 42.5585 121.558 41.882 121.558 41.005C121.558 40.1874 121.498 39.5556 121.379 39.1097C121.26 38.6637 121.051 38.3589 120.753 38.1955C120.455 38.0171 120.037 37.9279 119.5 37.9279Z" fill="#1F0946"/>
<path d="M133.719 35.1191C134.658 35.1191 135.441 35.2456 136.067 35.4982C136.709 35.7361 137.193 36.1522 137.521 36.7469C137.864 37.3266 138.035 38.1293 138.035 39.155V46.4241H135.396L134.927 44.0382L134.725 43.7038V39.1327C134.71 38.6125 134.576 38.2334 134.323 37.9955C134.084 37.7576 133.629 37.6388 132.958 37.6388C132.377 37.6388 131.661 37.6611 130.811 37.7057C129.962 37.7354 129.089 37.7799 128.195 37.8395L127.881 35.6543C128.418 35.5502 129.037 35.461 129.738 35.3867C130.439 35.3124 131.139 35.2529 131.84 35.2083C132.541 35.1488 133.167 35.1191 133.719 35.1191ZM136.671 39.6456L136.649 41.4963L131.751 41.5186C131.348 41.5186 131.057 41.6152 130.878 41.8085C130.7 42.0018 130.61 42.2618 130.61 42.5889V43.124C130.61 43.4957 130.715 43.7856 130.923 43.9936C131.147 44.1869 131.482 44.2835 131.93 44.2835C132.317 44.2835 132.735 44.2017 133.182 44.0382C133.644 43.8748 134.099 43.6443 134.546 43.347C134.994 43.0498 135.389 42.7004 135.732 42.299V43.7261C135.613 43.949 135.419 44.2315 135.15 44.5734C134.897 44.9005 134.569 45.2274 134.166 45.5545C133.764 45.8666 133.287 46.1342 132.735 46.3572C132.198 46.5802 131.587 46.6917 130.901 46.6917C130.23 46.6917 129.626 46.5728 129.089 46.3349C128.552 46.097 128.128 45.7478 127.814 45.2869C127.501 44.826 127.345 44.2538 127.345 43.57V42.4328C127.345 41.5558 127.643 40.872 128.239 40.3814C128.836 39.8909 129.656 39.6456 130.7 39.6456H136.671Z" fill="#1F0946"/>
<path d="M152.131 35.4097V46.4248L149.156 46.4471V40.672C149.156 40.3748 149.164 40.0849 149.179 39.8024C149.209 39.5199 149.246 39.2153 149.291 38.8882H149.201C149.112 39.1558 148.985 39.4456 148.821 39.7578C148.657 40.055 148.5 40.3152 148.351 40.5382L144.169 46.4248H141.284V35.4097H144.236V41.3409C144.236 41.6085 144.229 41.8761 144.214 42.1436C144.199 42.3963 144.169 42.6714 144.124 42.9687H144.191C144.311 42.6862 144.437 42.4261 144.571 42.1882C144.721 41.9356 144.87 41.6977 145.019 41.4747L149.268 35.4097H152.131ZM148.217 30.5488H150.364C150.454 31.1582 150.357 31.7232 150.073 32.2435C149.805 32.7637 149.38 33.1873 148.799 33.5144C148.232 33.8415 147.539 34.005 146.719 34.005C145.899 34.005 145.198 33.8415 144.616 33.5144C144.035 33.1873 143.602 32.7637 143.319 32.2435C143.036 31.7232 142.931 31.1582 143.006 30.5488H145.175C145.131 31.2028 145.242 31.6786 145.511 31.9759C145.794 32.2584 146.197 32.3995 146.719 32.3995C147.226 32.3995 147.613 32.2584 147.882 31.9759C148.15 31.6786 148.262 31.2028 148.217 30.5488Z" fill="#1F0946"/>
<path d="M165.648 35.4082V37.6826H161.175C160.802 37.6826 160.526 37.7718 160.347 37.9501C160.168 38.1136 160.056 38.3812 160.012 38.7529C159.937 39.3623 159.855 39.9792 159.766 40.6036C159.691 41.213 159.609 41.8003 159.519 42.3651C159.43 42.9152 159.326 43.3908 159.206 43.7922C159.042 44.5799 158.737 45.1895 158.289 45.6206C157.857 46.0368 157.328 46.3118 156.701 46.4456C156.09 46.5943 155.419 46.624 154.689 46.5348L154.353 44.1043C154.696 44.0301 154.994 43.9556 155.248 43.8813C155.501 43.8071 155.702 43.6956 155.852 43.5469C156.015 43.3982 156.142 43.1827 156.232 42.9002C156.321 42.6476 156.403 42.3502 156.478 42.0083C156.552 41.6516 156.619 41.2651 156.679 40.8489C156.739 40.4326 156.791 39.9942 156.836 39.5333C156.88 39.0724 156.925 38.6117 156.97 38.1508C157.059 37.244 157.335 36.5603 157.797 36.0994C158.274 35.6386 158.983 35.4082 159.922 35.4082H165.648ZM165.938 35.4082V46.4233H162.651V35.4082H165.938Z" fill="#1F0946"/>
<path fill-rule="evenodd" clip-rule="evenodd" d="M45.387 17.5227V10.0802C45.387 9.41391 45.6907 9.0808 46.2981 9.0808H48.6109V9.06903L62.6576 9.09773C63.3246 9.09773 63.6196 9.40017 63.6196 10.0652V21.8232C63.6196 22.4884 63.286 22.8208 62.619 22.8208H59.8495V32.4124H63.0039C63.6709 32.4124 64.0045 32.7704 64.0045 33.4866V46.8582C64.0045 47.5234 63.6709 47.8558 63.0039 47.8558C63.0039 47.8558 50.4659 47.8489 48.1176 47.8477L46.1799 47.7618C45.5117 47.7618 45.2017 47.3131 45.2017 46.7296L45.0296 36.1327H38.1294C38.1241 36.3642 38.115 36.6807 38.1041 37.0625C38.0419 39.235 37.9193 43.5189 38.078 46.2524C38.1563 47.6016 38.3032 48.7999 38.5597 49.5971C38.9326 50.7561 39.5559 51.5277 40.4812 52.4051C42.2508 54.1273 44.8619 54.9724 48.3225 54.9993L48.3226 55H48.436C48.4556 55 48.4751 55 48.4946 55H50.043V54.9988L60.2331 54.9919C64.0814 55.0942 67.0061 54.2246 69.0071 52.3831C71.0596 50.4904 72.0859 47.8302 72.0859 44.4029V35.9691C72.0859 32.5417 71.0596 29.7945 69.0071 28.4132C68.5049 28.0537 67.9346 27.7393 67.2965 27.47C67.7117 27.268 68.1022 27.0452 68.4685 26.8019C70.6235 25.3696 71.701 23.3851 71.701 20.1622V12.5206C71.701 8.99092 70.7004 6.33089 68.6994 4.54047C66.7496 2.75004 63.8761 1.90599 60.0791 2.0083L48.6109 2.00046V2C48.5524 2 48.4944 2.00011 48.4369 2.00034L47.9378 2V2.00541C43.7202 2.07585 42.4502 2.83906 40.7614 4.54523C38.9392 6.33895 38.0281 9.00392 38.0281 12.5401V17.5227H45.387Z" fill="#3B39CA"/>
<path d="M49.957 22.0684H43.0753C40.2723 22.0684 38 24.3337 38 27.1282C38 29.9227 40.2723 32.1881 43.0753 32.1881H49.957C52.76 32.1881 55.0323 29.9227 55.0323 27.1282C55.0323 24.3337 52.76 22.0684 49.957 22.0684Z" fill="#FF202A"/>
<path fill-rule="evenodd" clip-rule="evenodd" d="M49.9569 31.5015C52.3799 31.5015 54.344 29.5432 54.344 27.1277C54.344 24.7122 52.3799 22.7539 49.9569 22.7539C47.534 22.7539 45.5698 24.7122 45.5698 27.1277C45.5698 29.5432 47.534 31.5015 49.9569 31.5015Z" fill="white"/>
<path d="M51.4618 25.7031C51.6453 25.7031 51.7389 25.7983 51.7426 25.9885L51.8307 28.4145H51.0874L51.0104 26.3014H50.9333L50.4763 27.8163C50.4617 27.8967 50.4286 27.959 50.3772 28.0029C50.3259 28.0468 50.2561 28.0687 50.168 28.0687H49.7606C49.6725 28.0687 49.6028 28.0468 49.5514 28.0029C49.5001 27.959 49.4652 27.8967 49.4468 27.8163L48.9899 26.3014H48.9128L48.8467 28.4145H48.1035L48.1861 25.9885C48.1898 25.7983 48.287 25.7031 48.4779 25.7031H49.1936C49.278 25.7031 49.3459 25.7251 49.3973 25.769C49.4487 25.8129 49.4817 25.8769 49.4964 25.9611L49.8542 27.1576C49.8762 27.2235 49.8928 27.2894 49.9038 27.3552C49.9148 27.4211 49.924 27.4888 49.9313 27.5583H49.9919C50.0066 27.4851 50.0176 27.4175 50.0249 27.3552C50.0359 27.2894 50.0506 27.2235 50.0689 27.1576L50.4213 25.9611C50.4543 25.7891 50.5571 25.7031 50.7296 25.7031H51.4618Z" fill="#00A2E9"/>
</g>
<defs>
<clipPath id="clip0_2761_101">
<rect width="128" height="53" fill="white" transform="translate(38 2)"/>
</clipPath>
</defs>
</svg>
