<svg width="203" height="57" viewBox="0 0 203 57" fill="none" xmlns="http://www.w3.org/2000/svg">
<path d="M71.8096 25.9559C71.2524 25.1549 70.521 24.528 69.5806 24.0404C70.1379 23.6573 70.6255 23.1697 71.0086 22.6124C71.6355 21.7069 71.9489 20.6969 71.9489 19.5476C71.9489 18.3983 71.5658 17.1793 70.7996 16.2738C70.0682 15.3683 69.0582 14.6369 67.8393 14.0797C66.6551 13.5572 65.3317 13.209 63.8689 13.0697C63.4161 13.0697 62.9982 13 62.5455 13C61.5006 13 60.421 13.1045 59.3413 13.3134C57.8089 13.5921 56.3113 14.1145 54.9182 14.8459L54.361 15.1245L56.1372 19.5824L56.8337 19.1645C57.6696 18.6769 58.5751 18.2938 59.5154 18.05C60.4558 17.7714 61.3613 17.6669 62.232 17.6669H62.441C63.2072 17.6669 63.9037 17.7714 64.5306 17.9455C65.1575 18.1197 65.6799 18.3983 66.0282 18.7814C66.3417 19.0948 66.5158 19.4779 66.5158 20.0004C66.5158 20.5228 66.272 21.0452 65.7844 21.4283C65.262 21.8114 64.461 22.0204 63.4161 22.0204H58.0179V26.4435H63.7296C64.9486 26.4435 65.8889 26.6524 66.5855 27.0704C67.1775 27.4187 67.4562 27.9062 67.4562 28.6028C67.4562 29.2993 67.282 29.6824 66.8641 30.1004C66.4113 30.5531 65.7844 30.8666 64.9834 31.1104C64.2172 31.3194 63.3813 31.4587 62.4758 31.4587C61.5703 31.4587 62.3365 31.4587 62.2668 31.4587C61.2568 31.4587 60.212 31.2845 59.1672 30.9711C58.1572 30.6576 57.182 30.2049 56.3461 29.6128L55.6496 29.16L53.8037 33.3045L54.2913 33.618C55.5103 34.3842 56.7989 34.9763 58.1572 35.3942C59.5154 35.7773 60.9085 36.0211 62.2668 36.0907H63.0679C64.1475 36.0907 65.1924 35.9863 66.2024 35.7773C67.4562 35.4987 68.5706 35.0807 69.5806 34.5235C70.5906 33.9314 71.3917 33.2 71.9838 32.3294C72.5758 31.4238 72.8893 30.379 72.8893 29.2297C72.8893 28.0804 72.541 26.9311 71.8793 25.9907H71.8096V25.9559Z" fill="#485252"/>
<path d="M84.2777 13.3145L73.9688 35.7783H79.6108L81.7353 30.9024H91.5916L93.716 35.7783H99.4278L89.084 13.3145H84.2777ZM83.6857 26.4793L86.6808 19.6183L89.676 26.4793H83.6857Z" fill="#485252"/>
<path d="M148.361 13.3145L140.316 26.6534L132.166 13.3145H127.812V35.7783H132.967V23.6931L138.992 33.3752H141.535L147.525 23.5538L147.56 35.7783H152.749L152.679 13.3145H148.361Z" fill="#485252"/>
<path d="M163.406 26.6534H173.82V22.091H163.406V17.9465H175.109V13.3145H158.043V35.7783H175.561V31.1462H163.406V26.6534Z" fill="#485252"/>
<path d="M197.851 17.1455C197.05 15.9265 195.866 14.9514 194.403 14.2896C192.975 13.6627 191.234 13.3145 189.214 13.3145H179.288V35.8828H184.652V29.6835H189.179C191.164 29.6835 192.906 29.37 194.334 28.7083C195.831 28.0466 196.981 27.1062 197.782 25.8524C198.583 24.6334 199.001 23.1359 199.001 21.4641C199.001 19.7924 198.583 18.3296 197.782 17.0758L197.851 17.1455ZM192.557 24.111C191.791 24.7379 190.607 25.0514 189.04 25.0514H184.686V18.0162H189.04C190.642 18.0162 191.826 18.3296 192.557 18.9565C193.289 19.5486 193.672 20.3845 193.672 21.5338C193.672 22.6831 193.324 23.519 192.557 24.111Z" fill="#485252"/>
<path d="M107.264 26.9669V13.3145H101.97V35.7783H106.706L117.224 22.1607V35.7783H122.553V13.3145H117.781L107.264 26.9669Z" fill="#485252"/>
<path d="M117.782 6H107.682V10.6321H117.782V6Z" fill="#485252"/>
<path d="M30.5386 14.5702C30.5386 13.8736 31.0958 13.3164 31.7924 13.3164H40.0117C40.7083 13.3164 41.2655 13.8736 41.2655 14.5702V24.0433H30.5386V14.5702Z" fill="#339900"/>
<path d="M30.5386 26.5859H41.2655V36.0591C41.2655 36.7556 40.7083 37.3129 40.0117 37.3129H30.5386V26.5859Z" fill="#339900"/>
<path d="M17.269 27.8397C17.269 27.1432 17.8263 26.5859 18.5228 26.5859H27.996V37.3129H17.269V27.8397Z" fill="#339900"/>
<path d="M17.269 39.8535H27.996V49.3266C27.996 50.0232 27.4387 50.5804 26.7422 50.5804H17.269V39.8535Z" fill="#FEBE00"/>
<path d="M4 41.1073C4 40.4108 4.55724 39.8535 5.2538 39.8535H14.7269V50.5804H5.2538C4.55724 50.5804 4 50.0232 4 49.3266V41.1421V41.1073Z" fill="#FF8900"/>
<path d="M169.676 41.3535H166.716V42.468H169.676V41.3535Z" fill="#485252"/>
<path d="M85.915 44.6962H88.2137V50.582H89.8854V44.6962H92.184V43.3379H85.915V44.6962Z" fill="#485252"/>
<path d="M67.9787 44.2789C67.6305 43.9306 67.2125 43.6868 66.7249 43.4778C66.2374 43.3037 65.7149 43.1992 65.1577 43.1992C64.6005 43.1992 64.078 43.3037 63.5905 43.4778C63.1029 43.652 62.6849 43.9306 62.3367 44.2789C61.9884 44.6271 61.7098 45.0103 61.5008 45.463C61.2918 45.9158 61.2222 46.4034 61.2222 46.9606C61.2222 47.5178 61.3267 48.0054 61.5008 48.4582C61.7098 48.911 61.9884 49.2941 62.3367 49.6423C62.6849 49.9906 63.1029 50.2344 63.5905 50.4434C64.078 50.6175 64.6005 50.722 65.1925 50.722C65.7846 50.722 66.2722 50.6175 66.7598 50.4434C67.2474 50.2692 67.6653 49.9906 68.0136 49.6772C68.3618 49.3289 68.6405 48.9458 68.8494 48.493C69.0584 48.0403 69.1629 47.5178 69.1629 46.9954C69.1629 46.473 69.0584 45.9506 68.8494 45.4978C68.6405 45.0451 68.3618 44.662 68.0136 44.3137H67.9787V44.2789ZM67.2474 47.901C67.1429 48.1796 66.9687 48.4234 66.7598 48.6323C66.5508 48.8413 66.307 49.0154 66.0284 49.1199C65.7498 49.2244 65.4711 49.2941 65.1229 49.2941C64.7746 49.2941 64.496 49.2244 64.2173 49.1199C63.9387 49.0154 63.6949 48.8413 63.486 48.6323C63.277 48.4234 63.1377 48.1796 62.9984 47.901C62.8939 47.6223 62.8242 47.3089 62.8242 46.9606C62.8242 46.6123 62.8939 46.2989 62.9984 46.0203C63.1029 45.7416 63.277 45.4978 63.486 45.2889C63.6949 45.0799 63.9387 44.9406 64.2173 44.8013C64.496 44.6968 64.8094 44.6271 65.1229 44.6271C65.4363 44.6271 65.7498 44.6968 66.0284 44.8013C66.307 44.9058 66.5508 45.0799 66.7249 45.2889C66.9339 45.4978 67.0732 45.7416 67.2125 46.0203C67.317 46.2989 67.3867 46.6123 67.3867 46.9606C67.3867 47.3089 67.317 47.6223 67.2125 47.901H67.2474Z" fill="#485252"/>
<path d="M76.0934 46.7162C75.6406 46.3331 74.9789 46.1589 74.1082 46.1589H72.0882V44.6613H76.2675V43.3379H70.4165V50.582H73.8644C74.8048 50.582 75.5013 50.3731 76.0237 49.99C76.5462 49.6069 76.79 49.0148 76.79 48.3182C76.79 47.6217 76.5462 47.0993 76.0934 46.7162ZM74.7351 49.0845C74.4913 49.2586 74.1779 49.3282 73.76 49.3282H72.0882V47.3779H73.76C74.6306 47.3779 75.0834 47.6913 75.0834 48.3182C75.0834 48.9451 74.9789 48.8755 74.7351 49.0496V49.0845Z" fill="#485252"/>
<path d="M134.708 41.3535H131.748V42.468H134.708V41.3535Z" fill="#485252"/>
<path d="M59.0284 43.6513C58.5756 43.4424 57.9836 43.3379 57.3567 43.3379H54.2222V50.582H55.8939V48.5969H57.3567C58.0184 48.5969 58.5756 48.4924 59.0284 48.2834C59.4811 48.0745 59.8643 47.761 60.108 47.3779C60.3518 46.9948 60.4912 46.5072 60.4912 45.9848C60.4912 45.4624 60.3518 44.9748 60.108 44.5917C59.8643 44.2086 59.4811 43.8951 59.0284 43.6862V43.6513ZM58.4363 46.8903C58.1925 47.0993 57.8094 47.2386 57.287 47.2386H55.9287V44.731H57.287C57.8094 44.731 58.1925 44.8355 58.4363 45.0793C58.6801 45.2882 58.8194 45.6017 58.8194 46.0196C58.8194 46.4376 58.6801 46.7162 58.4363 46.9251V46.8903Z" fill="#485252"/>
<path d="M84.3479 44.2789C83.9996 43.9306 83.5817 43.6868 83.0941 43.4778C82.6065 43.3037 82.0841 43.1992 81.5268 43.1992C80.9696 43.1992 80.4472 43.3037 79.9596 43.4778C79.472 43.652 79.0541 43.9306 78.7058 44.2789C78.3575 44.6271 78.0789 45.0103 77.8699 45.463C77.661 45.9158 77.5913 46.4034 77.5913 46.9606C77.5913 47.5178 77.6958 48.0054 77.8699 48.4582C78.0789 48.911 78.3575 49.2941 78.7058 49.6423C79.0541 49.9906 79.472 50.2344 79.9596 50.4434C80.4472 50.6175 80.9696 50.722 81.5617 50.722C82.1537 50.722 82.6413 50.6175 83.1289 50.4434C83.6165 50.2692 84.0344 49.9906 84.3827 49.6772C84.731 49.3289 85.0096 48.9458 85.2186 48.493C85.4275 48.0403 85.532 47.5178 85.532 46.9954C85.532 46.473 85.4275 45.9506 85.2186 45.4978C85.0096 45.0451 84.731 44.662 84.3827 44.3137H84.3479V44.2789ZM83.6165 47.901C83.512 48.1796 83.3379 48.4234 83.1289 48.6323C82.9199 48.8413 82.6762 49.0154 82.3975 49.1199C82.1189 49.2244 81.8403 49.2941 81.492 49.2941C81.1437 49.2941 80.8651 49.2244 80.5865 49.1199C80.3079 49.0154 80.0641 48.8413 79.8551 48.6323C79.6461 48.4234 79.5068 48.1796 79.3675 47.901C79.263 47.6223 79.1934 47.3089 79.1934 46.9606C79.1934 46.6123 79.263 46.2989 79.3675 46.0203C79.472 45.7416 79.6461 45.4978 79.8551 45.2889C80.0641 45.0799 80.3079 44.9406 80.5517 44.8013C80.8303 44.6968 81.1437 44.6271 81.4572 44.6271C81.7706 44.6271 82.0841 44.6968 82.3627 44.8013C82.6413 44.9058 82.8851 45.0799 83.0941 45.2889C83.3031 45.4978 83.4424 45.7416 83.5817 46.0203C83.6862 46.2989 83.7558 46.6123 83.7558 46.9606C83.7558 47.3089 83.6862 47.6223 83.5817 47.901H83.6165Z" fill="#485252"/>
<path d="M154.038 46.8916C153.969 46.8916 153.899 46.8219 153.829 46.8219C154.143 46.6826 154.421 46.4737 154.596 46.195C154.77 45.9164 154.874 45.603 154.874 45.2895C154.874 44.9761 154.77 44.5581 154.526 44.2795C154.282 44.0009 153.969 43.7571 153.586 43.583C153.202 43.4088 152.75 43.3044 152.262 43.2695C151.775 43.2347 151.287 43.2695 150.765 43.3392C150.242 43.4437 149.755 43.583 149.302 43.8268L149.824 45.1154C150.103 44.9413 150.416 44.8368 150.73 44.7323C151.043 44.6278 151.357 44.593 151.635 44.593C151.914 44.593 152.192 44.593 152.436 44.6626C152.68 44.7323 152.854 44.8368 152.993 44.9413C153.133 45.0806 153.202 45.2199 153.202 45.4288C153.202 45.6378 153.098 45.8468 152.924 45.9861C152.75 46.1254 152.471 46.195 152.123 46.195H150.486V47.4488H152.262C152.645 47.4488 152.959 47.5185 153.168 47.6578C153.411 47.7971 153.516 48.0061 153.516 48.2847C153.516 48.5633 153.446 48.7026 153.272 48.8768C153.098 49.0161 152.889 49.1554 152.61 49.2251C152.332 49.2947 152.018 49.3295 151.67 49.3295C151.322 49.3295 150.973 49.2599 150.625 49.1554C150.277 49.0509 149.929 48.9116 149.615 48.7375L149.093 49.9216C149.511 50.1654 149.963 50.3395 150.416 50.4788C150.869 50.5833 151.322 50.653 151.809 50.6878C152.262 50.6878 152.715 50.6878 153.098 50.5833C153.516 50.4788 153.864 50.3395 154.178 50.1654C154.491 49.9913 154.735 49.7475 154.909 49.4688C155.083 49.1902 155.188 48.8768 155.188 48.5285C155.188 48.1802 155.083 47.8319 154.874 47.5533C154.665 47.2747 154.421 47.0309 154.038 46.8916Z" fill="#485252"/>
<path d="M158.914 43.3379L155.675 50.582H157.381L158.043 49.0148H161.387L162.013 50.582H163.755L160.516 43.3379H158.844H158.914ZM158.565 47.761L159.715 44.9748L160.864 47.761H158.565Z" fill="#485252"/>
<path d="M102.458 44.2789C102.11 43.9306 101.692 43.6868 101.204 43.4778C100.717 43.3037 100.194 43.1992 99.6372 43.1992C99.0799 43.1992 98.5575 43.3037 98.0699 43.4778C97.5824 43.652 97.1644 43.9306 96.8161 44.2789C96.4679 44.6271 96.1893 45.0103 95.9803 45.463C95.7713 45.9158 95.7017 46.4034 95.7017 46.9606C95.7017 47.5178 95.8061 48.0054 95.9803 48.4582C96.1893 48.911 96.4679 49.2941 96.8161 49.6423C97.1644 49.9906 97.5824 50.2344 98.0699 50.4434C98.5575 50.6175 99.08 50.722 99.672 50.722C100.264 50.722 100.752 50.6175 101.239 50.4434C101.727 50.2692 102.145 49.9906 102.493 49.6772C102.841 49.3289 103.12 48.9458 103.329 48.493C103.538 48.0403 103.642 47.5178 103.642 46.9954C103.642 46.473 103.538 45.9506 103.329 45.4978C103.12 45.0451 102.841 44.662 102.493 44.3137H102.458V44.2789ZM101.727 47.901C101.622 48.1796 101.448 48.4234 101.239 48.6323C101.03 48.8413 100.787 49.0154 100.508 49.1199C100.229 49.2244 99.9506 49.2941 99.6024 49.2941C99.2541 49.2941 98.9755 49.2244 98.6968 49.1199C98.4182 49.0154 98.1744 48.8413 97.9655 48.6323C97.7565 48.4234 97.6172 48.1796 97.4779 47.901C97.3734 47.6223 97.3037 47.3089 97.3037 46.9606C97.3037 46.6123 97.3734 46.2989 97.4779 46.0203C97.5824 45.7416 97.7565 45.4978 97.9655 45.2889C98.1744 45.0799 98.4182 44.9406 98.662 44.8013C98.9406 44.6968 99.2541 44.6271 99.5675 44.6271C99.881 44.6271 100.194 44.6968 100.473 44.8013C100.752 44.9058 100.995 45.0799 101.204 45.2889C101.413 45.4978 101.553 45.7416 101.692 46.0203C101.797 46.2989 101.866 46.6123 101.866 46.9606C101.866 47.3089 101.797 47.6223 101.692 47.901H101.727Z" fill="#485252"/>
<path d="M166.437 48.0396V43.3379H164.765V50.582H166.332L169.815 45.8455V50.582H171.452V43.3379H169.885L166.437 48.0396Z" fill="#485252"/>
<path d="M189.492 44.2789C189.144 43.9306 188.726 43.6868 188.239 43.4778C187.751 43.3037 187.229 43.1992 186.671 43.1992C186.114 43.1992 185.592 43.3037 185.104 43.4778C184.617 43.652 184.199 43.9306 183.85 44.2789C183.502 44.6271 183.223 45.0103 183.014 45.463C182.805 45.9158 182.736 46.4034 182.736 46.9606C182.736 47.5178 182.84 48.0054 183.014 48.4582C183.223 48.911 183.502 49.2941 183.85 49.6423C184.199 49.9906 184.617 50.2344 185.104 50.4434C185.592 50.6175 186.114 50.722 186.706 50.722C187.298 50.722 187.786 50.6175 188.273 50.4434C188.761 50.2692 189.179 49.9906 189.527 49.6772C189.876 49.3289 190.154 48.9458 190.363 48.493C190.572 48.0403 190.677 47.5178 190.677 46.9954C190.677 46.473 190.572 45.9506 190.363 45.4978C190.154 45.0451 189.876 44.662 189.527 44.3137L189.492 44.2789ZM188.761 47.901C188.657 48.1796 188.482 48.4234 188.273 48.6323C188.064 48.8413 187.821 49.0154 187.542 49.1199C187.263 49.2244 186.985 49.2941 186.637 49.2941C186.288 49.2941 186.01 49.2244 185.731 49.1199C185.452 49.0154 185.209 48.8413 185 48.6323C184.791 48.4234 184.651 48.1796 184.512 47.901C184.408 47.6223 184.338 47.3089 184.338 46.9606C184.338 46.6123 184.408 46.2989 184.512 46.0203C184.617 45.7416 184.791 45.4978 185 45.2889C185.209 45.0799 185.452 44.9406 185.696 44.8013C185.975 44.6968 186.288 44.6271 186.602 44.6271C186.915 44.6271 187.229 44.6968 187.507 44.8013C187.786 44.9058 188.03 45.0799 188.204 45.2889C188.413 45.4978 188.552 45.7416 188.691 46.0203C188.796 46.2989 188.866 46.6123 188.866 46.9606C188.866 47.3089 188.796 47.6223 188.691 47.901H188.761Z" fill="#485252"/>
<path d="M197.642 47.1341C197.433 46.9948 197.224 46.8903 196.946 46.8207C197.085 46.751 197.19 46.6813 197.294 46.6117C197.747 46.2982 197.956 45.8107 197.956 45.2186C197.956 44.6265 197.712 44.1738 197.259 43.8255C196.807 43.512 196.145 43.3379 195.309 43.3379H191.931V50.582H195.483C196.389 50.582 197.085 50.4079 197.573 50.0596C198.06 49.6765 198.304 49.1889 198.304 48.562C198.304 47.9351 198.095 47.4824 197.642 47.1689V47.1341ZM193.602 44.5569H195.17C195.518 44.5569 195.797 44.6265 196.006 44.8007C196.18 44.94 196.284 45.1489 196.284 45.4624C196.284 45.7758 196.18 45.9848 196.006 46.1241C195.831 46.2634 195.553 46.3331 195.17 46.3331H193.602V44.5917V44.5569ZM196.319 49.0845C196.11 49.2238 195.831 49.3282 195.448 49.3282H193.602V47.4824H195.448C195.831 47.4824 196.145 47.552 196.319 47.7262C196.528 47.8655 196.632 48.1093 196.632 48.3879C196.632 48.6665 196.528 48.9451 196.319 49.0845Z" fill="#485252"/>
<path d="M180.019 43.3379L177.372 47.8307L174.656 43.3379H173.263V50.582H174.83V46.2982L176.954 49.8158H177.721L179.845 46.2286V50.582H181.412V43.3379H180.019Z" fill="#485252"/>
<path d="M143.276 46.1938H140.002V43.3379H138.331V50.582H140.002V47.5869H143.276V50.582H144.948V43.3379H143.276V46.1938Z" fill="#485252"/>
<path d="M109.842 46.1938H106.568V43.3379H104.896V50.582H106.568V47.5869H109.842V50.582H111.548V43.3379H109.842V46.1938Z" fill="#485252"/>
<path d="M114.091 46.2634C114.091 46.8903 114.021 47.4127 113.951 47.8307C113.882 48.2486 113.777 48.5969 113.603 48.8407C113.429 49.0845 113.22 49.1889 112.941 49.1889C112.663 49.1889 112.732 49.1889 112.628 49.1541L112.523 50.582C112.698 50.582 112.837 50.6517 112.941 50.6517H113.324C113.742 50.6517 114.091 50.5472 114.369 50.3383C114.648 50.1293 114.857 49.8507 115.031 49.4676C115.205 49.0845 115.31 48.5969 115.379 48.0745C115.449 47.5172 115.519 46.8903 115.519 46.1938V44.6962H118.061V50.582H119.733V43.3379H114.16L114.056 46.2634H114.091Z" fill="#485252"/>
<path d="M131.505 48.0396V43.3379H129.833V50.582H131.4L134.848 45.8455V50.582H136.52V43.3379H134.953L131.505 48.0396Z" fill="#485252"/>
<path d="M123.982 43.3379L120.743 50.582H122.449L123.111 49.0148H126.454L127.081 50.582H128.823L125.584 43.3379H123.912H123.982ZM123.633 47.761L124.783 44.9748L125.932 47.761H123.633Z" fill="#485252"/>
</svg>
